<mxfile host="65bd71144e">
    <diagram id="fsMgCEH3R7YnK3bgVnxp" name="Page-1">
        <mxGraphModel dx="1013" dy="708" grid="1" gridSize="10" guides="1" tooltips="1" connect="1" arrows="1" fold="1" page="1" pageScale="1" pageWidth="827" pageHeight="1169" math="0" shadow="0">
            <root>
                <mxCell id="0"/>
                <mxCell id="1" parent="0"/>
                <mxCell id="2" value="" style="shape=image;verticalLabelPosition=bottom;labelBackgroundColor=default;verticalAlign=top;aspect=fixed;imageAspect=0;image=data:image/png,iVBORw0KGgoAAAANSUhEUgAAAggAAADxCAYAAACu/k+bAAAAAXNSR0IArs4c6QAAIABJREFUeF7svQm45VdVJ7rOOXeep7o1paZUUgkZCVOEhEFoEKEfar8AToRJ+Lpbxff59GnbKg1+2gqvnwhPulsFVESZBbrFAe0oER9jBkiopCqp1Dzcqlv31p3vPdNjrbXX3mvv//4P59ZNVSX3nu+D1D3n/9/D2nuv9VvjLjUBmqA+Q4OD8IIXvADe9a53QUdHB/zZn/0ZvPnNb4Y//MM/hJWVFfiFX/gF+MQnPgH79u2D+++/H17zmtfAT/3UT8Hf/d3fwcc//nG49tpr4Wd/9mfhn//5n+EDH/gAvP3tb6e23ve+98Hb3vY2uOWWW+C//Jf/As2m160ewsa/LyMFcM3b2tpgeXk5OoqXvexlsLi4CA899BD996677oIHH3wQenp6YHx8nNYd13hycpLef/TRR2n/fPrTn4bu7m541ateBX/6p38KIyMj0NXVBUePHr2Ms93oeoMCl4cC7e3tMDg4CLVaLXUA27Ztg82bNxOfDT+vfe1r4VOf+lTu4LGf06dPR5/DM4jnPfyMjo7Cr/7qr8IP/uAP0ll9z3veEx3nwsICzMzM5I5h44G1p8DY2Bg897nPhccee4x46i//8i/DO9/5TvjiF78IuC71ep1k80c/+tGWOn/Tm94Ef/zHf2zfKcUAAm6c3/qt34JDhw4RI3/Ri15EAAE36xve8AbqNA8gfPnLX4Zf//Vfh3e84x3whS98AX7+538e/vN//s/Q19dHYGFpaamlgW88fGko0NnZSQAhbX127NgBU1NT8NKXvhQefvhheOELXwjnz5+H/fv3Q39/P2zdupXA35EjR2B2dpYAwA/90A/RHkBm9RM/8RPwkY98BHCDDw8Pw8GDBy/NxDZ62aDAFUSBIgABAfXevXvh2LFjcOHCBTv666+/HhqNBhw4cCB3RqsBCHhGUcjguf2DP/gDuPrqq0lRDD8bACGX/E/aAwIQEDzedttttE4o3PHvX/qlX4IHHngAzp07B1/60pdaGkMmQDjb0QbXdvdSg7/4i79InaE14ZWvfCUBBBQAaAX42Mc+VgggoOUAAQIikne/+93wm7/5m4Q4//zP/5wQzsbnyqMAMiVkKvPz89HB3XnnnYAgAtfvm9/8Jjzzmc+EUqlEloIbb7wRKpUKWQ/wO9ygCBAQYOLfjz/+OLziFa+AD3/4wxsA4cpb+o0RXUIKFAEIOBy0yCIPRp6L1gb8++d+7ufgN37jN+DMmTO5I0awn/YcAnQ8y+Hnda97HfGARx55BG699VYCJ5/5zGcSzyGPQCVg43PpKSAA4a//+q+p8ze+8Y3wJ3/yJ/Tvn/zJn6T9grwcQVzRDyp3z3/+8+Gzn/2sfcWzIHx0sB9+FsoeQEArwj333EOmjA996EMEHNAshe4GZPTiYvj93/992L17Nw3qec97HpmgUTvEv3Hw2AZO5lvf+ha5HjY+VyYFkKGgkE8zfeJ6oml0bm6OQARahPA7BH74Lv4tTKNardI+QVfCwMAAMRoEmQgcpJ80V8aVSZ2NUW1QYG0oUBQgILBGVwOeH9Tk0WqA1gPkqWihzfvgGU2zBiI4QJAQfpC/33777WS9QPdhzMWBCsL09DTgGd/4XHoKIJ99+ctfTrw4/KBFFy22rX5wzfF/2m1UWjIxCPf3dcPb2jrgWCQ0AP3LiC5QA8QPmrgQXeoPPoObWPu7ZPOhSRoFAqJfNEVvfK5sCuA6omDfOPxX9jptjO6pS4GiAOFiZtjb25sb44NuYwQh4QfjEBCQSKxR+DvyBokzupgxbrx75VEAlbgPfvCDFONSGhwc3IgWvPLW6LKOCC0IYiW6rAPZ6HyDAk9TCjzZAAGFPmqCCPSzPqi4YZxZucyW4yIftGAgONhwExeh1lP7mQ2A8NRevydt9Og2QKCA5smNjJMnjcwbDa9TCjyZAAHBAbru0A1Y5OyipQH/VwQkICjAdjGDaePz9KfABkB4+q/xqmcoKY/IODYYwqrJuPHiBgUSFHiyAAK2i7EBaDlATb/IBwEFnnU0LaNFIe2DoANjGvKsEkX63HjmqUGBDYDw1FinyzZKZB5oScB4EvwvMociWsllG/BGxxsUeApQAM8SBu8WFeJZU0IAL2Z/jA1YbZsCFDDwTVsTMGAZA4zxvxtn/ymwudZwiBsAYQ2JudHUBgU2KLBBgQ0KbFDg6UKBDYDwdFnJjXlsUGCDAhsU2KDABgXWkAIbAGENibnR1AYFNiiwQYENCmxQ4OlCgVK5XL5saY4DI2Pwb37mF+GaZz4XsBwD+rfsYFRubglKgH+WsayT+mAIDr4jv0s2L/6NH2yNwnTK/D59j/9Q90DQd1hvusR9x3KCsQlssQwlEGo1+DXTj3lAjQ2ThspN7pfazdoxJRyFm5seA43KNCDzsk013XiZXPh/0k4JyvhvapvpRB+hQ8qISobGOIZwzFkbhbv336B1yZ55hCrYS7KnSlY7kbFKw3U1pIojzSrGxbTmdYqvlSI9AO883DEJutDeDPegGSf9x5yDtL34VGI+3jzV/vBWmLZ4yu6Stc16RvMNRRw6NorOyCnwf0U/9uzlvCB8C1dcHwGa0arunMEx+uOUseB/mY85elk+VLAvGq9+1vAEPV89dtyHdo7E0/hvPvL634YfqqVMrKs6g5onOUbqE7vZZJ6m+8Gu6WyUAOoN7KEJ9Fjk440vssVoXhlbguSLWVT5t392HQ8WuvL6BFwMB93Ar81cLE2bUDJzxOGVS2UUNNCs82At/WhLlOCj7/4VePSbXy26hS/6OS1RLrqxVhsY2rQZ3vRr74Gbnv9Cu0gi9GXzSZsULJcACLjRSXITkeVY2QVFNq3Se+V7vR/wPQQHvBj5AIH6wLVWjeD66r2nwUQhJk+4RQudYjnJ+Iqdk+VMTQYG5qM3tznRERZZVsCowWAoEPaZ4CBSaIVEI272wp84MJB9YIU7nTKUFhXXsgU9yc4SACHj2bSh8izwYCefSAWUJRIX9n+a0VBrGiB4YLgwwVp6MLEPWnp79Q9rQaJbCfdTVvCbZvKxkYS0lL9pBQIG3zCVYovOqEhQnu0vIhSyzk36GCIAISH8XYZCI9hLeWNuoNhpOOVBxhEColA44nvEbK0iwuLDwxpK/wqFr2Vxhk7NJp8R1tnSKdVs+KBExoU8uIHzQEUw5Wx6ewOnHBCdaFF0MwhPlecbrFgKj6L54nhQIQ3VHPw+6MgCL6lnjK9iPQqkBwIfTRMEDQDwgZ99K3zn3ntaHPHqH79iAIIgLhETIWOJAQSyECghSQtlJSP/1TQyCrcibe0MbZMAgkF/IUlF6IffRzcm641kbcgFCDgeEiZK3hUQrKxpmvkkNPeGEWaivyNuxQ3q0LAlk3mXR+yAij5IsQOUPi9sifVs/5l0ABDbvk60ujnwhAlCBhoWMxn7IUTOX4QAIXc9gsEQVYTYYa9RYMRIv2QsCAISwv1MTC4ApcV122IHPjbXEKiktZQnZIqNIP2pPIDgWdFyNOMYCBGNV9OUlY/WqZxuSTCKBam05kB6UqBMwrOJ2mIACvPplwUS1FkylhUSNqJxFpB4ifW1wjY+MqEn71qfhryn5KAwYNDWAcsLSJgjPbgPBghihZB+k4Nn8qKlwh8bWXHJeoRWAEYmnqKmrBvUTwAQSLEz78QAfBavEArYfSYWgYjFgefaZNZlPqUytyAZJzgW6g/HaCbhrZEh+/s3AELMwMwaLZvMg02i/5SNJ6Y+c2jk6Io+i23xo6qxEP3LQpr/otCTdsTCF1oOZCj4LD4dmsUTrgNrkvTtD6laKZ8mc7qcfhqqtuiKcTPTB1r3w7R07hl5LmmETQcIMQcCo/3kpzhAwAPi1kgWQk6XgAM3qhICKkGCqmMchwA4PGys++QLCFlpY8WMzEVAgAAuZ2YVhicuBrVKjjkoYSHMM39U8WGkDC5h7Qi17CKtJd7JMvMXaTBlVzBXd+sZgsvVgBUnTPx2yT5WQICmTYeHahqwYNU9nRwrnyt8w1iNW6CU7Aq1O1Cohho329xbAiEJwErKVlLLlcGybNeO0Ng0fGuC7cPyLQMeLEBgOjpw4UBDtPVAG5M/cdwCtvV7bLl3oCEECAIwwr5igFOYP7l4AreX3U4KrHnjEHeMATqCsdCNQH1V9PomAYKziDfh/e9YdxaE34Gbnv8iz8WgiSubB0moYxAS4gYPjeayChzw1jb/Q6DBHMh2k6VU8HtxsRKzHmDcAYLDxDueaVvBxGB3krDTQk4zM4M6GWEaiBNIFjzC5rHIGXNgwcYa4MOKMRTRsJ2rJulCSL5fHBjIrARg+YSQ2z9xvGiGq9v4CuaYAd3StPsM9uysS+xmYeaVLrq1WwjtUz5jEUCjAZqDpL52UAS25MuVtLGGQqvIGktvMYvDagR23uiTGq2ju3bWeAI6pdHQJaHb1sy8EbgseR/lQzU7hgIAwbl2ABrNMjXvBKex7OURJ/K7Ry+DmWVuq1kf0sIVr5E2BI7zEHCPiwXPHxS7bvw2YtNiN0X6R6wKsSesoYa0dQfBUQt3ezrpsqibPknJE4sDH24nAwrEb5DZH/lrUJaa3TXclD4vpKCoYlXabUttGYuKBxCwEY0kjdwgWdNswgfWG0B446/9Dtz0ghfZheJAH6PDKXMNa5TMdGMiR1mVzRl3iy+iA9tFAS5uSDoEEQGgcTs+n8UzBCQQgDG7hMYq50AFALngovgh4Xm7cWv+lWpVUOPn2IOkGyE8bAxCBL0720hMGCTf1cIsSyi3BgykH3LNeFq+HD4ncEtQSToTNUlbiDNwe0N2lptxtiDVTImZp88gfICQL3ZWISXMK3kCv1WAwGIreQajI1xDq0IWSAj7TmjAkZgOK+RSmD8CBNen8a0XtC4w70gKy7ilpsL9KEFu7WEFBFPeztDCPBRSrYAFjmUQHoS0aRDHZTcbg6cYQGCWWia5ltUfi9ciHwEa/tOaPzFAcHtUt1oxpnrh7xRnYGQJjlWEtghsieHQwDI2Tg3sNIty7SEHdm9ie1iamuROEL1K7xCpFb8X2WYsIqRm2ngNbnfdxSC88dd+G256wYs9wR8DCMSCDUiIih4F/skfZT5WAEjgnfqNTFMJ/z2/KAGAFD9SgLtLO6H262kzQTCiEkVRTZXHQKPxTpX9y/4WD0yMvSSxBuJewEBC3vgZZVlNh77gZqGoIYKme2Z7KTxCQBZPKz4mE92RzmVaBAcYZBQLpcy2HOAIQ3o5CwLzU3mGGW6BLVSEcwokiAZMhg2k5Sdxxo4/otiz+FwY4xMbZCtCqMgkPYGXEjOUZdkILQjYpwQs6v4tQCDrU2sr5ARBXKN2/aD7y3dBMYPhMekAwyK0SXsG6ZEmfFtbH1EzGCCQqm4zobIAgtPqRe8KsY+LyI/Qw5sYzyRv3Bi86AWLmw7FtSt7hIMZG8THS6bqJM6LuRdmumEmgW8tJCARTCANaNu9KGDZ4CyxIHguCbEaKHlFO0+xE7Fs2WwIcVGUSvCBn3kLfHs9BSm+8dd/B254vrMgiOCiDUKBdXyYxFcuGM1khthtFVoQxMRv2bMEgZg32EyY5AvWemBSFGntIrwjEV9g2hUh6vnVzDzYQOAfY5t7EelDHtXCitBoljA3zMcTSUpoUgihDUzk+fP+iwMEz3QXcKfQHeL/nA44YqxYrxczULGGcKsYXEYm/SxmnhGA6o2Ns5CsRzUcTz440PSyOyYlM8GkpV0M9w8GX9R7kib0i4AD6TK298Op5DHy1U6dhF6wpnxu41ayGANPGxu3jUJQpT4WU28DUaaBbKQBs1997dcIQOFxYjEtIBSTtMT9x3xSm+/tng6AQ/4UJWdH4gGMBY+sAwx6vbmYAZlRGHq6UYb0p/7N4EqNePYBuyryR8rAixU4eZrGJoDc+CRwDwlAoFgNfMbEOeG/kW6k2KmgRl7V+BhCK1G4tvK3B1SpQdMeaUIqPdSwE1kzK9sIRPoWCbQgfPvL/2u1R6rl92RdW35xLV7ANMe7f/234UaMQRBfP0X1M6noECv0ZIUjbQiz0BI9Sunm7j1CbRLlbzQ67f+j/lLcC5QyqaSGbGpZqpiVAN0fTlQYCZRDJN7IclrkpBF0tW+G4AB/SAMImpmyFu7rrkw/Fo3qCKca/izyNe9wm34OdPoU4wCBgk3VuZN/2hE5zualfnI/MnYL+1rahjZmgMCHZWkmRZY7zjPXu98TIzc1OdyQ0tqyMW4xpGTMinpi+gxkTThkXIUAgmGWaXOPWRsSYwiCs2LMXdOiEPMPOrECIEPXTwUDxAuSzF5bKthKKKZtzRbNnsuQV9SOeT/M2Q9jY9LGSNk2KgY7z1fvyMNaMM4veuLs2HSoUfpkrIXRgBceb1CjxjuLRro5p6WNORUwJ7w2NncW6PzxwKgaN8sCXh/7kSNsfuMaF/yRNrWbl6w1itOJG5jcHmjtD/i9WDtCSnkCUwdABjKLeKfOotBBE4aVacu00YeYFpUSpzlKloUBxNjeurMg3P1rv00WBCYoU04Les0nQu2ZCWzqGERcBQISUNsnAIdnSaHWGAOPBsjJxiNfG++kxHMm772Ydsdz9GMMzK5Rmzxk2jJeDRDShJAPLBxQcNUizGEK2Ir3niW+EcjFJifHPSFHeP0SRhR+LuEaEB+vEITjDlZrrOetknQnoDmP4lJaAgeJqanAM/+32PowowxSMzP61xpKsue4KZZoHXA3YvUhKBHfuMCvlDXOBAoqDoHS0VQcTBq4aQUkhG1k6ZYxK4IIjZB2+tlkwKLQlS1uJiMvRv5E0SBe8+yAPRGe0iAJrxaD5vhdk56cBhCCEbPZPMVaqNqT10i/FkVN1ThwYB2fjLVXJhN9aKYnn3q4gMYnkRWjIEDFTkcBhNCSIACB0q0N0LCOINM5BhrSvAzdE/vRPKeHSjxb1Y/AGgy4b0SRovNlaJUACLoOAm4PY0HwFGBzjiQIEmkXgv73/8xb1lcdhLt//XfIgiDgQKe3IXH01gsBQoPTBYLocXNszGErNzh2gXxKGRlOTjeNqnXEPiU7gYJy1M4hhhDUMohyEhICzuNtlY4c4SRBQgojp2q6zJwM01DtugBP33rghLOM2P1uxKbV2fK06yw3BY9Ki3fG6GFvId3y+0yjdCCo+Ux6QZysUTidScbSUp8pptCW2jBDTbc4GC0rVHOCfUizs2Zzzk33VpucsOn00swqAS4icQskngJmz4yYvyRgrlCwrUGQUxgna0WFCceBF6+v/qQpG3Gg5faH8B6jn1uLZfbY2NTvWUuse1H53TEDR7Rik31D/ClovBiIikXQcEMkKJuc7SOWv7CokjyH/41tDaG3AwxukFLlMC1vFG2q/vHgtdHfaS27JYAQ0soUU9Lz8eaGAhkTBBqu4BmDB0Mb5dbAPS0WHAK8XuaJcXeLCyJ4VnZ/Yt9Rv+78MTixIR40G6K/iQoNi/HJdNclQOAsBtaqw+0ueQu8lux/F01IiktYxsYqJhuiDTNFJuUFsgQbywoF4+JIYwBW+w2Pkax5ImUq2RIHnfjHMBZn4DM4/ktSF9P5u7FKaJHr+W9dBkiMgTr2pEMRBTZpphcwYG+acd1OELZPIj/Vk9aLmKWudaEjE7L0xtiiOnZr7B/evrBiTFmFfNO/pzvYDhLugQhAyAYH4Qq6tKzYe8TWdMCNsZoxl3WAy45WAQRiOi1YfUJtxqNqDkAQsOdbKKSMrBFYaupsuGhhTfVghLGHR0wFFLPVJX6a9ZKJdUYLKi0MpQkGDHIezGwTgYEs4pIwmFfK9muyH1i5FZ9/qNlzsKDLLIiJYaF6fKLcvjkHqpBPjDDa1O+RWoCGNqGbByxAcERKcAMBhQYamN+TpZpJYKppJNcjZpFx+4dilOy4TNKFuL6UG5cVeQdUGB8glTjtUK+3PTtY0llc3U5dMvEPyg1uhI+2+DW9FExzDiKxJsz/CNLQQzIzib2jeNFSE9Y5QHDoTB9S38zDAiQts4AFeVxTirP8ZJ8x0U7pd+aQ4CayC0g8I53RiXCiRY/FPASZCmJJ8YQ4sqbMADxxywhIcG+Hdwf4tAytCZq1YVshXCNopoQlmucN7jcpTjJ+q/3EakJIC4ZuxOZMqpSXJpSIl4gz/CTgYbMoC0hZX/yHFqrMOCVSOL9l9wQ2jfMulEpgBkF7JtwmEZeJXhFj8LAdy/aJtVNE1DqmE9f5rJBIyxywh1Jo6wA9F6tJuk0sswsGaHdSlDDZqxEho30hFtXuuTzMqnt7JnAGC3jRoSqeEmLaoDlopm7uc0kdfe4iKeFg2+U9i84xSjo0wJDVIDGcZ2dh2PlI5I2sr9GeZR9rkJA2VG3VsM8Yhoj1BsJiRBwx5QSyjyBMgSeakyv2RHsmxTIXvp8KMk0aJLYs9Q9E+uumdayH69Pj8DQ2CgvT1jA1EA2sZewCLuQVPU7eN+4MuWPlU90CFF5A0hLf/9OYxbCOghTf+E50MXCao9U0NfEDoyEFmqUABLEciCnbi241bTqLgWR7p3m1HbMTDBDV8EiGZp/8tGh/Zz0wokrcIloIk9883W7AlhfjUohYDLhlJdyEDgrs+AzNQJqo+uW0ckTG9VoN6rUq1FeqUK3XAL9DZoMmOnEO6bTKkHHSoSG5zfXHrRVDAky9F7Jo4GQ1r6YJRxILokQo25PoE6UFJZuHaY0cBSMiwguzZBzZU0psK990bQbC8sO6a2RE5mvqSZw5YXeWaQXbN8vqoB/19pU1rURM1dooZE4LtWPVNX9n+GOP7V9/FOH+ZkDAstTazWiRHeP3aJEACKqioH3F7WgeLbfA+EbAp3Kb5YABMaeHO4gEh9V8uSduCossIfA1vMK4kzA4MfcSKgXeadR4RssVqLS3QVtbO1Q6OqBc4bLQ/HM8DTFcLtk/8jxfi+AEH5vRORZBlCsRjCxvOe5CKxNaeIb8IvG3KCexB4mGZo2oDwZTVI9XrQ1ZBpgoST5u4g1knln3NniukiDLhpKvNE8XHiz/VXf7hDEHsh94+5bIgrCushje+M73UAyCOQPepUtazLg9QEEFUYcZWu5KFSyjwwGAFHMQxB1kCXu9zwismM2bdadCKRIqzrdzOSuHZriWMalNykBehDyzBIm6pniHNIBAgofdFsJoHOOzpVgS3sXoeOzk9cVN8qVB+OZP3LS1lSoszM/D/PwcLMwvwMrSEoEFllTiMxcjOGsWNsvCMFRdSkgLBSfuOJpCnhN7hheXopgAn3PRsvjQU6CSIYo29Aj50yxR3l4QCppBFoQFufyt0AMREIFfsZ9U1bUXZmOet4qmoAfbmdt41k8aMCwnlNQInfSQXeA0M8NaJUDRiBn3coaw9OnPoJ0BPr+UfDVZDjh8xllaROLxXkhqpRKr49p0Nf2D0HYajGpPNmwTiyDJntNpe7RKwRK7c8SvO5co+8MN2KDhYIEdKb4lz2qAwEDY24s0PKlj4M4uj5oL80if5fYO6Onuhv7+PujtH4SOrk6qEeDRKJCZSYDpVw5kQOCcLBxkZ6yaqi36ntgE1iZwBcZwfLG6EFYLTwzAwaxwp7BgNetreLSNgTHuanwbYxJ0ZhbxXlGeJE5AZ1ik1JtgF4GhdAgQlMUAY+JqJrDRFk/Cs0yXPOVbTtZdmqO2INAx9uoEC5MwB8mYokjQxBgnrnW5BBXjjyoKEHx9RPy2HJToucQDqUFMLDEOl6EQCh96NAAGVhMR6wGViCbIzwb2yDyZ3QkwIKJZpu0etyLQdKqCI631INa4vktBU8b9u1mvEziYmJuHC+Uy1CrtxgwaH6y8mTKVQnJyLR7S/QurbmVMGXJuLYanRLhf/0N+iI01bUytzOtiBx8THBfbpg8YNWS82Jb5/QSosCfIBBrSIVsdFYvsE91yIIdTJ1ik3SLUQeUDXWSl+VnoXVqAsdEx6BsagLZ2PMfuYwGk8r/r3+kMBRYDpi3PSCzjzMcEoPmR+bZip8l+sVUNPX8AA8awJofft7JuWhxHPZvbX5lrevEBFiD4wYL8JANCts6YlMMM14cGCLG9FbpmPJcx4kvpw9La0DBY0A/8zFvXl4sBsxikkiKtSupFAg59xzaxCE3SxgUhijalNz1pX4y7RYDrjSfuCXwixP8uaCVtLPGI4jBEIeqqUO4BYY7+lcsSbMR6sejmrq34mFib54OiDweTJsio8BhieipUvVqF6elpOF5vwkx7T9K3XoRLbTyzQYENClxWCrQ161A6dhh2DA3A8OZx6OzqYmukFBNSgYnhQAXgaJDAz7DLk6wJotAFcCwWx0C1YL26N2JZ4Pgr+i0Dr8XvcBDzsf+itdakVLLUXmPhqvhfjAHJBGkhqhWiRW6ZtChVXBz4rhRPUimRcsUMuymw1PI6q6SoAQJZaVoCCGxJsCYhsyBJX63b3mH9goQLolmiuzOc0d5se452y6k4GN/Bfr0D/xkea/ISVX1fgug7bl5+GiO3qBB0RAtIHnAfzCRBS0qhIwCorazA2YmzcKytExbbui4rk9vofIMCGxRYHQVQN64eeRx2d3fCpu3bobuvl9wM4SctYDC0fMSC9bCtEESoSA2vuJgUOyKZmXJ9sh6bdTDYGANx1SorhRjjLNgRf5hOoWcO6vn/2VNqrurm9hgexByMPCPn1hOoxP9l14uSI0IU8y1bHySepcnuBqPAsqvbtNHgy5rWVallHyBIjqK/RQ35ExuXiIdyrGJ0ZIPCLHDTgjJxCVAyPgEfRwBRCXKZaQGl1FXkLGaXHPbdFBbMKG099BqmBYlxP7yZxWzH4MLHtfqveFs+/Ik/kwEQllfg7OnTcKyrDxYqHWkREqvjWhtvbVBggwKXhALIBZYP7Yfd3V2wecdO6O3vgxIFKyp3YpZZXY1S3vBM+KYd1sL92JEwqE+a4lshnWD1AIHy7YtFQfpDC4K4XbNuhGSBza2KwMe/8YInqraYSEtkGMRCO6WPvUYBAAAgAElEQVTEtwpB9Hiv0E5ZYiyvFVcCB5lZnxfRyaQ0WhdXvUmuc0zDfP871qEFgQslad+32y4iDW2gmRKsbDh3AYu06WICXASqEmW03IHCTx4OBAjqOY4ezTIs+eNO2BDUqzx0I+DVv3F3MEjgT5oLwsACBRDIceDNOOH/CujFD7ush3RO5AMEG9yEAYrLyzBx+gwc7+yDhbaOFpmZr3eEWkhmY/SwQO0Me2PREYnd7nJDHJtPF43KKzqbjeeeRhRIs1av3RRZSVh5/Luwq7sDNu/cCb0DA1AqV0Q6RwNEE5URgwFp/qMzFkgwi3Q2FlqKUVAlKq3VgLia8cH7DdoCBwn+rUz1qamP4VgFs9C9DJyOqedny4/wwC1vtvMSF7aKw8i6fEvAjGeINniIfrPGDS4wZqcuAKHZhPevNxcDBynKZU06+DAQfLipAveD06KdYE0ISBG6gXFIuxYEGAjgENGTDw5Y4Luo1+zjqwV/CAL4SLhN6NCCZDHw6MwuNc+a583DcXBgYZRu0gRgZbEhd7cEQwq2oiDOri1XYeLUaTjW2QsLBVwMFTM3bLFWKnMNAfo0oI1qPJShKs62VBI2YbirHTorJZheXoGlWggQ+IDheeM6dVkAogm9HW3Q316GlWYTzi9Uc553QW08F/7bL8W0Otbd0VaCwU5u9ezCCmXxXAkfVmw4mK1uYliuhHFdzjHg+dzU10Ug9cJyHZZrNWiDJtTsXluLtUMtlc9Hg2Kl1qLNONUYIOyHXT1tsGXXLujpH4RSqc0+nHQtONO9FsIywpgaxSmgfNZ1eiEJePk/Ww/EmPFtiqKfeeK5AOQaZDdaL02TAwyzFDvuXwQzaeiovBvQQAHuprZH6HSJpTtK/Qd5L0ZxbM+PK3OMG60DxGKNjCOXhukfB4XZefj5vXWV5ji+Gd7kAYSU42/SFRNCNSjoIhaE8EjFjhkupIhOWjSjmLYCDng8xiIQ2YvJ8YrgCu/TM63o7E2VacCbSs+KzV1ZHxlbyGCSQY1pDAiFgys0xDKXxWJteQXOnEILQj5AwNafvXkQdvS1wenFGtw3MQvLNc5J3jnYBTeN9EJHuQxfOzkDpxZXUqdUghq8avdm2NbbBf9wdAKemEWhzlHGbEdqwjXDPXDtUA88PDkHR2eWUimEusKzxwfhWZsG4NRyDf7nY6dAmzbTBoGA4nlbBmGwnSNZagAw1yzBQ2em4cwCjr11Zr5zoBNesm0E6qUSfGr/MVgBo8FdTkmIXrsywM0jfTDe3wnfPDkF55fjLqfLPMxL2n071ODHbtoF7fUm3HNympj5zSPdcODCMuw/d4HsgKv5YFYW1w5pQmepAd+3fQS62yvwlaOTMMto90n54G5defyRVIAgncZiEFj8Uvi9/fi7n/9yP/O/JBBR125w7/EV08zd+FyHoEB/JwAgygkDN0mUX9r6BAL52YWLI8CiT9K3DVw3cRExgCCBjcwhfUXPWhzoimmV2iouCLpRlNNqLaenGyg5m41Yr+l73VkQCCBQqeX0j43k1OZyRNdinjGvhsGK+HV6DQEiu0V0YTmDPOtBGHeQl6ngWQ+CuIEY8NHuBIc604GBtOFnKoSBiP6RzeM6YSyGAITq0gq7GLp6YaGSHaSIG/5Nz9gO1/V1wEyjCX+8/wicXGhCe6kJL90+BC/cNkIi8VOPnYX7zs+lDgl17Dfu2wJ7Brvh4wdOwncvrMDW7jZ691y1AUu1OvzkM3bAdf3t8I/HJ+GfTs1ANQVDIUD4/qtG4KVbh+DIYh3+6KEjhQDCWHsJ3nD9Ntjc1c4Z6CZve7rWgL88dBYev7CYA9vC6ZXguqEuuOvqTQQQ/p9vPQ4r4DS4vPV5Mn/vLtfhp27eDeMdFfjkI8fhO7MIh9b3BwHC//Wca6DcaMIXDp+B68cG4LaBXnhkdgE+/uhJWFoFuOsqN2G0s0KWo5NLddja3QE/vm8zDHSU4ZOPTcJDU3Mt7qnia3QxAIE5iatYKr0adcmAZeZXcgwlDsH9HV6Ogy02ODjQuhni85HrmzXfy5QhKbdtiZXAsQrjajAAgVzfAR8RgS/Zb9ZGa2MuXJVVNpK4BqwCSgQsQd3UsiBXi5JvFSow1aC4A4qaN+2su1LLb3wnX/csKEkvcmh11gCAF84EeAT6tI4hkPZoiVQKJJLcgodIjAH3la6le5cueY+Jy0FtCmut8NsjzSHY1c4q4ev+DBL8A2dfDUr28nZyLdsqCfRDtuVBD4cKTukvjAVhZXkZzp6agOMUpNiZei4Fj/+7W/fAzs4ymf7/6uhZuPf0PGzqaofXXj0Ge/o6iBn8zfEp0sr4I1E7ztKCwdV3XzMOVw/2wCcOnIJHLizAv71lD2nzn3viDDx8fgFu6uuA23eMwVdOnocDF5ZsGRlO9MR5u3oRL71qGF66dRCOLtbgDx86TACBKGzqULBG5+tEox0leNN122jsn3nkCMzV6vDKvdtha08XfGd2CT723ePQKLVxQShLZsmk5pmFu2rf9ywer716E90K9977DkG9iQDBaBSGGqxhuvVvGIuXo5THdpiZqOvH3QL59wSgTSDN5tFWasLzR/tg10g//P3RCTi53KDgXdGSSc/iMO9wByvni/sNmakD4VZPMu8664T/XLi1XD6631ZyC1oLoRx8tZrBcbXCiNv0x8JrxrymAg34lefsxkg2+PyRc1BdWYGX7NkK952YgvvOzUIVtb4SEJ30SfPH4o/12v4O+LFrt8JcvQ7/7cHDRN9X7h6H0a4O+PSBYzDdrATllf0z7PYTdmrSt1NPpP+DBghbd+2G7j6MQUhwpJQ0ZuZFWT53vd/TMiHQjRJ+UAOnQncZ8+D2jOCk+0eK8bWsAEbONjDOXrmGWlI+8eZGvIZZXY+u3dSxq9V5NxnLSeSU0ErqDAe0XhggQ3JACkqpIMd1BxDeZAACu6pYkiaCB4OCJQQOVDCf3hpSvyCsviVoT6oienUOvJsY40WYwqPlWQQyAILNjjRsX9pJzS4w7gTL8q2rQRhD0rPmgJMvKOgvS7t060PsHGKbwujs7wFAONrVB0sFAMIvPmcvDBuZjyb9D377MOwb7oXXX7MFOsy6f2ViFr504jwMdXZArdGEiYUVaCuXYaSrAh2VMpyeXyKAsGewB/7i4Ek4X23A3ddug962Mvz9qSn4xsQc9LRVoLetCdPLdag1SzDYzW016nUY7OyAaqMO5+ZXYLFRh5ddNQIv2zIIxxar8AcPHScyDXe3QX9nJ9QbDZherMLcCuJ7x+wRILzlum0w0tUOf7z/BByZX4TXX7MVbhzuhcfmVuCj+49Db1cnDHS2Q63RgLnlGnR1tJN14/zSCrGewc52GOpqI//+zFINxro64LV7xgkgvOf+Q9BW6YDh7k4SvjOLK1CrN2C0twu6KmWYW0EtvgRtlTLMLFdhtlqH7jLApt4uaCuXYGZpBTrauNjNzPIKLFQb0FEGGO3thO62MizVGjC5sAyLjSa0lQBGujpgoKONztLUcg2mFlccfCwBjHe3Q1cZYGKpDivfE2Bb+nphpVYj03p/ewWW6nU4t7ACK3V3AHrbKzS/lQbA2YUlEqw97RXo72oneHZmbhHacV27O2i9qs0mTC6u0NxwDbb0dpPgmVyswkq9ASM9ndBZKcNirUauKaQfCrH5pUUY7emChVoDzs4vkb+eT0gTetsqsKmnE8rlEswtr1BZYdxLZ+eXobu9DD0d7TCztARDXV3QXinB7ArOvUptjPa0QUdbBeaXV2Cgs4PoOou0WapSddP/+JzdVFL8c0fOw4mFRehrB5ivAkwuYqRGE4a6OmC4C7U/jJWpwcxyDTrLZRjr6yCaX1hcgY7ODro+enalCs8Y6IQf3rUJ5usN+Phjp+DsMsBAO0B7uQQnF6pkBUM6jXW301qu1LGvZViscUQ9rj1+lutVGOpsR+wC5xerMF+t5aoCFiB0twEBhP44QAhN/Y5f+H7+mJAWjpQGJDg8O1kdk4RrStVCEawaILjvstERjzEOJrg/55AW/EvXVovbQECYqcsgLUkMgu49rJrAaopO8jTWBSXf0GIgHJ5uIVYN4tg/gDEI995TEAJe/GPZavLFt5/ZwtD4ZnjzO38Hbnr+i4xubJixArHJYD6/9oGITelIyizLxqTtYK56xmcEILhSQ8hzzcU9ARAJB8+oLitsiHsVAMN4J5mGGAcHrsQxg4oQWadvbPZrqaJH0XkU8yGzbqd8YZoIAUA4YgBCmhaK37eX6vAfnnsNlGt1EgZd7W3w54+egJvHBuDm4T6oNhrE0B+8sAAPnJ2BF1+1Cc4sVeGzB07CcFcHvHzHKIz1dMKHvv04/Pi12+HqwW74xIGTcN3WTfCs/g6qqzVVa8AXHj8Ju4cG4JqhXvjKqUlYXKnBy3dvhmq9AbVajYRJtdGE/edn4MsnJuF5W0cJIBxfrMEfffco3DDcA7dvGYH+Dhawp+aX4d4Tk3B8vmr3pgCETV0d8M3zF0gw3jDUC0MdbXDvqWk4OLMAd2wfg00ITJpNmF5Ygr7OLnh0ag7+5thZ2N3XCS/aNgpberGsbQkOTC3Ao5Mz8G8IIAD83gOPwx07t8D1g31wcn4J/unYGXjmlmG4cagfutrLBFpQilbaKuRGOXR+Gl6+exyuGewnQTc1twhd7Z2w3GzAPccn4dT8ItyxZRCuGxkgAVmtN+HR743xS0cmYFdvJ7xs5yYS1Pj5zuQ8fOnwaagZM3l7GeBH9m6Gzb2d8LnHTsHs/ALcfes1sLyCArcEg10dsFhrwH2nz8PXMa4Er9sFgD39nTQm3G2f3H8Y5upleNamfnj+1hE4vbAMf3foJNy5cxz2DvRAX3uF1uTIzCJ89cwUnJlZgLtv3kOg7q8OnYGJpRV49TVbYXdvFzw8PQcnp+dof3S0t8Hs/DxsGeiFb5+9AH9//BxUGxy7MdRRgju3jcAzRvrJMju9uAyVSoX+9+n9R+DqoT64besInJubh819vdDZViZg9OWTU3BgegFetWuMnrmwsARjfV3QXirBBP5+/BwcmVmGX3nOHkqF+9yRczDe1w23DvfCI9NL8HeHz8A1Iz3w/PFB2NzXRcFu3zw1BQ9PTsEdV6Hlq5fcmZNzC9DX3Q0zK1W478w03DY2ANcP4vMlOLJQha+ePg/P3DRA+/AvHj1Oa/388SHa1x2VEizX6nBkdhHuPTYJs40m/O/7roLhtjIsrKzQeJF2j08v0h4/v5wdwOADhD3Q098PEKmD4OxMBoR5/n3Hl4pq8cJSuBkBdgbeKYko6e0Y6BiK9GhchEqrjJvGsi0NAmLK5gywdu/ui7DuW+Na9BXTZLKbBQ9mwin2Xy71rICBnWyEsa6vuxgUQECh6bQ1qZoVXJgkwYRKLY9ZDxJ31CuAgDSXoBPtYsjCBjbgL9OK5cABgwS+/ZEwY5DKE0dNBiCYuxd802F6x2xJUfURohMpbj1IuBVSAMK5U2fgSFc/LLR1KtNxcmZ95Qb8h+fsJUZ9eqkK+wZ74cxyFYY72mFqfhGWAODagW54bG4ZHpy4AK/es5mCFf/bQ8dhvLsD7tqzCa7q64R3f/0A/Pi+HXD1YBd8/MAp0jv+9dXj0FNpg/vPnCcB/bJdmymw7ovHzsHCSg1et3czYDzko1MXYHmlCrduHqXAwr89MQXdlQq8dNsgnFisweeeOAmvu2Y7tDUb8HdPnICBjnb4V3u2wwNnZ+GLx87DCh1eAAEIOC4MSSSR1AR4+Pws3HvyHLxizzbY29cJT0zNwJHpWbh1K5qK2+G+cxfgs4fOwNtv2QPbOtth/9nz8PiFeZhplqEKFbhrzziUS014ZGYJbhrqhcn5RfjisQkS6jhnFEgPT5yH9koZbt48QgFUnz98jgLZXrl9BBaqNfju2fMw2N0N1w31w0K9Dl84PAHDPZ3w/VuH4dDUDHzj1CQ8a/Mo7B0dJIB29QCClTH4+vFTcHhmEabrFTi8iNRhoInC6C3XbYadfd3w4f0nYHpuFn7hudfDUqMJ3zoxAY1aDV60ZzucXFyBzzxxFo7PcYBpf7kJr945DLeOD8G3phbgnqNn4Uf3bYftXe3w0f1PwJ7REbhz8yBMLyzDwxNTcPXoIGzr64KHpubhH46chp+6ZQ80ag34s0dPwbGlGtx9/Ta4fqAL/mVyFg6fn4Ef3r0Zetvb4OD5GZhcXIL9F5bg4FwN0O2CGv6Ltw/BS7cO01juO3EGRnq64ZqRAUpd/q8PHoLrRwfg+3eMwXytCV87dgq2D/TCNaODcHalBh988BC8du9WuHmkH84ursCDp87AnuEhuHq4Hw7MLsNnDp6Gn3vmTrIgfP7wWbh2uBduH+2F+6eX4R+Pn4Mf2jMOe3o74eFzs/DEzAU4sVCHmzcPw+2bBmB+qUprtHWwH3YNdJPF5gtPnIFtXW3w/TvHYbnegH944jScrNbhrqu3kqUEgetNYwNw+/gQWTkePnUWrhkdgs0D3fDQ9BL8z0Mn4W037oTxznb4zplJODx1AV6ydye0t1XgkwdPwXenlzOtCAwQ9lOaI1oQevsHMgrVhW6h8N6AhuduKBIbwDxO110wApnYneN5XLI5AAkx60LwXTQhyAh90eZDjsUxCXx5HF2xYQACD8e5CyRQUVwBBI+Dceu2PXBg9qrMkH7LcJG49MgS/N7PvHkdXdZkAMLNL+DbHC1ASO5F61IItW8tOkkg01W8/rKjdqYDSjRAoPY8F4P/rhTfIKGfKqeDWggG+WHxDf6YjR+5vkWQrtXaCVQ4X3lWqg49ZcABWfAvwnKATbVloCQXk9GA5aUlOHd6AtDFMF/pNL7pOOzZ3A7w87ftgePzS3DvsbPwA7s2w2h3B5ns/uXEJNShAi/cNgzHF5bh/olp+MHdm+DUYg1+/6FjsKW7E+7aMwLb+7rhP33zIPzkNTtgDwGEM/DdCwvwM7fuguH2MnzmiXMUg/CjV4/CLQgQjp+HhaVleN21W+Hk3CJ8+JHjsNAAeMt1O2DvYCd88+wszFQb8OKtg3B8qQr/cnwCfvTa7cSEUPPHZcbIilNLdfjQo8dhbsUHCGNd7fD3h07A8ZklmK7V4VyzDca72+DtN++CWrUG//3hwzBZLcFzBjrgR67bAd8+NwP/eOws/NxtV8OJ2QX41BOTcHaZ/bfXDnXDa/dsolgK/JxfXIK/PHQKHp2rweuu3w7PHuyGb35P0/z80fNQb1bhHTdfA5u62yhI7qaxQbi2twsemLwAn3p8ArqaNfg/n3sd+S7/9sgE7BvugxtH+gCdG3hrHdoKENR86/wCHDh3Hl677ypCsqdqTfj8wVNwbBafZKDe2YYAYRx29XbBh/afgunZOfiF510LBydn4VNHp2BhZQl+5fZ9UF2pEf0PXFi0G+CGoW74kd1jlEr6lSMn4IW7tsOj5+fhk4dOwTuetRf6AOCLR87Cv5ydhwFYhl967vUwX2vAZw4eg9dddxXUa3X4swOn4OhiA958/VbYRwBhDp44Pws/vHsTdLa3wW9/9bswX0Z3hEk5LZWgs1mHH94zCs/ZNARfPT0Nf3n0LGz6nqXmx6/bBtv6e+CDDyBAGISX7BiFz373EHxzDmB7D8bCjMPmnk743fsPwSt3bYJ9w/3wiUePwHdmmrCtqwlvuWEnVNrK8N8eOAJvv2WXAQiTsG+4B5432gP3TS3BoQsL8Oqdo6QU/NbX98NCuRM6oQH/7sadFHj4z2em4YtHzsFYuQ7veM4+cqn8xWNnoaPcgDfs2wpztQa8/4HD0NnRDm+/fhsBhE88dhK+f8c4bO1uh//+wEF4YqUCzxzpgR/aNQbltjb4f+8/AHffuAf629rhI/uPwNGlKrxm+wi8YOsIAYT7p9IzeYh1BAChu78/WknRnewskMAZDRQ/oE3mGYJPAIK0b6P9g+BHiTfwE6/ThCrfAUGfQAO37NukDzquHOddTVWDX/5JYykBnSfqwgh7sfimCXrtjME39dAEICRkm1hEVIGodWdBkDRHS5y0q5wlUCuIobF7waQKhYJcUKQElHgxCPZe9DTzeyD49caT4BUbGqSOkTkgDiCkm/f1vMWiYTdbCv63LgzqMnb7oj1yhYIScbPawM5S0iwZblwBCFgoac5YENKw07V9HfC2G7bDoZlF+MtDp+EHdm+Gm4a6YK7agC8cnYTuShles2sMziyuwDcmpuAVOzfDbL0Bf/DwUdjc0wU/vGuM/OS/+Y2D8BP7ECB0w58fOA2PXliEn75lJ4x2lOGvj0/BtyYukLUBLQh/c2ySNLbX7dtC5uFPPzEB83WAH71mM1zVVYGvTczCXL0JL0GAsFiFfzk2Aa+9djucW1iCLx8+A+i97W9vg8laAw4uVKGOgWIAMNIO8Jbrt3MMwqMn4OAMamjMNLd2leGtN+4gAfvxx09RSudzR7rgFVeNw4OTM/CPRyfgp2/bSzUc/ueRKTi2UCUwsquvC163Z5ToMLW8DINdXfDVM9PwTycn4fuvGoc7xvvg4ak5+NtjF6BZqsObn7EDBtvK8D8On4HrhvvhhsFu2D+zCP/j8CT0Vprw1megxaEOf3PkLOwd6oVbR/vh/tPn4TsTM9DVXoL2MloKGrDURPdINzx3E2vwx5dW4I++cxQWm5jZX/IAwof3n4IpAxAeOTcDnz0yBfP1JfiPz7sOqitV+OwT5+DRC2gL4k8HoKDeBM/eNEh/L9bqtPbfnV6An71lN4x1VuCe0xfgGxPzMNrBYz6/XIXPHzwJr79+B1SgDl84MgmPzS7B3fu2wVXd7XDv2Vk4fmEBfmj3GJQQIHztAKyU3OVCCI4Rdr5m1wg8b3wIHp5eoEDC8c42Eqibutvhgw88Ac8wFoT/deIcfO3sIlzV1w7/esco7bHfve8QvGrPOFw30g9/e/QsPHC+Ctt6S/D6vZthpQnwoe8cgX97C8YgNOFzh88agNAH900twiPnZ+F/2zVG2vt/fegITNdKUK7XyQKC7pxvnZ+HLx07D+MdAHdff5UBCBMUa/CGazeTZeYj+49BFcrwln1sQfjEgePwou1jsKO/Gz558CQcWmjCTSNd8PLtw4BZp//924/BG2/cA31t7fCh/UfJGvZqkxn06YMn4VtTRSwIj8Cu7wEQjkHIAgghODDatA0WtBdre9I23+2gGbpc8ORnR1i9nf6BWQbuk+VqEL4Vu0FB4guyYhJsIKTUcjAAyGr+5h9aryI3hRTe1eMkJMsvSNCqx6WDGyD5cUdj5vnr0IJAhZLueBFr50LpAPllByWyBhHesaDEtW1WpwAi0ncuhqQA15YDaUs2FQ1P7QoboKLrGNgUyph5nzEkWy+cz19Ab6qhwgzEpT3yxSjpn1jf/tM2qNNO0gcIsXgJDRDQgpAVyPKckT6465pN8Oj0HHz68QlyJ7z+2i1wdHYJPn7wNGzv64IfvXYLnFtagX84NgEvvWocxro74ZEL89BTKcPO/i44NrsMf7T/OAkLtCAgQNh/YRl+7OpNcOtYL0wsN+Dzh07D7ZsG4aZRBAjnYHa5Cj967VZC+ieXq1BvAOzsbof5Wp2e3dTfSzEIR5dq8PmDx+CHd2+DbQPd8MjULDGg8d5e+OrJc/Ctc/MgMXij7QBvun4bBRZ+5JGTcHCWAUKjVIaBSgNes2OETMKT1TqcW6zC9r5OGKqU4f5zM/CZQyfh9Vdvg2eM9sOpxSqcW6pSDYZTs/PkYkAB99n9h+Flu7fCpr4e+PrEBThw5jy8/hk7oautBCfmq1QsZUdXO8XUfOHwWViuVuGua7ZSvjQCHTS9b+msUODe546chXZowqt3jVMK5SPn52G4B4PuKvCp/Yfg+67aSlaL7lIT9g72wsmlKnzoIQYIyFC7KiV4s3UxnIILs3Pw88+7Bh45N0sBevP1ZfgVCxDOUi0At28bsLurBG+9aQ90lEvw8OQsCeuZWgNeMNYLr9i9mdw2pxaXAeM5+itl+MaZabjnxCTcde122DfYBaeWqjCJLqn+bmr304+dobOCwKPR3gb/99cOwLICCLR9S014zkg3zRkDWw/PLVOA35audqiUmgQQrh/th5fu2ATzAHD8wjwFIm7qaoPHphbgY4/hGm2Bm0b7YabehOOzizDW3QEjHRWybv3N8Un4P27ba7MYMAPleaN98K2pJfj7w6fhVbs2wY3DfXBiuQYTC8twcHoOBtpK8PId47DSaMDJhRXo62yDLR0VmFquwl88NgGLtSq87YadFGyL7pL7JqbgB3eMUrDuHz50BK4b6oUXbh+F5VIJTs4tE9Dpq5TgKycn4V8mLsBbb9wF/ZU2+PAjR+H4YgNevX0Q7tg2Ap9tBSD0tMHWnWlBipYxBHpveHsiQ+U84R3yKi+Py16vbGohBLUMRCy4gFRuLR+E+NkCvmVBWRy0QubVSGDhjP3EaiCYQdDbNHIJok9h5AQQLKG45kI0Lk0BhLJxe6CL4cEv/68Mnr+2P2Xx9rXtKdIaBikKQLDbUJunrD/exSKwicf4+1WbLvY0uQVDy7kAjkyAEBG8FiAEBZp4T7BXiz1ldIOUSjoKdgpVJEQ/l5/m6BwS3sQSAYsOP2VZDwiresRgIKWhk5jI9JdBieWE26FpXQxYKGm+0pUJEG4Z7obnDnfDsfkl+PLEPLRDHf71zk1wfGEJvnp2DjZ3tsMPbB+E2VoD7j09DZu/Zz5/1tgwjPR2QbPehNNzC/C1iWl4fLEBP7B1kH7/x9MX4OhiHfZ2leAl28egt7OdgrJG2tthd38HfOPcPEXKv3bfFriwtAyHp2Zgy+AgLFar8I1T5+Hh2WV4xsgAPGugA85Wy/DF4xOwo7sdnj3aB7uHB2G5VoUnLszBN8/Nw+mqSbkqAQyVG/DybUMw3N4Of3NqBo5T1D8DBNRrtncAfN+mQdg12EsR6qcvzFAg3BNzK/APE9MwjoWWxkgP43sAACAASURBVPph7/AABfrtn5yD/dNzcOf4IAWHfRZ90r2dcPtoP7RVKvDt6QWoNGrwrLFB6OvqhMPTU9BewUyNDvj/zs3B47OLcNtgOzxrfAR6OjpganYW9o6PUGDmZ4+cg4NTs3BDXyc8Z3wYBru7YHpxCb5zfgbun5qB28eG4abRAehuq1AsyNcmZ2D/DM6HNbTOcglesXUAxrva4G9PzMDc4hLctXcMjs8uwz9PLlBWA1pkMBbh3rNzcGxBR8034brBDrh733ZYrqK//gx8e3qJ4gS6Sg145mAX3DjcD0MYOFqrU5Gh+2cWYXKlCVd1lSi9cjteP1ypwNzSEjx4dhoemF6mdNI7x3qg3tYGn3zsNFRV1T/ewSXoKTfgmQOdcNuWYQpMPDE1BV1t7dDT1gF/dfQM3LJpkADC146ehLH+QejpaINjM3PwtYkLcHIF4Cev3kQWhO+cPgNDvf3QWWmDIxdm4asT0zC5AnDX1Zuh0qjDV87Nwrbebrihtw0eW6zDP52agi2dZXj2cDfsHR0m69B937NqPTQ1C7cO9cAtY0N0z8Ghc1Mw3t8DSyt1uGdiDiZXVuD5w13w7K2byO319VPnKPC1u70Ef3XsAlShATf0d8Itm4agt70DZpeXYf/UDDx4fgFqUIZXXTUEPZUK/PXJKTi33IDbR7opq+beMxcoNiNL2bBBij1oQdiVkuYovEFzjhSLqNGw5Y0igjtM9ObAQAYI9aYkH8dEEaYEcqYDr7z5CL8yN0Oy3hlUZAwVUJOtm54Cie+bGyUNANAjwpgUobO1DkhFeJMX4T1v/rDZG6ocBMdAsNJIORVmbJLh976fXmcxCOhiuAELJcmiqRRG9xX/i3NQufaBtvaj20CEPZW6DOpvEMGNEHdVsdKDCmLWA73A7HdSgpYEPWeVo58MA86CPejv8BKPgoMYaWZ+UI7d634rGhjEAFXYTuxY0Z0PNHYpEpWEJfEsC3vsYXl5Ec6ZuxjyLAhtpTpFkyPqx9RD7Bfd7Xi4a7RumNLFQ8KIdqRIexkLKSG8KUGtUaJULzws+B1mLeDf+D7OBTVUpOMS1hOhmuo16ufmoV74sWu3wLG5RfjYI8dJ20RrQrXBsAnHhGln2C+m5OHI8G9sj79rkuVAM1h8BseK/5UxePuCsjYAOktAQYzInjGJENvBuZIrx/SB7+F8MSwQ3yFmbfgu/Y1+TtxPDRwT/40Bl8z/sE02w+4Z6oS+9g54YnIaNvd0wBuu30mR7hiTcGBumYaH42krNYguy03eqWic7yg1aK+iWbtaD5O/StBRZsCLNMN/dZUbJJRwHEgXGleEFlhG6vX7ttAaPD67AH+y/yQsqyJCuG64xqb+C2VA1M3ewNXB+eM6kEbaBFgya4aYvb2EhXRwvZMFbLQo6zIFKWVPYV+4/i/dOgAvvmoMPvrwYTi0WIMKlfluwjLVOSjBT1w9RgDhzw8chcdnce+WqBw3rjeeeQROOHu9njhG+p3WF/ckKwlVs3dxKJ24x0tNWGmUKNYHV76Ga9GsQKmE6aoYrAew3OQUVNkPAuqR1vgezoH2plEb7H40NML6FThmHJ/KPo2xAvqu+tgjsKsXgxR35gCE1CbsD9Yk73E/3qdpQMUHCBKkaEzxOn6BAtT9VpCnUDlicybCEcrFSxQAjwdJyjPjxU4RBZCqODr9UzWHWQben/aw4IjryLfUNQAaGKF1gGPjnC6uK0DGAAwOQgCC/d2AoN9blwDhDldJUYRTtGa1oMFgrbCIDAoaG0gSAAQCEMqlYAPuUqIO04sgcccEENR+xb+LAgTJiMDLQZjVpwCEaPEjecMAC0+7z3cn4Ns6gNPSWNmRssEBg6rq8iKcPXUGjuJlTTkuhny2InNy1hcuBCQWGR07nNUa7QBDzSbcNtxNBWiOzi3BR/Yfh/lmhYCjzN/YeTygWWys2U+RUAvCTC+2XVkepojsmQbctmUEXrN9ACqVMiyYwMqOZhMOXpiHTx04BXMETyT622eu0ia5V7PUzBYHj+0+Y6QHfmTXGJn3//Tbh+HAMoWuJVsyg7DbT+1DeZh2Ba1baIUrFF7j9YnVO//V1gF40VVj8LGHj8DDGJhCnIMvx0Hnyo/t3QT7RvrhY48chf2zCPGk9DXfSyGH1t7z5bav64vmEQBvwy9EJdCrstZr0MqS1R97BHYEAEE07qTqkN1yGkDAt2wdhGCNhR7MBZm+BChMnQFhj8KXEBiLsocAQe8KEcw29sDczCgAIfeak4z7G1izN3V6sF9zJTMKAgIpdJeDGr8FIwwQUCXUv1uwEiNpoky0syisuyDFmIuB9EyjpfNZc879kJdJPQMbdKLPpiE+agYShOcEoFEJIguUBRAYrHL8gBfTUMCCIH2T88EDCMqfZ8ajBbVjrayB8xA0wy0GDgggmBbswVTuEid8MhgBavAIEE6fgaMdvTZIsRWmdCme3dPbAXeO98JZNOWemIblVdbJvxRjXW0fXVCH78N7Lno7SLNFjRHjH75+6jycqcqNeKttfXXvoQZ983AX3DDUAxdqAF86evaKKR+NY7t1qJNM8PecmILjy6Kf81lCK8ud4z2wpbcLvnz6PJxY9K0qadXyVkepK+OtGt7F0NtJFoSuvn7iS/puGjb4F/tkAQQjOhmM5VQ9FIAgPE7zfN+lYNQrqboYqTwo2V3ujoc8kJM/W2e5kP7RioEWIH6XCi4Z9kwcOxBa4iaPBU8KICIAEdBpXQYp3m2CFFnqmWBDAw4kJ18XOgpNvvquBRKTamG4SUZvJBhDoWpWLqk1K5EsSoMOSoykA4oFgcrs8jHwdqIDBxKv4MoJe3MK2jZwQGCDbdMDOpmeRn5FoIV3N4UxZfOmjGh40ptnzWjCysoSWxA6eijNMePNYpxlzZ/isrhd0KAAPTRHKy/lmvd2uRpEnQa13g4ya7NPdrnehBXaQ7K/LvXomtCBbiV0sTRLVOfhSvq0QZ0uRFpqVshd4iwsfGY7S1wqCgFlXdV6LwSer6SJFhxL7dCjsBstCDvRxdAPTYqnMcXojOBNFWTRPtxZYwEnAtcIU3UJUt4QRQGzmrdYGSICVyxU2lIl/nwqRCTWAcNf00AKf59tUqO4I/OItFMul9mNYQIVpQW0brO12bUpgYzEdnPqHwgNRGF+33qrgyAAQXwtIsiRsNa4Z+oYhOAACSwCT4MDEojGrYD/TlgPCBi41rIyAQT9aRCB7qbQZFpCf67Vz1X7Srhqt0nMfBcCFQcOfBG8KnCg6KFQBuC4GSCkZ0O4/nAcDahWl+HcxCQcLbXBXFt2kGIeE9j4/UmgQMRU/yT08tRu0pr8HYCWCfnFcJ/a08waPUHIowdhd183jG+/Cjp7egxAcBZc5A6rBQjEY+l2Rg3Q3Y2N6WMzWQPKdiFxDGllmUNBK3cq2DVVxRHEmsGavD+KdIAQHCq6aMnExSnQQe4M5aqw8kkDBNVnHkAgGafuHFp3QYpv/E/vgZtMDAJuRty0KEgrqqSxLnQkyxmmNerARNafTNGkmOYfKYyUBhJCgBALQEzz29vvg1RGAjBmIgJT8lwKehvzs/mmMEurGDhIWFTixzU5tybU61WYmZ6FI8tVmGrrzL157cpmsWujG4YyOWZVieklMaAYo1fR565sWq+P0em9cGViNd6JbfUalE4chr3jozC0aRO0d3aRqRwrUorG2jpAEO5mZm4DFN0O1jcXxgWkZIC52graikD6TETz1t85gKDTGFFx5JgWAQKh4TQOEEzkO10KhQGOMhe+kpkueCOSMt2si0Gudw7GS4H0hsZp8xAXNgEEBUB+D+9iWFdpjgog0NayJnoX31oPuK0AAB1w1jCR8Pg+FUNSgWLClmhhA+uB6A9pQl6HEqZmJ4Rpj9okT2b8IOshAAcybw0cnFPAMVXB4byps81gmhWnlU9Om7NHrwhPR1Pa8uICnL0wC5O1GhWRqTekfoLzNtr5oKmSxuxsIraPHJkRsxrJK0Up4LZPupjVWyxsNxT2wvTD1izYC+ZUREjE3k17L3BecQCU6TMBPCmwioO+YqClNZGdNsPkSuA3EgJo64IG1WhDmOucIq69EL6ZBGEattjp/FI7PvjGZ6wzTxpLwYRFoKKrcSr1VzQFuQolXk2u4/bz9lPaGhTd37lrGDQk8ywvL8JoWwXGR0fIvVBpx9wWFwgr9EXAIJ/iaokGBOHp8nmEFZKabxKTMwBBZUHISOQdUSpDGtigSMx0kOB2E/zo+JvwpCDOwvanCCcW1uBiPyrHbCwRdMLMPQ0SQ6AVTDtmRY4soEP83sgOXosmrGuAIOBAC8yYKMRDihYG+k2iRZmaJP+jAlHiHD3hKgIryTpdzSbzjKlzEDoXYkLWswZEazYkxbueu4AWbf/y+8k/pszImBWwmYvTMNPbTLKZNABBqT21GiwtLsLC3DwsLSxAbXkZGg1M2ouzNYUPvI50H1nmNrsn1HWr9nhHL7eKSOnEV0yPMAkrTZAKYw1/zxMAIcixTE4Jdb0yWgzHqKkBDzEOTKs1oNihAJOjqfLCs+MwioujYk8aISCZI+pmuqQ52Gbe+pY1STmLdGhjjcwzOhDMh0Lu5di6ihDMmpMGXTHQptfOmuNdNjGtMmc9FKNcHgDWyjO3KBp3fOeyW9313cTU4PYKdHf3QG9vD3T39kJbRwegHx0/UojIcgwtJ1tyOch4DK+2NQs0QDAXKAWxV6KRE9XUgSDBHwE8dPOhBQA6AiyW6SAnWVUrjJDOsyboDaf5iK7FQHucU1Elyw0tDpKxFgMIdq2FNpKS6SnLvHy4t9ZfFoOxIIQCkkwsKTwe890luIgAgllc/C4EByyAYhkLroxyLM0rJuT5KEo6Xhj06AYr7yaFvhP9ds9rF4htIk+QZwMEfJtrLGByu8lbkBLK5u9ct0gSL3jfUHRzo06Fcpr1Ol2pnHJxPDOw0K2jq06a05QnaAUARvuJBI7mTKFQ4GJWnUrdfrgioaaZNxZ5PpyGl35trQB+Vo8GLi4VK18YhXqdHmMaSBLYmTefVn4XIR17xxcxzNCJJgEotBkGOj0u0mCsLw0AWhl37FnfzB3U0cgjasbvNq0uCNRz1lXJTxLY7I9OWwHIpY11Jsp8yyX+j8CBYYTNJtdkQKsftRoK5BKvQU4yghmAf4KsJcsWL3JuBE/uakAjZYhRO0eTvk031bnmRtiTIHV9Yk0IFNhi0qc+tEUib7/QmXOgRLskpGaCHg9+h1Vbkb4CWMhtQ2M3QYwirwxdncvDyRTbpirBjI+vuzoIGINw850vTpg/ielFhKcXha92FLkWwpqDqFnZNgzWTqmQ6DHHjIwFAQh5Ajas4xDVPBIZCz4woKO+inRGpgXyUDTySpsiajLva4yX/EzjmiUs18KhmZoxxsBV7GIUfpM1YJqrx3HwUMWFnMdHM+Sgo7lO10gCudj0WklpU3e6XJR8ifXJ1oEsycJdOguNSyPTfsw8dxLzzXxQIQBBNLaLmrB5ea3ox3tIuxh8/zPvNVYuNMMpOu8ic41ZR+Q9vR5F2pJnnDbN39AqmbUKLzCy75h/+DvHaPJK4OFj1gVDIN5o93YvUIUnf7glKg5sBXE2/dL2rqyNtia4btLatK4Ds+fZOOLGzPucysHR97hPEwAheEf2RbgmDCpMvEBoGzUWIVvx0PBpitkItAU5e41mw8vp0OxNLE8ow+Q8CKDQZ3d9AoQ7XqyvNnD+1MA876U0qgIvcotjggkSQNDL7l++ZA+u4ov8PL+UACi2LSxIm/xkWQ6KAQS/1VbAgQzNgiT6Qt+rkHgiMYEiQsR7SQGESGMJ0Be2Lwc7FWyZRkMG2fI41eCKvNsKOGDmQkVRW+H5qc9qu5kFUAUFt8wtj65pncdAXsioW3EJeScvKHdrBdka0o7ObDIwnbpyhXp8cKDHGO6z1Syopn0It3xauvLxsX4SQCPYAw0TVwJUidHsmkDrDnmYP9cIGGwBINC+p/JwfM12vtPTn2UWkEoDB3jCNECweygBbvkscnyCAwghPVw/2eOn5zRIIn8Rqzwe2GyW6V4F165/RYC+x4FhjKoJIZYMDKI0YkAqQWrKrTuA8OZ3vgduuvPFFtHrbSsmekpZNJ42EnvGrSA3M+rffAEWAgQU+knRHpZNljY0M3Q3M8rW8zc8mZFoBxoNxfs5RRNW0bD8aoD3FSDJYlay2Uz3/GgIEMyNhHKRiE+n2JgLsMdSnewHoWiMCRFaS4XWosIoMPpbc2QwlCJCPm30GsTFGFGr4IAY5RoLObv/qBZ7a8BDtNQ0Gnmm1oBIeQAhDeAV2CnRR0jLa216uV1Rc/a4Oa8/nXF3QG07omnauUmCu+7JBBprbTV3IOaBPJvMaq0XdboSGefq7mOJgYqss5LoOwAIvJeCsrTEW0x0AroijIat50lasFgiUghlgZQKNtWL4tPNWBgVTWUfk5gmeZ18A2MpbGwC7YugjrJyNeSlcmoXD++j5Mri9dCxPW0tHOIeMvMQuSM8p06gj/zD9MQGQBjfDG/GGIQ7X+zIrTICkEz4PwlIZGbMyJBTQ1mk2quKLWcVZBc7nkkrQggQEpYDU0+bR0NbwJevNGYWlEmtPxmc5J7T3DG0WkgfeSwG679H6tLHAEIMvBQJ8EuVtlgQJwK4YvEAckGVasvy7AwmIhS6GFDg8fqMWAVyH7UoscQ9kqiLYRnkxUlASjlr0TqRBtCKCLVU7S0F3JG8SLEOxDRbGcNagQMnF4wQia2vCgALvVZizrWlj5MxcDTktDmm0TQpfOP74GIAAvHDhr6wLelSaWnNIxlePL4YDzKuB4natx25wkBpb3pjMqZ66cFwQRXf4DJC3Dnwwz257gB/LIem74Qr870q/sfRiuMDXPXDGM3SL3Ji8nB9BsMLDaaKWTsYWphKG2ZMAhDIPUHKBn8EBOm9t64sCMMIEN71HrjxjnSAUKELatzhohxSAxDIm27SGt3+1Hmq/lIzc3AAIQxM1dolPslWg5yAQOsGMSVKPQGYfJf7kKhj9zArNzLPQkfLTZnqRgTb2gIEqSOZ3PYXLXSpYl4RgCCXo+QLS61ZCGMuwuSKPJM33zTztG77ybIWxMYv47XpvKt0Nei2YzSICak8d0VobWjVFRFTTIusYYLNBzTJml+CV5j7W0JgGLvSt1WAYIWGMPuE8uBmshqQEH+Hy2238snrm43vMR7oxyaIJp9Yn4gBIraGaQCBxaW2IDh+w79IMSbdKro+MGgaLQgYj1B3dyeYx9gGIuXIXTxEGrfPAgjarSSj4JsmtdFCoAs/QRYL4w6z55suaPPBj7efG02gQkn3rpPrngkgvPu9cOMLXpSwIJBlQIEDnc4om6lVgGB0fLuTYgBBYhDwvy5VMH7k9OLhRvQ1vdDIpi0XIUBIukJaOeRkvpdwRO+kcRChf8kzt5wnLAv1HwEIWDQkCRnSQZvfD0ZP++bENRmn6SSzLaOp50GYywEQRIAV0e4dg4pHRRQ1OcesEHrfXCxAWMvAxLy9qhl46ELi63md5UiUjxjgyROmeeAlCIhKDJt2fgEQqNUHP7B3bQCCB4ZIq+IbGcOzGvqHaFyhqf+iAYIT2Xw2k9xFgEI4ROeGYIAQgl7KT7DZwBIPwPP0sodUskSmJUERCK0HDbQomIucqE3jvjI6Il/yhO5zQ1qRcQgSYmcNn113AOEt73ov3HTHiwk5aaKQwDM1DejciNnGxBiJiCUt3wpFwxQjXJ6f93/IBwga9akDEhRGwiH47Vtsa9Avi2+X2RAGI9IM8/ic/d2mxAXR2EQ/TQvreFW5oEWEZaGR4IHDMKUksZNCqCgAunwAARmIu347nQCkKa0qpbIQUYOHTJCTpDembJGQ3nmCrAhICAFCDPhpwUsaWUSbJyYYzGqtrAdFKercCkl3TZglIgCBZXXxM5k2Fq+NYN8IIEgDY0nAwXwi/jzzGAEPfr/p7CUGShxAkPRwpgPFI3jpH8lZhyCh2Fr7wpnmIUIzsF74PNztLNevGautn8A8XMACj9jcFmnuVHDWW+d20Fcy61mmu1x8WuBzmC6q1wuvhSbHh4nHIhUSlWDJwjDTsQAwcmHTunMxvPU/vRduvPPFZHJBwlgzv6E3WQlMTq5sNm2ktwBBUuWiKmA8e0EEqj5wSQsCPeVhypDBiuDXXWvTmKQaip4fvs99FmdGfEdFtme6VNYYOJKqdFFWhHRwIMckOcci8ysOEGJmvTyBkSkYCwIE7ONSar8yp9UET+bRI7ZWMbqm0VoLIbqkrIBAvZQWGBEGVMu+4EcDhLUACR6NgjOnhXNU6HOOXerIfQDjhLfVqHVSXQs0YG4UuhbwimPlnjUmchmcnAni4ZHKh9nkd+decg9suzgORQN/JYMaCwYekXC2AE+XjHOtOiDFLToA4dwNYfKCvF0EJNAzwf02lG5pAQJPKwZCaalMYaQQnKyrQknoYsgDCPayi8BUJQZ9+S/lzKfwgbR7FtK0X8LhUe2YzRe6GzHvC4ywmyhyImIAgRmDxYy5bIxcL3lBa5TeqRnLGgIECjZMtxyIJrlagBAyxDShTgc6YkHJImBiTMTkTCVFCnAuHg54qUFCkfiI3M2T8kBRDdZ7jrlqy11earpRMl6LwlGPcS1THxnXB1ZMRgmOjgoUsCYf/K4ozsJFWzkFEqGYzVcQ0hYPffZJhSUdIEjgeCjMbH2F3F1ihHhkP2lFi8+8/sQBggh8BgkxoWAKFnm/Cy1FaJvsiAxsmRuXoG8DRZeD1xb3h3NKOxMJd02zSYWSvnPvPbkUXasHkrtrrVou0A4BhHe9l4IU0ywIhQACpSHFmVXqJUyey4HfFQaIIS6SJeFPA6uNiTsh7leXPSCjcUw16eKgA2QZRn4msZjCEgGJIa2xPoHHiJIAIdMfn7Z2VLSHTfGxT1abXEkx9l5otkxbx+JaYOrw1bgTfme5oKbAvsVHLrWgu9wAoVU3RoyMl5pmIi5bBwhOWFAbqyiTHJs/MfyUsxMCgaKgTYSh9OesB3KOjBBtASQ1AUumJ5hKugVB3L/mhFOPpgRxURcDcVVVT0Hmj8WFksWbeGwu8koyxRzvEAuCAARxm7DLC/k7DzqEHE4o5wMEpn2cb3M75jpxKQGNgE+5DWTN8wCC0ALbXHcuBgxSxBiE8OMVRTIxCPoZ/B01aRZWsVLKyZoHvojxBbacW6mUGAMIFH5n/EeurXTt32eqkcwFj1nkWxGkvUyAYHOZdSEWzmRIM2kWlInUQpr7vQjg8EFcAAwi8EEj6CLtJ1haVkpjusGpEDkutal8NSmYhSaigHGazz0GDloRYJcDULm5r8aCEACEtYxHSNmTOoYjttez4iH0uXYAIRl3VHQ/UOpuU4qsxa2PnD2Q3SL+HMsIiYGPNPMvuwt8IVw0NoTSHw0wIoBAsQfsssCvXVZbmaotGsSQmJbtLxpwqQsj+TNDl0wUKFLBJ1d5IfqYWI7EqmlA6rq67lmyGEKAgLno+hyFBJQCSZLFELuhkc3PSUjAyNP9P/3LmvklzIcfsgYsLwgxjGe4NABBrAc43mIAQebFglhyC/xgnaIswyB2osnqNfyE2yPs3hwKjZjlkSsPIOTyx9aIW+DpJzMOIav7GBhoBSAU0yILEGBVj1w5AEGGHztBeeA9EyAEpnkrlAMfeCvkczEISYAQggMRviFruNwAgTMUVACkaO/GkuPkAFdb5ODFJJWyAYJzSSTYWcbGpywHQ7BQvsWshQL81hVAGDJpjhogiDjTpnptHXPJhCWo2LrqsXoDsYqJDjBo/3UM1Ns0R3OfAy0aPcjthhYEu69SCw85C4IW9lrTyRM5WRYEx7ApLFbtVT7gVuimGPqLMA/OWojg/wgB40I+GFcKQAi/Xg04cMAvPrOLNdnTgb14r0cRsttnLgdASHMtFAUIl9rSEmHvrccgtHzvYkvLSA9HQYKk+Ka6IdJV9jAYkmMQzAZdBVBwvv/0PMVQ2Uj4zC/agmA0fkVecR3kU5znLsBLV0pE7d1ZqEtcryDRoA8W2D2UxaEjloSA7mQNMa5MG0gZyVSIzU34zfv+/Zvg219eJ3UQ0gBCmntB7lxAAnr3L4Q3BZJVIAcgGKuBZC2Ei8JFktikTvW4zKGNywSz/bwAxuST5RLnH8Q/F+Fi0KCEulV3MAS3NyaNp/lHjZ6g4MRoRYWo2yGudWYDBKJ4AsJn16zPGn0WsFgLYYtVz1IjYwuStZXHnkw3Q9o4soCA+HVTd/STVIK6FZq1GqQoAujJBn9pol72/2piPuRd0dzRwE/tNCuriSc1AjbflSDroS0L9pZJldEQXzcEMsgXY5w1WX+hOEAQ/s8uCrYmcGCzB6aaGJEQF8maFQlAQGaXZs1JxCMEQYoEWBRAYL4KxnohYzAu82BIGwBBEUSXHBLzS7SsckZqY9TFoE49xS5E9iTnwqviHFJGORHh7p6Rw54lkDTISG7HbHAgLhU7XFO8hE+wiYvIyGxYrQbujbPUiGZPxNoOA0a1HzBToEcAQtGxxxhrVpYDy/ZiqXnpAjDP5tOaKCvy9FoAmyL9XOwzl99y4MRWq0GKSa/3xVIjfuL1t7E6EiQ/ElkPxawIuu0wkj8/HNofb1Qgah6kz61cL6+aIMBSUFNOPWtSK0D1FRelrNC5jxjn/YueNJgyZgYDiNxNkHYHWcuOcVkYewMCAi1nUrMaMFMqZdkki8HRGG9zdA9rSyeqoRsuBrO82n1D1aZMcKDHII1W68tGk6oWiz8wdMdDF3Ur2Hsy1ALlAAS97mnCjJwLEYuGEy/ph14uovKwTAAQ0jI1YgxmVayOXAvJIjOedql0AAEIbtMbt0xG0KAB0wl0XhQgxOYVAwgOSGAFs4vzEVwON8PlsCK0umcuB12yxtgqqLoUAIGwvRp0WqEpX9CHbwWCnH6OGMvpK7fXWwUIIQGaMQAAIABJREFU3GzQLjUnio2+uhmRQKTaodyh01JqrHY08xhkFKSJp7hqigCEcE5sYZA7NxhMSGwauwbMb9r9FGSlEGDA0s4S8GgRRhIg2MrAkuGg94J4hiSzSgVU/+5PvwkeXI8uBvHxy5bQgRsCELSLgYUfm77dJ1IQyQQ8alEQEzqu2JHT5glIUONc05s/3J9fMZt/CdvVaTjJPrOtBnKkwwLO3BEbEXkg6P6IRQbEx+SzlGJ/YYpiWDMiBAd4JvASMq64p6wrJt0nRp+wd71GaabWIiPOAhWa0bnQzSKtJp+5HIIwseVXN/Tct2IxJLkvqRNykdiraFepz9n9Y45LK0BTAEIIMLMCBVcz4CyAEBtvkf5jz7BMvkiAoGu16MUteEW01EooMgdHS83XnLuBpqOARgiJHEDweSz9pS0RJhMDaY03P6ZerhQKcTqESVeDuA94eMwDNR4Sd3YDEynkFswg7kQsCvyuq7pI/26yBWHdAYSb73ixFUCUYYNo0+xnYYi4iLpAEB0gEpRa2w9KGKsUF3kujDngYERPNJm0Sfe9Awpu6yZweiI4MUyjjPSRwlV0KeWojuuZ99IvY5LmW2GOiSGZwETfguEXFJKDR1erBgAB2xN4kaevh79npI0X4sdpLgbNpBDUtHqDo3R+acsuK7aZbnAqRJciDz3VAYIwWIpBiJRZz6JB2rq2JtyKULk1F1XR/q0QNC60tQAIUKqrok0VN3AFEJxATG5QvNat6PjjAIF5fdgGVdmNq2um8DS3pi0P0r69MMlca03tRM6WWASEjqiPxdrzAYKMl3vzsvJywEgiq0HAiAEI6y5IEQFCmxHmopXZ2ANV4c4KcsosSB7AUJMWxi+mIl4o/8Vk/X225xAwUc8nusvKsbdvy+ZIiL4U4xg/H3UrUK0Ht7VNy8YhkyN6L+JK51jmghMebuNrYc4uBqFgOqMMrQRkMkyvJVOM4wZPpYEjfZhbNUHrLi5HCt+lcDM8HQCCiAZKm25h9zw9AIJzozYaUtSNzyTde9MqyEwDCMRU8f84MDoNBNSM20GUn2JujtAyqrMahL8YQZzRt3deFQgQSwTudYzTILusQQhULI/+thO04IHiPlOsyNKXBhUxUcEuDblk3Keb3EsUbllsc10VSpIshjSAgFtAQIE1tZcyrnMOTO0uNVGjOMcqHDgILRHiWEjeDcHnKjuyXrsWYqDE+e7iXIvqO3g/+ZemWHBADwWsj4BW8N1qAQJWZIRyIrUx1yIhsSHRpEg3MS2kZSbsW4wHkLbA471H88Z7MQL36exmWC29LwdNMmBoy7EmlwsgaIHlCTUq7FM8oDYE3uGFWXiqWwYIWiCmgQtjTYiBBAEIrQFP4WOicLDR2KUsyu/umyJWCu1mQNqQ5dOmhAqsZJcGAgSJK3DWBUeAqCvN3LmQeX5M9kTCEmEKOhlkYi8pFP6IaY7r0sUgFgQkRKPMHnZxKbj7FlBwpGHPZPxBEiA4wUngw/6pdrzKVtAWBBHKTjgnT4nfugEZUUuDD0jCjdSWEPCu3GgccKgWgijiPOGYuokRiNG59EN+irWHtRgkmjh5yLMPjoFgOQGNrQgvARxZcQ3o32tNz3QjuNQlhGlftqoBtkIw5f9s8TV6fAMgtEY1vZSxPSrAQbfKWm98E+QJydUABK84klE4EtUUleszHAO6GXVZ47wxJinoFB9WIjTG8QFCFm084GWsCTwWLqOvgRNdrkRxACyemdx0w5J7LMBaYjnI3QEGIKTFPcj7GszgMH6XYhD+Ibf5tXogIMlaNVusHbEg3PoCF4NA6TBGpmjrAaclxgUrfU3S3tec+RtnDdB+iXjZYAz4M+9EigKJ9YCFtD/H0GqQFOSxw+y+06NPXiLl1wV2Qjq2fMmSzsVWI5wPC8wwZTEECKTZ0Lnx2BwdJHb5BITKG4xqpxgYyWvQWYHsAY8FlLZYepnK0ZpP8kLj/DEVecIZICPs8nJHAUYm4GiSNfIiM1/lM3oL0jk2J7YArTSMJabttAe3zi1F4BefQxGs5wlUc+ayhGzWb6sBCGmz8fvBQ4SaN1JTCjUxNxPOTarOquio+Qi7SDzAoYIoqX3FGvnN0F0hLgR/0wgGwDeoVDO96ywYBBjUnRGaLrLNsi5xcs9zgSbn0qAbIhJkFiur0GxdZTHIZU233PESSxirjZX5mmfS9ElQpVsPtBFcFim0HoQCG31MvgDiVES2GgiwYGsFBSk20csWsRrYAkpBgGRCA9bgRuCAqrcg0dYR4eXtmhx3wVoJVRsoydLfDiHWfgI0mDQfR4L0LAs9NzrTawgQEmO1l+4kXUStVla8FFaDi3F9FBdPa/PklVD3INw7axlbsjqh5tM2dKkVAQYWhNpzwXs3rW6CA60haHdjwX4xan8tPukAAftXFVyNsOVz44IBL0ZD9es78FXK1HoAQGLKG46BL4LyMxJ0mxzEKK0yvWL7wGr5iqRFQIJkToh8CQFCaE3Cv9c1QPBSGw1KJsuBBK5F7apuE0oGBBcW8hFmmL2AZZo9e1JQ78BsB2spkMOc2HwRgJAUonHLRygcRUhlCvknGyDQjY3K8hKheR5IEDNbqwDBu/f9IlwMqfR7igGEi2XgFyMgW+37SgAIrFVKxc+LE4A6T71VWhR9Pg8gJF0LDtgWASypLggS0MrvXnTAWc9REKPMKHJ/g9QGCFzEmN0g69bqMIoDBGw5GfBIAEHcJXI3Ak1B25MYFKCLJA0gCIgIMVceSECAwMZvlnF1vMDJXP9MKqQZi7DCdQ0QyLWgMgckkp8RXnidc6TegdldIs9c4An7kOSSIUm5Ywui2dBmk3CtA98TzWunkakcAuO6iAIEvdXz2AA/K8b4XD94FkBIVHts9cjh7E11MGOj03I6zzqRFoCU9545ed5gC70TmZ5+zzEsw1gDgHAxAvRSWBBaXz3/DcdkLral7PevCHCgzn8RaGBPpeUDbCXUH478KXZ+V01hSSgIBp0Q7jG3wkW4GrTQW/XY9YtYVltugAzioBzQYReE/hBAuAi3Q9JbwXq4Z02yHQZuCp3+aDI72D3Bdg1pG/+LXFE+cRdDeOeku8RJZ9eJ8iRtORcC3ihpSkJTkHeQSm4Gsy4tCDff8RIKTMSFlQh+8cMzww+vc2aAIAearu4UJGELTzjEyKl6RsiX0CFhNoDRNkSocFaD2A4MMlG+LV5UCVoJL21y9zXkZSmEB5LAgZpP4sAWFfxFn8vgCGxZcYU+tMBdjdAu9E5oErwI6wGtWhDAlTaGpztAQFpczByLCo6nGkCg8ZL25gt/jrlxs05Ag4gFqogmn0ZH/S4pR6rzmKXSsyioRJ88l35sjHxBUREoVWwXsHg0FNN3ECS+96laN3NeHR19qwC3kQQI4QyUqDfc3QQ9WtnBAaB8XTQDBtT2xR2SGoNg3vctCaL2ssvHSKEEUcWaIHFSshc4DsLRbF1lMUgMws13voRrdQtAwMh5Ue4jwYm6/rVFdVbA8uLSJqCSyrxAlNdKEfm6IiJ3IouB/3W/SpwA4VG1oO4CJ3+VVw8QkmmNwf4pmKZYSBjnnHe5pCrMg8prOxTKYrrLZS9rGHOg9wKDHCmXGh9FKDwlyK5I4aSnggVBZr2eQEKRWJJ4YR0JTk7fsaFPWPZY7h6PPBAKxCyAoC1z7hzqaqXExVKHEYtXWCuA4M/Dt66y/cUBhxK0GeXD8VO51GntAAJFFyT6iRPHZCaogFZ9oZMEKaK8qZty/xY0RBtUVofIcmS5HBqGoejXcBb1IHRxXd3mSADh3e8FsiAYykhAogUIJLGNIGdfQ2JpWJTL9/7vHHAogYdykJTQV8LXBwjpx560fYYW9iEcZpNcFCGgyGYf0mdu2loB60CeEC/CyFYDEGKuBbdM6YzLArm8wMwiAw8xVQErhB9r7/4qIlCfDgBBZ2KsgsQpLHLttNLVjKkYQEh3HWSdoRjgXJ1gi91t0Brd8vrVYw2fRXM54XKbrmhq/66C4JnjsMWVxGqfdCfYWx+NtQupgIIxFtGfHF7kzgfSuIsDhDRghe4S56pggIC8UVIf80jljT+vLgLFQoZyC/tqcGC8soiuS4Bw0x0vodRGm62gTKMlxa1Dy4EwAx99KwOS+ScLPfnEwQGJe8+CkAcQwqwFbLc1gCBAIyGQbPlS/+KTTABQ0MqQt7HTAEJacSjPLGpJLG4Y0RTiWQwCENa6MJIMo1Vmr2mTBxKeSgAhlg1Bp6A1mZS3da6g35uZxZHSbhb09qEEPMaAplaUrduh9el7wjUH0ErSIJm583wKgfXMd2Vwep228DWhxl9ELlnKm1XqWGhvqWvnSc+rsLlcGWQ1QCD4YH4rBhKUG9kMlLX+1gGCJyFUG5yGaCwI7gacwKps3NJ6XUzQo+9SkF4cAVzqNVf9sfTETJVmE5A+Yp3F39YdQHjLu98LN935Eo6cJwFtdPPITY3M8BUAUOmuMWEg30UBQmA5EBuEWerU0CTrjmC7hD0/LkuiNQtCsigS+9Hcx0UE51kI8n7PO+z4u4nVTSllHbHeSEBPIryTTzu78DIkEZ0V39VTZJytPFOULnI4s+5nIAZH1c6eWp/YCjzV5tAKxTXAM/LQqQjEiVmr1VX5aFVNQJMuYBPun4SrYZUgoRWAUAQUxOjjgQMVbCeWVX4H9VS0KhRLR05bh+QYwx2WLO4kAAGXJFyztJLDrn+fBzv9ROIQXJo6cZkEsIq8L8/IZUqGO9XxhqWcmA2f1iwHfBAuQMIHMFaumawGiY7E+ZPaWTIBjHjd879/E6ybuxjQxfBmAxA4NdFdyKQtB04jDC9j4l/i4MAsJ1km9HtGgCuAwDc56qBDs4DqJIR98FKbd9IsFBkcTbZmsigSTkgjbzbL5Wc35D5RiL8WBQi8cdkgmPTN8ux8k6zhysEoKDX1SQYIadYPpit7HfXh1peCxYj2VLIe5C26zD/vuafC72mWEhQXeWuq58cQ3RdunqVMBbOx4KH/XxWJnMaYDqKzwIF177mBeOOIAQQK2KaCdDJmDtpcjQUhpFv0tiP1EGv3ogDhvRDMcYj/e881Q/tDCn1jgYr8KPr86XRnBkL6IEHzMvk3Uqlar7tYNQmERluFmGO4RztG+24UmQeXTlnDgp9KaUbPQNZYJDYAglgQIjbe2LXG+uDKfndaPtbZdoKcV0+KY7DQpe1hUxX9PWgtiSlxD/amiBYBAvVpNJioWE8AhBzhv0buBZy9b21R9EqNE1DFnjw6FNRGdJAi2z2flE8MRMoWa1BUO3dLVqwCvP7pABK0QH2qzyfPjVJkTWXjZQEELXDZ9Lt6cMBCzG681H2fBhCyBJ/N1ktxSfB9E65LLlNQ8MymjJRJkXN4qNKis7JimmMIDpiirQOEGJ108mERKwwPn7Pk8HlxEVTrXFiP0t5NwCLRkGspmY8/d3o/DSCEgJJeTdZaEHcYUawE8L5/h3cxrJNSy2kWBPYkJDdaqwAhKfDcxqQMB2M0SgcIutpiYL2gLbE6CwK+FbUcpBy8IibyIs8UkbytAwSmaX7/cXNgjKHkt1VkJslnwnY1QHCJslgoqjhKYZdD+njWMpVsdbNOf4s0STPXpzpAaAUAsAjg/8VudokBhLWmvcAK38oW7yUh2Ih3GRN2yl6NAgQB8BEhziWQi+/7LHrkCWIWu/w/rEsTWzs//yGrN8eX0/rFXvLGFPZAwl0Rsd6om3tpOOVRpBPyce+aaHqHWwsBgl5rDZL4WZVir9ZnAyCYLAa5WZEDFWMAIXIZ0//P3ncAVlF0bT83PYEAoST0XkMJVZAOUhSlWgBFem+Kir0hCAiICipNerchxU4v0hGk9xp6SS+3/u/M7OzO7t29uzcJvu/3w34vn5BsmZ09c84z5zznHL7KNAx/0RCoDZ5SWlPJQ2DPk6JDspwQAVD3IdACBMXgqQ2PAEIM5NofgGDFWJK38m5bnTWVZgQQfI1D26/B+MlaBaTdwihXWnlvf9/Qyj2z07RJbzz/y4aX9iPhbW5zxjb4+0ly5HzRe6AfyFI/Ru3KVn7Hd9UybyaL3AKrL8V5DvKYDTKVtF4LrvZ87dZVxohZIK/6IOI4KSjKIkDQhhjNjLHZ7/m4+K7Zd0Mjc4DA/BEat77JRxLDC/zvVM9KxpwDS6Ivacqo2MCJwQP6P15amgMGRQfpjYcjC8Ur8RAgfDQZNQhJEQL/QCdXSSZyCB9WdDKoQg2Cq1sLEKjrSAoueIcXhNxik9Q7scfhfQMIeqEDnXAHESLyLv54JYzWR4BX7QA10UfvuqwBBB2LdB9qIojjNcuWuB+9D/6XAcL/WojBym5a/T2ZByS72IaXVeZKnPxXj3Ng1fBbPU9swyz7S3VAgr8GWO89zIxyTgAEOW3SJMxgNhYVcJH6ThhfowmLeBlqZqyzAxBISWZRyoj9oNQD2RPFPApaIEPsE6vvY7BpNEx/tIFUgeYyQeTzgeUgkCyGGo1bqGK/tJyALklIrQq0nAN+DQcFXjtGqYQlZx+ombxKSIMrDNHgeishvfACH7fvOBy5lxXSlNmOl4Id3riFBzxMQoBmyot1uWRva6GUgHSelYcahBiEAVEDIf3b7N3N3oMtXu9qefw6vfv7CxDM3wg0TcnK7Fh5n5w/h7fNza6JzYGR+Uor1Lm9v99K7ppH14wUWaaGjLX51RogHoPOgTczvIUIEOSTeOxb02Zdz0CajdHbpW38Niw9MGscBDF1kW3AdLgI8m5Ox92vKc0sjpK47/XCQMo5+qtQPV9qyqkvgKJ9F2qYBYDgPadsw6nOelHCNVI+hffE+6yNIHFbqBubhcHIX0ldhAeOpJgdgCAjOJsNwQE2BEm+OrFIDyWVcLMjlGSmRlqF1pX8WSMjInoNfDHjrRRLYmItkvJEMyIZaJljz1tdyyPjZpT+l1/Jl4peXJzH1em5PqoyBdIObPw5LMKmOnRsiZexlQTbS+ma7PUoYDOypvKgzM0t+d4kLUmsFqenTLXjtmJ0AgOUcI5S6tvYwGrL+d5Pg6Ojhf7dx0k7KvMvZDIsoxiASur139b7Us1o5Dg8Xzn8CvE8klYGON0s/S+nDlLGnPzhMkFWl7xLFKqo6CXUSZBGmWF50TOlpwLD0u/E7CAeU9cF3jT9kdcQ9D+Fl1wrr1uh+ZHhvAlNtcxkxTufTLkru9YApjOUotKP/EpjB4dCVqZ3pjt3se2zAEt4GiTPaOGYyAa43ICTAgvjgk9aDoJWyQo8TrnKMAEqnz1oaY59P5pCQwx018/dNroeBG1hIvb1SOydlN/IGx6KPGGhqjbuMhqU1ri81DlBke+U+YISFq+uWhBidCzFL+uHWqy1LiixAAi3mt4AQr6KDsVsqekpQkHgefaIziuZ7erp74XbS/hAvLmyUOVhat6HYyWhk6RKhctVKs3flSiVpLQMZBAt7+Ow6qUgJCr+TrnDQhAWHIBASTEwwKWWBe8vZTwIs3PNvmrWJfD+XOlbygye6SUw5mPTW33a22Rt7ljKX7rThZRMh2LAzdj5JkMm480dGoSwYFL5RDFtNMVWDg9KJl3bhElLLhR2n3oyzDMr2HyYoC1uZCXXPGfpm68y9sJmcyxVuhcUhLChkVIAZJBkUaUqs8cnXbmQGV4Gl6T9omqMZuNVQIR4pho4GH9qWtAfyRmZSMyww5lNgMBBHyM7sqyKqUN74dDWjeYLJIfO4HOYQ7fz7zYki6Hv2Cmo0agFRdZWAQIzSKRZE0POBCBEUYAQbID3JZESBJBcpzXyWjPt6214UyP/3liwmbrkd7WK8+Y2qJ9Gx2txUfk0lFb4C7oEKu3D1cuPh0B0n00HL02CqAClFCKZNip9Y+8Pa7zUiVQkpDOAYLQDtAoOyNgVgOBBnvAQhAZZS4WkYqpSjd4zIfpnxNnkf/ftXs2q9D28ztcMEJlJczqRnOmUY83a883c+7L1lD4kCd3lCQlGeEgQaIBZOmg4k68tKtK8myANaos14iXHpFUTJ6lTDbDRG7cePjPqV6E3byotoBme8jtvEC2GFEWw4b9OU4MgmhFAVYtHLuHP72919rR9E6zxJgJo7YbkDAfupWfCRUYgDc3renmDYTAiT4Ac9qLXSvHwT4f0wsEHKc2RAoTGLVjTT2mu9DkImrKaQvdD0gIkKiIUeUIJOjdWqSoiow5A8EeIch4geO8lRcar3sLMCYBADZhZtUMOyPggxG2GL03LilCwg7N69H4m3kMTe6XfxKTpknYIRMEnpmUg3a0PEPwBB+K9CYHTX4DArzeK7voDSh+a9X9vBtIcLiRlOlRtfpWn83x4Zc2KaYWy8RfklgCEyNBgRAQRTac0k2OYQLiPdLEMrgXrTdeBVQvHAYgFgECIdAwEM1eZbNQsTLeV3hfabQRtnWzBI5Ntgq+6qrMRVVD3LbMKEIj1oQBB8iAYAgT5+xjZK0ZUlGVJylSbPKTngwUQ+pEQQ5MWqlxYb4CgTnHkHgRqtzygPcLyR4Qi8j4DBL4bzGZ0gX5z74XFV76AuU3i7jkBEMhYVJ0zDZSCQlz0JiExYpJmNaoZoDJAoJVshQkkXiCVrjAACHTOLE68L4Bg9R5605AdgGDkSXjoIbBghf4Lp6Q7XEg0BAjeLcXlGJQwVjH7gACE3KHByGURIMiGQajFr5Cy6WrwmdvvD0GRrAnOklcALVvT5nhE9BFYqyFibTeuTGRWgYIWg1gB4xzIc46AvD4tpbySEENOAQQJQ0kIg3/PKUMfKA9CYQyQOAiyONAFoRVLBSBQcSS/lnai5FSCyQtQgEByA/RF2puQ5h1i4LfWu0NOggN9gMCfbgUgsHO01dCyqkcteRHEEINeYIp8D1XuD/etsXGKyo24VPmhBQhkPWgzPPQY5r7elQKE9Ayk64QYLAMEb7wGBhBCER7IQgfmylM9Sj0vwkOAkFWpvb/XmQEEf59O9FKekCBEBJPtDPcgeG+kVTJFF6ZUslz8hZkXThocCRMoREgNgBdegAMEGu6QrCpfg9ZCDXw9K+4OX4Wr/AEI2d0EiSDBDCBo1yeN/QtER/NxGwMEPS8R1eGim0AjVIyoKOl6yRv14AEEykForhgMXZ+VABB47F7atVIOgg0oEB6GyFCRF6zMtl7+Oyss5H8AnzPt/Y+Tqb++JdecoQchZwEC24/wP/pzYtmwsq2+9LKCUuI/09zeCkBgC0nRkGZjIQAkMS0TGW7GJPY+lC9PVZpFMSBKL294CMKyCBD0vAgPAYK/pvbfOf/+AQTWW4WvOa14yrhUSmFmOwGtd46TZiWYahTGlp/DztM1cMJSFbtc8q2WNS+CqGslGoXXZ/JeZOYGlxcayoFvTgmDxqDeMAQopROwSpNmWwJjgCDueTVJl/In1o5OBRAkgXnAOAiFMUAACFTx01bHyhJS8wbEnD4m9ETVk/TG/GGhiAzT9yDoAYRAFsfw++CeczNRMbvx/xpA4OM1qs9gZpRV70t2OBT9SrMk7ng0E2MGEJhrjatTs1llv+cAId2lpJT5utLquxEPAsmWySpAIGPw2qVkwRNhbRYenpWdGfhXAILkHRDHKesVvma04EDUjhxE6KNglZdLBbA1MkfDftKDyXm88FpWdBz3RqrnXtkF05UsIHIjoysWr8rOdxSvZWnP3odR+E/SJjIwcPkBEBIy7HAIfA42v1LvBoMNiTb1UUryoPqMHwQgPEC9GASAwF3YAkBghl2McQlERsGDEGwDy2IIZQQg7aE1AERJ6/V1sCKIVnebZvfyDyAw4VIO7kEQsxiyspw1y9hHoyKrRpRzDMT4q0/jrOEgqEIMQlU0f0CCrxCD3lisvhsBMwQgZDXEwJ+tp5DM3J9m8vTw9zk7A/cPILAQg2goeQUCVu1PnZnki5Qo83lMAYLYjEwiIhrle0kAwcpsioEF7flKiEHR33o6QQ8gZDesII9FiXjQHxkBBF9bRTEEwKfZmJnBKPLJGU6ZpKhK/+YAg4dytOnRYvED7jii8vAQICioUgYIPnovcBQqedgYQAihWQxagKCn/Fm/B0FwOa1BkHKusEVlnlPggCoH3z1+VAqEI9n/JkAg8+FX7QcpfmpJ0Ui1zIWmGGxHo8PAtnI/fwGCqKyN7k8UGdnU5Q1jACG7h9Gu5SFQyO7M5sz12QUIvBYBTyskRojop4hgRXhomFJUKjoyb/o21FsnGX3eb0HiJ3G59rh5cXkPUlKSkJiYhKLFisu35rqQyDgpDWX1oJkPBpVCaQBXyo7iIMAqQMgqKVE77ozUVNy4cROlypSWMhiMi0DpgQTWLlrf62Do+fDYaHrs3Qw7TXlUVJjUUpsOks2xd5iaAznlG7jdLDTCde/DEIPoQdCEAahJl+aOhSNY3JymOfoBEMTwglYAaDMOjVBw4fnvAgTh5YXWUkpPd6vL2vg8MqdWuuJZ2nGLyk+D5PkIfKUv2nR2RZaeKwWejEiKvmbJrFcDYaITgEBCDDlxGO1cHvIScmJ2s3ePnAII3EgT0xRJSYpKEE8FELglsW6f2QtKmySqHcR0YHm3ygAE3w7t27sbO3fvxbBhw2QCZEAAy7n3riVrZQ6FAXAeE30Hc2KPr5i+v14EAkYUg8tI0SePH8fyld/iww/fp+mqvCiV3lvpevWyBBCAZLsT99LtcKraN3sXWxIBgja8oOhI/l1ZaGYyqYOw5YEplKTmILCIguR+4+hTJ8QgGwqprCcplJTfIkCgRlAQXivKmAvPfx8gyGIj49DskiXFxWIVIHClZ6g+9FIc9XgIBATo/Jzu1g0UJaMj+FY+WfEg8Hcxio8yuclZgPDQi2DFAP13zslxgOAhdRCCEBESxDoCctKb1ZoikteUhbJ9owjy2+vxV3Hh7Bk0bNoE9+7ew6mTJ1CxUgVs3bgZwUHBeKJjB68iYrxkcnZ28GzdZg8ciFrOin5LS03DiaPHUKZsGUSqj2ikAAAgAElEQVQVLICd27chKl8+JCcm4MThY+g9cACcNtrc3Kd/RLses+RBICGGTAfupjvgMgAIuu/kozeD6HmZPKQ3Dm7Z8K8tCjX8+9ceyx4UFa0hKQpWgYmYmoPARU/MPgiS0gryh1kLMRDugZzrapEg9qAABDK/lJ/hY4ET4dbtGsk9Btzoc3cpT3/UAgHp99QFq9EnnLjoS8348iZkByAwGeOuSLUiJtkyOelB4POtXXZWQOu/vFQfuMdlFyAoO0DW/IzINC2URHlSLMTIeqYI6cE+ZllbP0SbnqPlA/z5yy9YuXAxFqxYgr8P/oOZX32FEaNGYurHn6BM2bJ4c+wYyZAHwGNzyyRFa2mNvsXBG9x7r2TzjADlGWaExcsXL2HqpEno3acP4urWxoAXXkStWjUREGDDji3bsWzV93CRervCMIzAghokkCwofcaBr/GTAlsMIEhNl1TTZdx8SteLwNxM0h08zIPw4FRSVACCdwYDb2akFi6GB5Sf+QsQAmxq82ZFGT9QAEGu9Kpvnk0BgiTKKpefgadAznQQwYPI2hbCFP6EHLILEMT1LAKRnPYgyF4LlQrwv77CA2e9/4UXzimAIH9jAhDCghER4iM+pa02KnISNABbL/uH6UWygN34c81aLJ47H0tX/YADBw5g1ufT8MGEj3Fo7x7s2r0f700YLyQ3S1pQ8mb4w0NQrRVh7Xt/IrU+yUmAcPXCeUwZNx69BvZHzUfqou8z3dCoeVNUqVIJc2d+g0UrlsMREOhVY9cKSKBhFx2PjW+A4MRdEmJQ7Xz4t/FuCy2CSa/VTztdKscDVkmRAYS4xi3YDPhIcZQXmgAQiDzTiJ7NA6seBL30Rg4SOBDISQ4Cr+PvvUu24ojjnRX5Tla9T/A3TmdFr5pWVZTCOuK9xDQpugx0wgbqGKHBSESFKIAD+dtreAlGXoScAghaTsL9AghWvsv/6jlGa+Z/dbxWx5XjAIFzEEgvBnMPPBsmB8s6a4H+3jB7wY3169Zh4exvsHT1jziwbx9mfzEd708cj0N792L37r14f8JEw6L0WQEIdIg+Ix9ZBwh0Kny0Tb924QKmjPsYPQf0Ra369dDn6efQqEULVIqtjLkz52DhiuVw26wDBPI8xcucRYCQ4YCT4y7BI6mugeAtjV6FkwSAQEDJA1coaeDYT2k3R4m2Ls+YXhoiNwhKVT7SqIlJZnYAAgcEIlbjPxMdPP5yEHimgp4h168HxZz73kWB/n2AQKdV88Laf8vcQwkcb9m4CYULx6By1aos1ifUQciJWBbZNalIqoY4w7iSohUDIQIDMf73ECB4z96Nq9dw/MQJ1H/kEUTkzuUHB97Kl1DOIWvTirfPv7san52TAIFnwFCSolWAoPKkSWxsup6krAVNrRGRB0wCZIf37cNH77yLF/v3xZnTp7B35y5MnfE1Du7dg72798kAQUsU5nUQsjKPVjKzpJ2ghaJDygjMQgz3blzHFxMmoVjJ4ihQOBrfzl+Eth3bo2JsLObNmI35K1fATdPidQyyQZhZHYb2LjJl5kG4RwCCsCukJFDalVGaAZ0aGHx0apDAejJw3fvAeRAGjiPNmprpyqNYB4HG8ajR4RNM+G0sXGDzuC1kMbDUxqyVR1KGpwUJfMetNDxhaJcsFrfLhTdHv4G27R5Hq1aPyY5kDhjMMgZIhoL0hrrzw+7jm7Dk70JnpaaIICv3JXNMxyrwBdimhsF63ofh00mfokK5suj0TBeZXc0ADzk5QNVZjXVytLqVIs4l9XveTw4CDW5JQxMVgRUOArls1sxZOHHyJD6fOkXq1CfVzZeUlKjMtVkzDEgJPiyPd0lwt8uJUydPoViJEsgdGcmUDulg59XilqW3aQ8+k6TuG22cY3lLy9W7csXhg4ewds1aDBjcH4Wio2mrZBpWp67uAOJOkvJKFCY9z/UP8DD+iTbKqzBA2DuR+Hnu3JF4sVdPuXkSeysCGVhFVOUemp0qPYPNuD8rhQKEDKdaZv1cTKLskFkg7Z5zaQACBb18jRiVUJZIv9SYyx9Pek95XQhSZQOcGRn47aefcPL0GZQsVhwpqano8kI3XDp/FufOXUSHp59mc0LXIecdMaZ9dkiK4hTp67esexKMxkXWw5EDB7Bp42aUKlEMd27eQpWq1RBdrBi2bd6CfoMHSgDBWN/ogU8RJLh1SiLrgwQbkjLtIADBA+K1kICBlMptBSCQjyCuCfYcmpyPBxAgTGYeBK9D06DJBCCQLAbCEjaug8AUrXWTpB6Qx+lAZnq6vDMOCwtDWno6AgMDERERAU9gAFISEumHDQkOQVh4GDIy0nE7Ph6krXVwaBg8TiecbjddlBHh4QgMDvGpchT7qT/q+wUQkhITcP7sabjdbpw7dxZ1a9dC/JXLSEhIRbNWjyFX7tw4ceQoDh74G0WLF8GjDRvh5u3bOHP4KIqWKo5ipUri/JmzsGdk4OzZc2jStCmKlCgJT4AAz+S+DdLuyET56gEEvbxqhiGz50HQAgQORqx4EMg3vnf7NhIS7qF0ubJwOpxwOp0ULIaGhyE4JATpaekIDQtHUFAQXHYH7A4HQiPC4cjMRGZGOgICAxAeEYGAwECkpKSA9Cgl9wgJDqaydvzYMXwx9TMMHjoUlWKrICQsHPbMTCpvhJiVO1du+u0yMjIoiHM4nQgNDaUGITQ8nM40uW9oaDCCgkMMW2IbfRIOKRx2O/75+wDSkpNR59EG2LZtOyqUKY1DR46gWmwsKlSuhCNHjlGEWLV6NXicLmzcsBG169RGcHAQ9uzeg+T0NDRv0gx5o/Ji3759KFmiOPbs2o0CBQqgTr16SMtIwagBQ1GwcGG82LcfYmNjYbdnYsdff4EYhtp166JQoULYsX0HBSY3b9xEubJlcOPmbTR/rAWCgoKxd88eROSKRLVqVU29EHxHnfMAgTVrIhwEXhtB8hcqKssfgGDwcWSPADUqbthsjPPA1gqn37opw55rFa0XISshBr3h/FsAgT+bQ0Ae1iUkQQpPbTzFMIsAgRSP0oOXug2cCEAg3RwJQGCZEwRcKFmszPRzGTBaY/rdJG2YMvQBy2IYOE4fIGhDDFoPAplY+jPKqvegQJg3QFB2mQxs+L9XUj7fP3v3YPoXX6BYsWKIv3CRGs0r127A5Xah98B+qBhbBe+98x4FEZERERg0ZDB27tqFVSu+Ra+BA3Dnzl0c2rMXAcEhSE5ORqtWLfFEx44IDiaKW8rh9bMw0P0ACGRBnTlxAh+//z6qVKuGjOQkHDl0CHUeqY979xLh+k8/gs+++gK/r/sZJ44dw/nTZ1CoSAye7NQRn42fiMbNmqFN+3Z4Z/QbKFW6NPJGRWHv7j2Y9MXnKFW+gjKhEkBgzgUfsE1ytfoCdvR3qsJX2QUI+p0jrQCEK5cu4qN330NQYAAGDx+KpQsWITgsDEmJyShZoih69u2Lzz7/Aq1bPoYWrVvhx+++x41bN9GxfXusXLYM169dp3P0+JNP4LG2bdC/b18UL1Ic9xISac+RDz76EHt378bXn32GkuUq4PH2T6JenXpYtHAhLl+5gtSUJPR4/nlERkVhxpdfISqqAGyhwahWJRbXr9/AoKGDEBwcjIGDhuKll19Crdq1/dwXK16EjPR0zJ05E7u3b8ekzz/FwJ69UKZcOZQsVQa7d+7CtK+/xJ17CVi8cAFGvToKO//aid9+/hUfjPsIX0+bjpCQIOSKCMe5cxfwymujMXfuXFy9fAU169ShMtj68baoXf8RvDF0MCLy5EPn7t1Rt3ZtDBw4GA3q1aXA5vatmxg34WOMGDKMGsGqcTXxfPeuGDFsJF574zWUq1QJ77/zPt56522UKFPG1IuQIwBBYziY7pHqIBAPgqZGgfwBhAZ0qt2pmDZswDvgIEAOwxJvFdmMCJsi8Z7a8KAoBP8LACGnvBjie/nKDtX3ICihBaPwlrcXQQEIbmqZPCCFqkTvFffaGHq09FIeqQeCAIQHLItBBAhqUpjaJBgBBCIAgTZvgCDei4MNLUCw4nLkoziydzfmz5qD0e++hcVzvkH81XiMnTgRyxctRqkK5fF4h/bYtXUrjh87jj1btuGFfn1Qr1FDvDpgMDr36IG7d+7glx9/xBezZmLPjh3444/1eHvsWBQoWFACCOxJzCXPUqPMjvsBEEiI4czxE5j4wfuYv2Ipjh46hDlffolR77wDV6YdE8dNwLQ5M7Bl40acPX0GibdvIykpCR9O/Bgfjn4D5SpXQcv2T+KzieMxePgIVK9eHc8+2RG9Bg3B4507yrsZ74adBp4ECwBB3kFIc5Z9D4JkBDXfwApA8Lic+HzCBJw6cQKDRw7H7GlfYvgrryCmcAxeHjIUo958E9fj46lbfvyUSfh80hS079gB+/bux67tWzFwyGAqQ7v37sOseXPQr0dPPNWhPVo+1grDBw1Gj779UL5CWXz16RQMG/USSleojD9//Q0HD+zD4OHDcO7UGcye+TV69u2HBXO+wbBRo1CpShVcv3YNM6Z/jYHDB+HC2fP4dd0vmPDZZxS8ZOUgMhpos2Hbxg1YOGsmxk7+BMP69MGI10bjscefwFsvjULT1q3wSMNH8eWnU9CgQQMsXLgYQ4cNo4GNaZMm4dEmTShvYcuGTej4zLM4/PffqFo1Fi/07YdfVq3C+Qvn0WfIELz38kiUqVAZw0a/hj9/+w1TJ07Er+t/R2JSCj5+7wMMe2UExn/4ERo3aYoXBwygYHHJ3G9w/sIF1K5bD9u2bMW4SZNgC/LtsRPnwV8PAq+cqJ1LrodkgEC8nKSyIQmt8BoI2rABXdiCduIAQf6ZxEOQFAbVF1K4QFvHg2YdSaFAxZPAmz3pf/mcSHVkoV+9+5uHGHgINity6euafw0g2B24l8YKJbFvo1BH+DfwVd9Bt8PjQ4Dguz+CHgeBR0JNAYJUWlkUTSHKayhTIqA4unc3Vi5egjFTJmLGp1/g3p3beGfiOPywZDl1uUcVKojvly5B23btsGfLVtRu2AhPdOmMET37oNMLL1CAsPmXX/H1isXYuWkrTUH6aPIkRBcpSpUBQ/p8RZmDAypo94mDQADCJx98gHkrl+LwoUP4ZvpXeOndtxHqCcCYd9/FkJdHYtnChXim23Owp6fi19U/4/0JH+P9N99CRQkgfD5xIgaOYACh61Od0b1nT3R47lnfOzhtgSX+ZUiY1KQ4DF2D/wMAgXzDLyZMwImjRzB45AgsnTcPL7/1FoqXKIlunbtgwNCheLTho+j3Yk+0bd0KV+Kv4pU3RuPt19+EPS0RNWvVhcPpQEpaOka//TaG9OmD53v2Qos2bdCn2/No2qoVHm3SCF9/OgUvv/46ipUtg8Wz5iDA40bPwQMBpwv9e/TEsy90xy+r1+D9iRNQIKYwHJl2zJn+JWJiCuKXNevQ+Znn0L5rV1OXuy+FS7xN2zZuxMLZMzF20icY2qcfRr4+Gi0fb4u3X34F9Rs2xFNPd8HPP/6INT/8SMNrc5cuwY7NW/DdkiV4/sUe1MNE5qxgkSL4YtIkVKseh+f69MXvq3/CmZMn0Hf4cLz3yiiULl8WI0e/iS1/rsekcePw86b1SLyXiPHvfYCXXn8FH33wAVq0botnevSg7riEW9fxxisvI1dELjzxVAe0bt+BcSIsHpYAgrBc9QACdyWTRxJwSUmKVgACuUCHc0Mfx3YQ6rAE91hQ4KExwJQPxYyUeJkEgaXZYDtl5pG1wemjBbHF6ZO4Yf4BBDMyotmzGYnZow5lChfpqRBdOyDzo6R5ke4h6xfBQ2TkQSCllp1uOYjkFVLgIQsZRMn97XRGJIEDMowH24PgYwF7AwRlIZgBBLZA9fsv+BI6LUD4dslSfEgAwpTPkXD7Lt6c9DFWLV6K3LkjcPj4MaTevoP3xo/F11M/R/HSZdGp+/MY3qsvurzQnQKEjb/+ghkrlmH3pi1YMnchPpw0EdFFimiGIJCNTFbE/QIIp0+cwIQPPsCClUtx6OAhzJ7+NV599x2E/GdCPnznXQwYMhAzv5iGTs88jfV//IHwgCC8Ne4jjBszDlWqxKLtU49j8oSJGDxiBKrViMMzT3VC914votOzz5qtcd3KivwimiopZEbQnwvggZEmCdgKQFZKLeuqM4FtTD0ItFmTMYBTAMJhDBo5EkvmL8BLb76JUiVK4vnOXdBvyBC0fLw1Vq9YifmzvsGg4UPwZJcumDj2Yxw7ehDz5s9HemYGQsLCEBqeCwNe7I3uL/bAY23aom+3bjR9q/ljLTF90mQK1IqXLY+/Nm7Enr92YdgrI7F7+w58t3wF+gwehGULF+P9CeORPyaaKuxt6zdg9rTPcPfObaxdvwU2iY9g/lH0zyDmduumjVgwexY+/uQTDOnTFyNHv4aWjz+ON0e9ggaNGqLTM8/gRvwVfPLRxxg4fAgqVY/DxVOnMOnj8ShRsiTKlCmDM5fO4/3338ebr72OqtWr44U+vfHb6tU4c+Ik+g0fhjkzZuLvvw+g1eNPoGXTpujdqxcaPNKAGoJrly5i2swv8cqIUWjRujWe6fECtaJuezq+nPwJdv+1Ex9NmoJyVav79ZrpDicSM1w+CXsiB8YSQCAchCChoVwA61cg42BRrHRCCbxYkpZ7w9cFN/JSlFvmGBw58g+OHvoHHTp2QkTu3FJZZU5MJBLLHehM9+iFGMxi5trJtepB4B0O6VKmRpKFjRnrX4kcajnN3v/24PiRI9i4aTOGjxzh9a21DhmFE+Cr7ogCECgVlm9AOCfBBwfhrpTmyK5h8yqCCVJbgZg79u3YcOn7038oQsF+p+R4PgQIBsvYX4BAp1VA0+QDi82G/PEgkNucOXIEf/zyCwa/PBLfLVuJxMREDBg2GJt++x3h4WEoGFMQs6Z9jaCQEAQGBKBkmbIYMnwExo8Zg9aPt6Hn7921B6+PHYOj+w9g3Zq1GDJiBKIKFGDokkqI0tpYFS+Usy/UHob7BRBu37qFLRs2oMtzz+DmzRvYu3MPGjdvTtQuNq3fiC6dO2Ln9u3455/DeKTBI4i/fAU1atfGsWPHUSAqPyrEVsK2rdtQr0EDFC5cGCuXLEeNmnE0/VE+qAZhi0blivTFR9CTDT3vgs2GhLRMkHbPWWal6jzLKkBYvnAezp89j6e7dsUva9bihd59EF0khvIyOnXpjHoN68ORloEP3vsAY8Z8iLBcEUhLTsWYD8cg8d49SjQcMHQQatWqS3fGT7R7AnXr16fgrHbdOpSfsGLJUuzYvhPFSpfE8KGDsXj+Ipw9cxpulxt9+/ZGrqgorPphFQYMG4J8+QsiAC7YU1IwauhwlCpdEm+MGQuXHztqXfDk8eDihXM4sG8vWrdug59+XI2GjRqhXKUK+P3X31C8ZEnEVo2l33jTH+vxSMMGiIzMQ8lzVy9ewob1G5GSkorGzZtST9Mff/yG6OgYxNWuhdPHj+P2rdtUhpwOB1YsWYawiDC0e6odQoND8d2KlZTE2bZtG8QULYIff1iFMuXLolpcTfrRHWkp+HPtWpw9ewb9R4xEeGTeHAcIBuKoGHwhVMg9COFCLwaxOZnqXgY8A+Kt85B8fo+bkk1JiMfldCE9I50SXkNCQmVeVgYlvGZSPtShQwdxcP9+PNv9eUTkioDd7kRwSDDsmRmw2x3IFREBG20i5YE9007vR/RlYFAgJcvC5UZqWjpCwkIRbEKs5u9hnKGlBde0FZHSUtntgsPhoO9F9GhoRBgFDW67A+np6QgJCUFIOPkZy6wiRFzicSOk75OHD2PdunV4/d234XSSQJaHlpXOTM+A3elEeEQ4AgODaBMll8NOScEOh5NmAiEoEG6Hk5J9CQE9IChIyiRgmw7RdlDSoSYdXVRsPIvBqSly5OVtkLCDlgCpG2KQHvDAlVpWcRAMFJZMvJF2jFrjr+dBYLhLiWtnx4NAcYbLRf8EhARTQSIIkBAO4XbQT0eEmQic3eVCWEgIHE43gokgZ9phCyQ8dA88LhdsIaH0Pi6Xk2YxcLceBwhG0UG155AtsvsBELjXhPzXKXleGBOYPZCzginWpwaeLVQWIpFcajZm9MnPyB+jYlGKJuVvYy2jQaVMdQACeSYBCBkuWl2eSYK1qI1PI2IFIJAbuJx22NxuqmRcTv6dA+DMzKA/swWyhj3JSUnIkyevsl9wu6gSJM1ziDImHGynw04zZUhmg8tuBwICERgURBn8qSmpCAkNod4GIlsZaWkICwlDYGgwXG4P3PTZwcyjknAXf+/eQzkz4z+ZiELFi4GQqLJzcClkSYbSdxbyzflOljxDL52Tt0UjbG92cNiupGyy9ES+CxNGKzvavD8s+dWShYtw5dxZtGz9GOo3aqJqmWvlnS2FGHRupBt2F0IMKoCgB4a94wD0KU5HJuWUlCxVCvfu3EXpsmVQt0F9HDpwAKTUcHJKKlq2bIGipUrQvgQnT56ixjw4KAjRhQrg0L79NM3xzz/WIy4uDmHh4Ti4bz/NjiEz2PLxNlQeCR+EZJRcvXQF9Rs9ilKlSmHd2p+RJ28kMu0OPNqoEQrGFDadQqsAgbe6Zl/fg+tXrmD9nxtQqFB+ChDLVyiP2vXqYt/uvbh54waSk1PwaKOGKFuxPHb/tQtXrl5FeFgYihUtimCPB7+u+xkj33gNO3bsRLkKFRARFoaN6zfQecibLx/qN3wUdkcmfv/1d+SOiMCl8xfRvWcPBAYH4Y8//qTnp6am4ckOT7F1RW2Skh5PPRs8EVknZkFklfRi4M2a1E4hjXQYAAQ6F7pplcAU0ovhQSq1rM5i8G7xLIMBmq6rTDfNXpC0PlHc+cOCvdIcRQ+CPwCBP0X8uDJPiIcBtVZK9W9hnJLaIwtGR80JwFMgHuksv38LIGgfTXLVBZwljFdJmjK1vTplYvmNxF7n4rNV4QRqYQye4hMgCNnxOYAQrAIEKrNeCbemOtX0BP/uyc0qm7db165i+9atiImJRpNmzeGi82H65UzHlLUT/HuTrDxj/549iIqMROny5RiQ9/O4rwCBv75FgECk2J6agkF9+uL9j8YgLSkZM2bOwrQZXyM+/jIFhiePnaAePeJ5WrZwCWrWqY0KlSrhXkIC3CQddf9euAMDce/ePfQfMph6DkiRK+KF2PD774irVw8nThxH/shI1G7QAL+uXovYmtVwYP9BVChVFrE1q2P7tm3IV6AQWj/ZjoJYo8N3wSRjmSO+hOMHD+L7b79Hz14vIOE/QGjBgoUYO2k87ty6BafThTPHTuD0uQvo/FxnzJs5G52eeRb58uenm5Wku3fw27p1qBJXAzeu30KXbl0pN+f82bO0jsrWTZvp2P/6awd974aNG2HZgsUYMGIo1v74E6ILx1BP56bNm2la7DPdukkAQVnP+umHykwwgEDqIJBSy4EgtUZkXechPljvQy+Fkj5HE232uB/wLAY2dd4gge6yZYaOdBYpsywAhCiLAIFjOD2k70tl5oB98dlKWYnxqZWnnDMtx7K4+bk/HgSt+AbSWpU6ARl/akoY9Vqgr6LvNbAcejAACInpxIPA9idWs0LMbIg/AMHsXv/q78lOx+2G0+VCUDAp9cv7ARjtd+/P6HLqO1gZnV7bdivX8cB3VgCCr9nUhhi8mi+RwTG/te4w7anJGDl4CGYtnEe9lS8+9wK+mjMLe3ftwpo1a5ArNBSnz5zFmI/HYvOGjXhxYH+ER+SiBMV/9u/H/FmzcP3mLXR9vhs6P9cVd27dwdTJUxAWGoI7N65SbsvV+HhUrVQZjVq2xHdLlqJE2dJYNn8RAsNCgaAAODIcqN+gIe15YKNcCv3DdwE4NUBgpa4UqHr04EFs2bQJg4YNQWhQAF4e9hIGvTQUe/7ajYOHDyNfWARcbjeaPtYc8Rcvo1u/3kBAEH3PYwcP4otJk+G02dC+fXt07tYVqfcS8Pqo1xAdXRB3bt5Ev+FDsWPHDhTIlw9PdeqA6Z99gd4D+mP0sJeQN28eBISGIMPpQLnylTD6rTfkMBwx2CQbzgwgkDdJynRKAIF4HkRIEACX5vtSj4QWM+mkORKpcHtsmPqgNWvyroPgDRBYSQ9CGFF+R+yKvwCBxrx9aIn7DRC0j9YuJG8ikELYUcgu/w5A4N6XAKkSnl4BKtE96Ev50vfii0AukKSuXeB1vTYO68ODIPa7J/chZVWTHgIES/bw3zzp3wQIWX2v7NRBsAIQIoJZV0HdNGYJIIi9Tfh7ONOSMXzgIMyYPw+ZmRkY0n8QJn86GV98MR1vvvE6SHGz4cNGYvLnU+nu/5kXn6d8jszMTJw6fhx/rF2DvgMG4vXX3sCEqZOw5qd1iK1UAQ2aNsbq735AhtOONm3b4N3X3qAx+np16+DFvr0w+pXX8dqrr6JY2dJwuUjYLBgI9NFwilddNfwAamuo5loBJw4ewob1GzBo2CCQ4nSvvfQqOjzdCRfPnEO3ni8gOTEJc2bMRoenO2Lbpi3oN2I4gkJCaa2Bs0eOYOH8uXjznbexYO4CPNfrRcydPQdPPtYK1erWwqL5C1CnfgP63qNGjIIdbjz1ZDs81bEj3n5tNHr37YvK1ashw25HeGgY3LT6K/OUKMBAJCsy46/mFtiQYnfRZk0OEoZWWRwtQOAFnNhkcR2pG14goUs3MHVobxx6cEMMfOGoXfQUHkgeBG4oyX95iCHwP6llWg+CdgFSkGERINCn0xi6IuXcPpntufglVs5TkfN4TjT/r1LnjA5CT6HcDw6CuK6Z50bxaMjTIf3FYXfg0qWLKF++vHSZBgrTf0qhE4q+BFKi9G/5edoJk4vJ8FsbhRiElC/pVBK24ABBKdiYfXf6f8ODwEbNfI1mMpVVo/jfv058Mw/Onj5LWxIT7gV/e/0xanywwklW16H2viqAkOn0mQYqi6j0MEsAQduLQY9zICsb6Y4ewJGaTGti9B08CGfPnFduunkAACAASURBVKFz0/X57pg3Zy6qVKmMlKRE6pr/et4cbPpjA1JS01CseDGkpKVSHgHJYniqS0ecP3UGW7dvp2W67ckpKFqmNPbv2o2o6IKoVLEizh49hoKFCsIFNyrVqI6bV29gy8bNqFO/HpxuD2rVrYsoqXaLkdz440HQEveOHTyExYsWoVWbVrh48QJCgoLRpFlTyiMoVa4MUpKScOrYSfQb3B+rvv8JeQvkR76oKPonIigIGzduwNCXRuKvLdtxJzEBKcnJCHK5UbhkMezasRNNWzRHVL682LZhE0qVLQOHy4n6zZoi/uIlCjiqVKuK5LQ0PNWxPWUeMCIv0VtSWW+u06QSynoAIdnO2j2TZk0BgpKnZEtBSLSZL2qAwFMk2QXk/z/wAEHsvcCFT5lfNdGMkfsYcAi2QQUQ1AWX2J2sAATJnHlFZqm3QrJDzCjrLQ2Wr3Lq+AlkZtpRvRZhU3sfcqMplUlVN2NR+iCogZKXMrsPdRDUoEXD+5DenblvPbh76xY+nTwVEyZNYDiA5P2qYjHKaqARcZGLxo25WBxKO/NmGQ0GhC5CLCIAId1JErYCcoSgyGTIPM0xJ40t82h5cOz4cWSkZ6B6XJxsNP15TlaNpT/PUJ/L+y4o8iuacq0hFSOzxFX8xutv4cOPPkR4eAS9rdhtVQQM7DoFQsnSKmQPZLXBU5rDSV3FpHKoSqa1cWGq5ZmHzBcE1dZBkGvyG8U65QllAN2RkoIBPftg0EvDabnuuFq16H+vX4mnmRqVK1fEuXPnEVe7Di2zfeLYCZo5RTJWoqKikJiYhKLFi1NX/MmTJ1C0WFGcOXUKmQ4nKlWsQCt15suTB8cOH0bBAvmxj3A4CkXjqc6dcOHcOVy8dAkFCxZAuYqVKXnP12EFIIjGUQmjAiTE8OO339GS7hG5clEuhS0gAOdOn8G169dRoWIFJCUkokixoggJCsLffx+kGQqly5RB3ty5cePGTVrimxAub9y8iaIxMTh44AByReZCvrx5aZZZ3jx5sHfHX4iOica61WvRtsNTqFa7Ni6dPU+rkRaMLogqsVXphkYk8vKtkjYVUQQJlINACiWlO1jfEIlsyEKdaj+sEm2QQAAHmtIvJL+5PNUEXHz6IJMUdTs4ygtIBAiEQc8Uvz8AgacTmocZPBJfgCx8lowrL35JQYj3YKQcljO76c8/kJScig7PPC0XC+FlQ8l5tAmbdLGaViD+gksS83pQNSgl/opKKCc8COS+BDw5HHaaKkXmlYyX/Jww6sPDw2lTLK4XCZImzHxSS//Wtet4c/SbmLd0obS7lUyai8S7HTSVih9EaZE/aakpiMybj2VA0Lg4uRc7z6NJCzIkJoraSSR/SiuYLEYOEPwpjmNmELMLELTfTgbBHJkKCoTJBlUr+P33P5B0LxEdn+6MIDpXismXaz9IYTgZHFMZY4LGzmYeiH/DC0GeFEBzxUk6mZOOmRcCcxPQRrx/gcTvx8Zoc7uobJBdMZG7Xj16Y8acmYjIJeXs87LBJIsoKEhKmyFS60am3Y7gwCDK4s+Tl6RQgqa1hUpGzIgEa/StWRlcG0gdBC1A0NYf4PdgcWTvPi/sfKUcPOkVQ7s5+iiXrB0XBx4ZKSkYMXQ45sz/hhpMtmp5kyomJwwuBdAMK5bWreSJcPBE83rk/H1yDRs3uds/B/Zj2eLFtEJl0cIx6NbjeZSvXJkS9eT1b7JIqAbwKWQSoBNi8RwgkHcllVs3b9qMQUMH09CBGhCq5ZdpGzH3hQ3OC4BSyyx9I48HJ46fwDdfz4TdYUeRmGgMHDYU+WNidL1FItTlzyLzq30Klw0GEOwUIJBmTbRtGV0LSiqnIjfy39i4BQVBPVnSRkyecg9A0xwf1BCDVYBAK1wLLGwzDwK5r8i59bWrIJ0h1//+O4Lhwf6Dh1G7Vk00btGMGs81P66iu7n2T7RDjTp1aJ7tpXPn8cvPP9PdZZ8+vbDrr51ISk7Gkx07Ydas2WjXoQNNT1v902qa+tanXx9EFciPhDt3sGjJUqrYqlasiEZNmyBvZCQWL12COwmJ6PhkO1SuEkvT2og+0SNJ5gRA2LZlMxbMmUcXFXHHdenYEU8/9wzefuNt2hfAFhKEgQP6oUXLFrQC36zZcxGWOwKt27TG4y2aY+z7H2LKtM8w+5t5aNvuCeSPyoeBA4YgODiQ9qsY9fpoGjd89dVXaGOi1KRErPjxe1y7ehVTJn+KuwmJSEtKwcIlC5EvOiZ7NRGklUQBAqmD4HQZVs/TxsOtxMezAxBu3biOVd9/T+eZdCbs8nQXmspI3J6kuAvpMdDuySdofPfu7dtYu3YdLl68iBe6d8PFs+eRmJiAjl06468dO2ELCUGliuXx/Xff4+atW+j2XFdUrFwRzsxMLF+xHBevXEXxwoVRu14dVK9aDX/+uR679+9Hm1aP0QZIgSSOfB8P0o/ik4/H49qd23Bm2tG0cWMMHzkSo195FZcvXaKKuHfvnrSIEklrGzBkCAWT+aOi8NX0aRg6YDCmfzUNX82YiUcffZTulnv27AN4XAgNDsbKlStw89ZtfDplCq5cu45b8Vfx4ZgxqFSlEr74bBrOnjuPtOQUvDRqJJq3agWPmSdKmAtu1NOdTiRluKSiQdw0sBP1wn3MaOgfNBxKKilKAMErQ8fCtyD6i4B4W3CwKn2blW1W+y4Ud7jgwRHGR0aqZc6zcCIBdi7qyiZZCqTZkb+JLuYtn70BAp9TugbJRoLsugmAzAlmuOrbsn+wjDKSJcAUK2lcZdb7Qd3Z0QQgCN0cyUwT/c3J0uKn1oZX1J5p7xbT5NoHvA4Cx4TKNHKBo2iZbajZrkPKjyb/DDIJMfgDEAI9bkz/dCoCXG48270rVi5fQVNfmrRogd/WrEXJUiUw86sZ+OSzKbQRzYLZc9G9W1cEhYbQXuQH9+zB7es3kJyahpDQMHTv1xckrubIyEDC3Tv44fsfMXX6Z/h62pe02xwxEj8t/w7DR72EqVM/w1NPPIH8BfNj1U9r0K5jB8RWq25s5OjK4vswC1pGcwqZux2bNuHG5Xh0fLYLbTQ1feoX6NG/LyJzReDCxUs4eew47t29gw5Pd8Y7o9/G3PlzEUyLlwC3rl7FGyNfQcu2rag7sGPXLnQXeOnsOdpVb/GCxXhnzIe0mh2JHb7YpyeG9uuP8VOnYPniZQgODMQjj9anvR+2796LSZ9/ru4sqMp+sJ6VxwBCBtKdvA6Ct1LPCkAgu7R8JpUUjb7CpXNnMOnjCXjr7bewddt22q75rfffwuGD/yBXWDiWLV2Gps2aolrNmli2aCkaN26EMuXL4eqNa7hz4yYS795FZL682LdnP15/+w0ap09PS6Xf4YeV32HYSyOwfNlylC1VCtXiauC7ld9SxvpPq1ajUP78aNa8GZYsXY52Hdojrk6d++pJuHrpIhbOno233n8H6emZmPfNXNSpXx8146rj7NmzOH74KAWIvQcOQJ8ePTH186koQ3ksTCn2fLYrHmvdmnqzuvZ8ga6ja/HxuHHjOhbOW4AXer5IO6bu/esvDBw2CJMnTEKZsuUo8Im/fAmNmzWlAGHV2nUYO2G8vBO1tkLYXplkMSRkEBqbd+BAL4RJTYYPkECKb8oeBDIQP7wIbHtJZNgjbRYkXShUFhXd9D6GwW5F2nFzN7ZcKZS/J9nrMne4wtmy7nfKigeBAwTZUyq9MCEb5+Qh4QEG8uhE8BqS+umH4tMVnx0Lr7L/qeeF1UjgIQa75EGAnLngBQjED6UUS5TWgfTRRYBDSi2TLIYtG3NyWnzeSw2N/7XHsgdFRReGNovBq4sjc9KpRkYz4wThIU2efZEUaThC5Zg1drWSOltfTv4UNWvUQNM2rXBw7z6sW/Mz3nj/bfy29mcav/phxUq89vYbuHH9Bg4d/Af9hg2hdyfEni2//4FfflpNd8azF86lhZFOHD6Cy+fPo1D+KMyZORsTpn6KRfPnofNzzyI8Igyzp32FVm3b4Ne1v6LVE20owiWFTuo2aojqNeJoSVlvB6b6Y7l9+/V0vyyZk782bcLN+Hi0e7YzLQA1b8Yc1KxXG2dOnaGpTEm3btFWwbUfqYu136/GR59OhluC0/euXseIXn1Rp/GjKFexHJ58ugvOnDyN9b/9ioKFCmHL+k0Y+8lESmTc8PufiKtXB5t//R0fTByPCR+ORfHixVCoSGGKccJz50bb9k8xgMD9mfwbM+3L3kGbFimvUWWxEvdrYloGMt0eGkPmCkhWDIIy53JkxYOgAATxTtYWzeWzp/HNjK8xbvIU2gb7+a7dsGTlMuzdtRdpaWm4evECrt24TssJHzn4D3r06Y0gWiwJWP/rb9iyfj0uXL6E118bjbh6dXH+3Hkc/Psg9djs3LIFrdq1w9o16/Ds050RU6woSFnwBk2aYPLEyRgyaAA8QYE4deI0qteKwyMNG+b47kychasXL2LJN3Pw2ntvwxYQiB9XrKA9Ry5dvEAL8yQnJFLAOGDYULzY9Xn8vmUD3DZSTIxkY7rw3OPEQ1ebdgN9tkd3eJxuLJi/AJF58uDAzl20W2jFipWw6rvvUbNuHfzx8y/o0bMnjh49igsXzqNilUqUuJA7Xz60aPkYgsNYi2vjgwucckaaw4XETIehHWf2U7tz1zekzIXvRmRoCOvFQA4xm8eC/ZXDGwHMeItPFmXXF0ihcFkaMw9DMA6xhQFYE3O21gzDDKL3gD/TGASY7erNhiQCApUtlqye+Nb63Rx9P8FF2zh7BTSQJDVrIlUvCWRQPrWUtSDFxkWvEwt/M8ghZjFwvc/u46GFkg5tfQgQ5C+j1EBQBIoVSWKtNMmhBxC4UeATTO8jfG+jMAPBkl9OmYI61WugSZtW2LZxM/bv3IM27drSDng9+/bCtM++QP/B/ZFwLxF79+xD3xFD5Hjg1t9+x+mTJ1EoOgbnL1xE38ED8dO3P9AOfNWqx+Ld197E5K++pB0dSTni8MhcaNKgAfLlj8KyhcswYPgQFp+3AQUKRSMkIhw2D+sh7+tgi8m/hc4BwtULF9Cp6zM0N3rurDm0gMjRo8epi3bv7l3YvXsPOj/TBW+8+hamzfgSefLlo9yBlDt38faoVzHhs8n44YdVaN76Maz7aQ2qV6mCFm0ew5gPxmDEyJF07Au+mUvL5hYtUgQVqsVi2bwFKJA/Cu06d0JSaioiIyPhCQhkyFzavSgBRg1S5wDRYBdGXJOJaZkMIPAsCkGhy7sBi10z+bzzEEMYqaHuz+7G48GV82fxzYwZGDt5EpLu3sOAvv3w+RdTsXDhUnR7vhtOHz+KrTu2oUOnp3Fg3wH07NeHVrsjUksAwuG/96Npixb4dsVKvD9uLL5d8S1KliqJ6tWq4duly1CvYQPkyZUbs2fNRoHCMahZtRqatGiOwf0HYdzHYxGcK5xuHfMVKIBctNzx/TsIQFgwaybe/OA9JNxLoEz7lo+1xGefTsWiRQtw/OQJrP1pDfoPGYSRw4Zj9JtvUXZ8UmIi8uTJg77du+PD8eOwZvVaPPLII5RMtmLpCrz5zpv4dOJkVKhSCfUa1Mfq73+g7aXzReVDgwb1sW7dL0i4dxfde3RDYEAwMh0uhISHq71Suq+tAASu8El4KjHTJe+09S6TNZIkC1pjIcoIcd1TgMCzGGjcUAK8FrwJ8gh1tnSMN2G8/LlDXLvjvV8SoB9mUEEawbBaBwhiYyMrY5eJkPIjJM+IzsW+AIIR94RcQ4y5Ns2RAwSWIkkyF5ik8JoIlPhIvBdaHoYGIHDSPgcMbrcHU2ia40OAoAII1L0mGz/2tUmxEFOAIMTQKIoXSjkbAQRy1y8nTULC7Tto8URb/PTtjxg4qD8tj7vgm/l4qnMHLJw3Hy/26kFLeX7+yVQ0e6w5EBSEfAXyIyM1FckpKejUqQMG9RuI3n1649DfB1GmbGncTbyHDet+w0eTP8HaVasRGRqG67dvoWHDBrSs6Zj3xqBYkSKIq1MLKRnpqN+oEcJz5SJV0eku25dRUtC2dZDAAcKiuXNxl5TpDQ7GKy+NRJUa1TH2g3G4euM6ihUtjEJRBfBct+dw8/pNTJg0hYKXJ596gpZ2nTh2AmbOm4XdO3Zi1+5deLZzF7wychRiihdDWHAIfa8G9ergtVdeQ67ckZSBPG3mdOrGnDZtOv45cYrWQp8z62tEROZRXJt8URspT03xJfGtOQeBAATiIhbJYlywtGpJXORG85xlDoLbjcvnz2LMu++gd/8BWLv2Z9SuUQPNWrXEl59PR8cunWiIgVS8Ix6Xr7/8GsVKFEOlShVx8MgxlCtdCkkJ9ygH4edVa5GQmoyUpFSUKl4MUdH5MeerGXih14s4eeo0CkTkwq3kRJQtUwat2rbF98u/xf59+9H9+W64ePUqmrVsgYLRheUgnRVF6+85BCBMHjcG52/cRBAC8cLz3dHlmS74bMpn2PWfcs+VKpRHSEAAevTtjQJ582Lkq6Nx885d+vOJE8dj+NBhmP71l7CnZ+L1N97C5MkTMPrVN5CcmoLHmjbBlh078PHYsfh47Dhai5+QEp/s3AGdOnfEnFlzsWXHNloSnXAeHnn0UeuxKcGzxAEClyu9XbbZSvMCCGGhtFkTIT7L2UxCMzB/55mcL5MOKbFYuQMPOdBtAzFG9JdM6tUJdFl5qvE1xhwErbdFm5vifU+tB+Fa/BVcvnCBcQj8AegA8uTNh/JVqhByhe7gfQME9lvRu83CCSzMYAQQSLtnUquHts+m30bZ5BKCtig/5HXkllkG3TTJcwgH4SFAED4hY2mLyUySkEtpjsTQEMWtV0mRfVRFMEndBMVlo8N2lVLZvp40GYULFULemEKoWLkSipUuTVnZ/+z7G2kOOypXrIADBw9Sot69m7dx4MDftCZ+/Ucb0NACcaMWLVEMGSmpOHv2PKILFcTRfw6hbLmyCA0KQYo9k9bOJ+57koK0evUaNGvTCnVq18bunbuQkJCIajVroHCJ4rTqHS/YKYZJ9KQ8KyBh+6ZNuB1/De07t6cZCw4KvGw0rdMtscapMAfYEEgAFvk7YTEFBlA2NfGfkd9JyR4UUZOypoT5HBhgg9PtQkZ6OuKvXELu8Ais+eEnFC9diqZPkQwDkhFBGO18B8S6uUmFlZi/TV8bGVRgZMvQhsTUDGRI1UqN1JniSRAXrw/l43EjKiIc4b7rxHg/zuPB5fNnMGXCeFoatkDBQqhRI44Ssc6ePIkrV66gbt26OLBvPxo3bwZ7ejr27z+AtJRUWoeeuDLtdjuKlCgOj92B06fOoGjxoti3dy/yRuWjQCEhKRl5c+XCiePHERMdjfXrN6BqjTi0av0Yjhw+SsvNVqxcGWUqlEdAYJBUQtbMxGXNeBCAsOibORj9ztssk4V4+4g8eEg3ahdtAkSyFmi4iGym6FbMjUDSiIj8iBo0QaZoFgNJWSUyaKMZMhmZGbh2OZ426SENxZYt/5YWDiIHacBDSMW0F4ifLDuVByGDZFxIekJHDimJzsQ9z/UPofzlCQ1FeIggPBY8B+IXYDZGCROQsaakJMNpd1B+gkyD192Us28tLimSrhhGmjHl0GEWWlC9i4WwhhogeGiGQ8mYaBQqVIhll5keTIY8TheVj9KVKqJ67do0PVQ7r3p3k4mJAl+DfQIGDRSDrlzNezGQds8ujwQQeP8G6TTR2cPljf5K+m4PmzVJX0ePg8DSghQJVwMEdiH/vVklRX8BAhEIopxmTp+GqrGxaPJYS5WS4aOSMIv0FhJg0QS5VOhQWtiyUHo82LxxI1Lu3aVNQu7dvktb1RYtWVx6P2akFYgpiZSF8sZMoVlZPGw0J44epR0ESSGU0KBgww5/4jfhQm3GjODXXL54AWtWraJkPFKYpE+/fnIjFMP4pw+XqTyPeiBBYgwTDoIWICh7KEU90MfoKCu99yXmJioizGe7ZyOdRUIM8+fOw4djP2LENyl1jFpH4buqOyiwu7GvyXxovISwoE8kveLB3j27cfn8Bdrx7vbtO2jQsCHtoMnfm7uaVX10TZWs/yfcvc26gXZ4uguCpIwJfw210VM5SL5+/RpW//gjggMCkZKagnZPPsVS8mh4X21EtXpA797aXSDJYkjMdDL2uXb9St/Ll3eBP0MBCISDEIwIUuqaf1Xry5Rewb0F/H0IaNz11w4EB9gQHhoqGRhz0EIee+36DUr+rF2/HvLki/L/I2uu8FX7gFHK1YcV3oMIEMhXIAAhtmJ5REfntxhOZc8lPRy+WbgU4VGFEJMvCtVr1qANz/hh7E3WlRQqX+KnE9+Fei8zHUhIt4N4EORNiOxF8J4Hvbo6RiDhgc5iYFOn04tBQ1RUFh27gjZrCg/xatakVQzkOv7JZGUpfC8OEM6ePk3rcheIidHdgfjp3fKWMg9okaGL585SUhapGkc4C3xBsKRMlmJEXVlSCpIyP77Xs7zrsQAUSCtdIoyk8xsDPsYxQe1TRYDgi+RH7uuiLVydCAkNpeEalcctO+pJCxKo94J1c7RLIQam35Ulreue1IIEkSApmOh84WGIIJtAP4UgIyUZ58+fR5Xq1f1yefsyZtr3SElMpAVl0tJTUbxECRQrUVKqN2AFbWXnI2iUnttNiZihEYQcaF2exLuYkUbJXUlHS9KemNTRIECbyy67VjLDwq6N/9DcONlA0xxpJUXO6DefH18yRkmKIcFQdXM0v6V8ht6YHXY7jhw6iJrVqqBgQWI0rbGQyK56x87diL+XgIyUdOr5JKnXWTmMvQbK3RR+Mfso5vPPrtUFCBXKITrG+lgZQHBj3oofEEN4LhfikdvpQIPGDeUGcEY6Tz8YwbgDvgECq4OgzoDhfWHUs6zXqInNkRq28PXwECD4ARD4VBPVEBUegjyUIayG5VpvhBlAEGNovli0ftoHr7WnjdVZV+HWWhf760nIinKwChAoUBM8P35unEyHJjOzeREYDUDwRR5T3VzMFee7RKlgCXsHkuZIPAj+x0DZzldJqzJ9KZMTtAaU/zvLTYqyO6Acvt4MIPDHKWBAASLitVaNkTh8su8kACEhQ1Hy1AtjYdHz52nPJQAhd0gQ9SBYgUxWxu2wZ+IwAQjVFYBg9TPs2LEbt0MjEJInH27v248GjRpQAqu/h1ndA7Vj9b8HEOau/BHRTZvCExiE1INHEJaaikatmtHNCttieh96AIEabil0xY24FwdBaves9UzQBFI5tVLiLxhMOA9jsF9L1oEUShraGwe3bPD3M2X5fOt2KcuPML7QUoiB7wC0YQfhtkYAQZuvbMWDYPU1LegK01sRtxytWiikBbEYrO9LxQIixk1Xyb1z2hT7HpdZyIEiYxp2lhSFFAxRHHGmU2bpBO5ByHSJDVC8C8ro3YznYnMFT42NdKIIEPi19HdGwiDmWSnLnHWX9OM6Sy/9/9FJqp24yTxxCRfnM7sAgcgPKbWcnA2AwIatQAFignKHBJoCBJ7qprd0RZkk988uQLgWnhvBxUsCN28h4/QZ1Klbi3JajA49YCOWwje6To6zS/NBq8JaONQeBFZlMbZcWcQUzm9Q7l7/psRzSTwI0Y2awBEWjiC3E4n7/0ZUYCDq1q+PANLsSedS8X0VmSSEOKnYvPQe2hAD78Ugv7dUs4c/Qvm5cTBYBAi0iyTxjHqAKUN7PbiVFNkEajgIOoxVauipYbXRIhRZ8SBQY6XxN2iNrUr5aAQoJwCCiM44Etfr5OZrLfna1VBlY2W7YmGxWjnFCkAQFScvOGJlZ6b7fCIEOkSv7AAE8TnyblAGCJAKJalH49PYG0yc1R2ylXm3es5/45lWx6ZVnuJ1PmVcY2y051rZiWvHSAiSpNSyCBCYalJ7Kfh1enwVUc7J3xlAIB6EQJ8eBF/jlQGClINiz8ygIYa4LHgQtu/YjZvhkQgsXpJuSJxXLsNz8wbiqldDnnx5dT+bb2+BsaLx4nD4EAqV6164JfkrAwilEFOYkBStS5bL6cLCxSsQXLAQPIGkiqgHQQ47kq/fQLUacSjrI7tBkUvFH6Bt+6wHEO6lS0W2pOJJYvhLvqccBlPDE7X3gNk5yq1xe/Ap8SA8qKWWJXigprQw37QEHRSLTjMSJPvgEyCIqY4CB8EKQFB38tYYBT8E1EyUOVAw8xx438c83EDYvtbwutkojX9PgZUKyDGHupK4o3OtBcKlzxFxuaAoT3hDWkiGcBAyoHgQ1FBPs7E3fIweQIgKD0WYQRYDE1OeVmnNJW0661YHa3qj/xsneLvolW+n8ixoag8YgQh/AQLfNJA0RxVA8AEOjJ7h7UHwAyCIREgdfgwRtewBhF04fSsB7jz5qEcr2ONGSnw8CoSH45GGDRCZz9uTkGWAYNFjoHCn9DRd1gEC2UScPn0GDpJ9JbnrSZdako5OssSKl68Am6b8uLeXT7/0MVV9YmhSqKRI2mazvhfqLo5egFSroWWOgxY4kEqKDwGCCiCIvdOp/hXmjC9AqwBBTHPMLkDQbCiypX1FT4I/IMHqztsf0qK/L0LnVCr5ysbD/5A7+e6lZ3X8emMi18qdqC0BBC44StMUK88XFz9NpxWyGPQMAx2XCSFSe46vOTeKafv7nf6vnG/8vjyXXHkTcR5zFCCIHgTi3jUpqGUGQlho09yDYCQ3XveXFEZ2QgzXrt3ApctXWUtiD2tKF+Bx48qFy4iMLoja9esLQTE251ZrHGhlzWx+qC5WlRrOOYBAbYaEC9ReBxtu37qLa9duogDpchmkSX2USIJih2GROMgAhEIk5yPmaY73SJoj3SxI4VQhHKGVVX2i4sNeDPqllum0C648jZtJ/J0lgCByF2iHM+HemhCDaNpE86b9OReGnAgzsD0nO4gJux8Agb6L/No560/gDlNFsXOFKrY3MX6mFSPNFQirEa8loaodCHQ92gJoHYRUN6EFqWl7fMEq39Dc8s2vnQAAIABJREFUFcSfSe4UFRGKUNL8gw5KKXgjY1dVxgnPPNM843/WK0CpeP97WEJgjfsKISi/E8vbql+HSw/jwgiywwtvkZBVgA3pdtKsyQFSDc8YtHAA7N2pTzuJrFkTSXPUDzF4y7Wgp4Q8fGUsQGZGJo78kzWSoi7ohg07/tqJm/eS0LhZc6+MJvMKid5zLe/ETaTKrKyyHGIoXwrRhQvlgIwG4Nat24i/fhPRxUrqeBDEkAKzAFqAoDcIluZoZwRXSdhED4IWbJJ/66c5agPg7GkPfBYDgwfmAEFUFFY5CGSCfRVL0gIBM3WZUwCBgwR5j2vZhpuHGEQhzsnMBjpXQlhBVnBSkQi1IvcFEESI5GPdcwVOlKV4Ox0eAi21nJ6JdOLjE7wYjIDobQCtghSi5EkWAy+nzxu8iwBPrmlgUlvBqBaB2W41BzTj/6lbaA0n78xIgLTRzlQUD+3XpgRfXxhIAm8MINjhtnnHk0QjLcF609Q9ChAIByHEO4tBrG+gBa5ar4IQcIE9MzPLHAQjISDZDbcSE9G4afYBAm++ZQV0mgEEMl7CQahavjSiCxfMARnOHkBg+wNvvSY2axLpUawss5c0SpVjvdNT2b297/+AAYQYDBg3BXGNmwsfXCApaiw0M+Bskq0CBO255N+0IqAOSdHIU2AkjTkJEMRn3C8vAjWXfmY2eIu0L1cj34BK30ieZT6z+kDBkoHmil0PIGh+xnsxpNNNAI87ensftMrYTOtwgBASKGVESPwHyeMr60FfU2z0rqwSrnwnXRsmM9zZCqASrMwov/a/6wFgAMcI9DFnqnfZHJ0x68TdtW5oUrFT76CfRerXQRnz8k5OmmMLU2QFIIi6xcyNzgECqaSoztrxDp0YyqEgH+SdKEDIQQ8CeS4DCEkSQFCPxG8PgpzLbz7hvgECu/7ooYOIrVAGMTH+p2N6z6lN8iDcQqFiJRGg0wLdyEjze/kCCHcJSdHDvahKV1ku1qprNeEV5XcaqEvSHEk3xweHpBiDAWOnIK6JCBC48dfZ6eUQQKBse05y0kiOuSgrF/z/DhAcDgfGTfiEptjQ0qI0/5e5ZtUHM8JU8UsyXaZUSXTu0B7585OiJny+sxdqkJwTXh4EapSEW3OAkOaW6+Apuc4S6PTnO8tAgtbbCAWplisbes0aFg2SIbBklkXegZDWz1cuX5b+TdtL6W9yle2jdGsb7ZpZvWYtaTxmPi8zCOT9e6O4uFZJcj6AHjgg3SqvX7tGSXXsUHsJtbU/xV0yKaxVtmw5Nl8KflLv3jjhlXcmpEIqfGEJyMm4Sly4ShUf1csbAQQzIGA0wzJACA5UhzktEvjE+/KvfL8Awu3ERDRq2sJr/5o1gKDeHBjxb+g31+EhkGqRZ8+do69//coVFI8uiMjIXNJ00H25D6GWCs6xHAAvTZ+Sko57ySmIyBsFW0AQIvPkRtGixVjcSSbBGvOozACCi+awq4E7v8Y3QCAlllh3R8Ha0KKrD1iaIwEIkxHXpIXq44nEEPEXOeVBIPckjZv8NRJEWBctW45f/vgdpD+B1YPyHv5Tvax182YYOmQIFUBfaTrcfW/1/trzmPHysibyaVa8CEQZpKel4vPp06mhZxaYNB4RHerqxUmXo82G2zfvYuGipYiLi0P//n0RHk7qveu7zAyNaDbQF09zTOe9nrlZEpjvRjt58lWNakuI3RxVBki2ltJfVNVhGBgIIHnMquXOZoSMY9e2rShRrCjy5CNdFrVypTcadk7S3SRs3LodterURbW4GgqZzoTjYBxT9/4avmLj5Gyj31P5pgAtAKdOHMPx48cQERYi0boNVp7UT8DGnT6w4dbdBMRWi0XNWrWExlvKOEUSM7UxZG1J+l2sF6Jqr6wCCAIRQQAVGXbSzTFTUw3PnGugJ89kjrQcBGoo2QRaWuY8/Zl6UaRrHJkZOH7oH1pJsUB0QUNTqTQSVj/KRna4xMFCRYyBtp3btzMPQrMWdGjExsmaRNNm2kroQF4anPQncDq0L65HVExJSsaGnTtRpGIFONweCq4C6ICZPiHvRiKJMuNJym6j/CBJV3ESIJc6EmZkV5PCZey8QKcDGddvoFHTJjI8N+yJQJ1SRt4rG3gdBJeg5MV1onxydg/vyAP3FQozRENqtocAgYuqXvEZESDQ86SF7ouDwKdYaxBEL4KlFUrSiux2bNq8GXHVYlG2XGlD9OrlHYUNs+fMx7dr1+Gpto+j1/PdEEbL0Po+zKqU+TauxrtJK1wEEuZISUvBihXLMWzIQE6hNMlLYIYrPv46Jn/1DU5fvY5WdWqjb4/nkSuXCBLMoZmlsIPBBKg5COqT2LdhC5M2uLF0MPVD+nTkjQgFafdsCBA0GQyqxS94OpiBYO74XVu3ol6dOshf0LhIjTJMBWjduXkXS39cg4g8eRBbvjwqV6mMwMAgBkA1YTjxNf0BCMyGKfOk9RAYAgR2IVXcJ44dQ1hoEKpXj7VUjZABBFaadsHi5ciEDVUqVEBs1aoIpJXvhNngrb/5j8Rwk+hFEMMRIg9B9C5IfBYiP5kOUmrZQY0Pe32piZhFg87njcsxq6RoTFI0E0POUyArZ9vmLbhy8yZcAaSRmwdkRnjrYLa5YN4WGQdJ8WzZ0EuZR3S1ip5U8r1Ii/SAALhIF8LMDLR/8gnkjWK9GryXi/k65vKRlJyEtNQ0FClSxJg7ouNBSExKxvq/D6JEvXpw2AjlmD2TrwKyijKTE+FJTKIYMKJoMbgDg+D2uODJSIPj5m1kpKchsnhxBIRHSJUT2f5cgd4eBKanIPnQETRv3kz+FDkPEJjXUPZeS6BJn6SoLbXMkMSD6UFo3EIFRn15EDjcYuewyc4KQKALSeIimIs5kxkGEDYhrnosypQpaeLeUi/52XMWYPeVO0iHB48WjUHXjh2QJ0q/IIl4JV+UVsfI1rx5PJoJpXGNBG+AwEZlVDtcHHN8/BVMnLUYoQ2b4Pqe/aiROwwvdnsGBQsWkEIUFt8mi7USFA4C8wfIbj1thoEfAIHvAvOSNEeLAEEXRNBJZHLLmPRuCSDUtggQlJm+c/Me5q3+GZWaNcO9Y8dRpURx2iKalYL11ZVScaFqDZOvkIIusDAAI7RhkrSzO3HsKMJCg1G9ehU/W1jY8M2iFSjdvBmuHDyMctGFUKlyZXU3PmL8RCAgARNqAkQxEwGC9nzpGl5YhQME0qxJ6djHZkpR7hxkGnNbRGNgCBBEZ58PlMDvRdbf9i3bEFKpPGyR+VgqnQzfpe8OIDM5CfbEBARH5kFIXgI82Xy40tORcecugsJDEU5qHZC6IV6sEDeCPB5c3/83GlevivwSQPAenn4YmBtwRlJkJca3b9qMvQf+xkuvjtLhoLA7e3FMiJcsMRm/HzyEoo88ovHmsOJTKVeuIOH0GUTky4uAyEjkLV0GtsAg2BPuIvH0GQoIbIE2ONLSkatoEUSWKgWPTeoFI7xQSFoKUv45jObNm/LCxnAbtF2mXpcseBCUaBYHOazdrK43WeoAyYdInKEEHk0Z0vNB4iAUpiGGGo2bqxSHFYDAFiv7QzowGPVi4BOsLbusLHbiBDU+xD0maY5CAEKN6rEoW6aEj6u8f0UAwoYbSSjfsT3if/4VtSIj8OLzXRFhwZNA7na/iItG4QYGEFKxfMUyDB8yiC1g6f/UbyfOHlOnV+Pj8fHsxXA2a4OYIoVxe/0fKG1PpyChQKFCyi5ASN/yNZn+ehNYiCED6bQwivHXVXsQvDW14gKWPAgA9SAQgCCOSV7g4m6UfjQDICQpTTLO7ACEu7fuYt5Pv6Jih05wJiQi6cg/KF+0MKrXqK64hTWhGtFo6c2575ACI/xx35Qv/ws/h8zcyWNHEUo9CAQgWASH0k549uKVKNbmcWSmpyP56BGUzp8f1eKqM4c4by5mdkvxu7CdgfrV+e/J95IUdqbdicQMJ/UgiIcWIMh18qWT2PxJYxN2izaPC5GhIcilk8Wgz2tQj5G2USe7eniwY/M2eGIrw5M7n1fYCi430uMvI+PmDfq7yBIlEBoTQ41r4pUrSLt4ERGhoXSz4wmPQOFacayQjyrg6kGQx42b+/ejebVY2pJe/5AMnbCOj/xzGEeOHEHX7s/h1q1bWP/nn4iLq4HNf65HYFAwBg0fYbjUtQCB6CDiQfjj70MoUt8bIBAQc2r1z6jYoiEcIWGwJxEvggdB4eHw3L0Hh9uFPGXL0u/tuHMbKVeuIrJiBdiIJ0ET4w9OS0HaoSNo1qIJK/GmMdDaQRtxUXgWAyEpknbPVG+qvE5Mz/AQhy/LI17HALftwSuUREiKNRo1h01jAfnuXrU46WyzyBLbITAXrRWAoAAC5Y4ciPjsZyAMwGnPlABCVT8Bgg2zZy/AhpuJKPnC8whKTsOl779F7YL5MHRgf8u7Kv9DDuZpkFRQdXbSHCAsW7FUCjEYiTInApHfM9JQfPxVjJuzBGjWFrlLl0ZwRhISN2xAGUcm+vZ8AXkiI70WjpnhMPu9ODr/AQJr1kIikqIsKAuU/TTQBuQllRS1AiOnYKpjytxL4DVzwq5bDRC4IrYW+rhz+w7mr/oVFTp0Zh0/05IRv3kLqlWsgFpxNdjuV1O4SW8dqOZOx4WunXsrRD3yBjReTFuKH8kSQCCrfPailSje5nHYiTs9PRW39uxB2SIxqFmrtlSTS4rlqww0+wfTFJq0WBEgCF4FCjYE4EA5CFKxGz4/bB4kRrrBJ1LmRr32OEAgaY5a8dGfT/VZHo+LgSsb8NfGrXDGxsIdSTgr/F0ZcLPfvYvkU6cQVbE8AnLngY20NQ6wIdDlwoX1m1GmXi04cueCzeHE1b37kT+2EkKjYyQgzUGJiwKEW/v3o1nVWETltwoQgJ9/Wo1f1v2MGbNn4NSpU5g0YSL6D+iD7Zu24MLleEybNcuwY6wRQPhTAgiMvqscYW4Xjn6/GpWfbY+UK9dxj5AZnQ7YXQ7ElCgJZ548yFWsBLMV6SlIO3cJISWKITgP8dyqfQDBaclIpwChKeugK8FgiSWgs4T1BYABBDvuppHwFONK6KU30pCQT2CrLpTEZYRVUtxojCty+DcWHVw5/FTpdqRZkzFAYDBAPJhXnP2Mu9GzAxD4fXzRFcVIUHYAwqw5C/HntVso9mxXStzK58zAhsmfoH1cHIYNGkjb1Vo5/PEkyGrSbIelSn9kJ/MQw7KVSzFsMOEgWD+uXr2OD6fNxp1CRRBUiCgXD0Iy03F7zx60rl4NIwcPoTcjqlaOi1IVZWGgmmHoAQe6W0pPByMpWvEgkDCEwoi2ERekhktA5wQevwCCsQdBcfGTezIOQi3kl1r2WiV03r6dgEXf/4RcNapRaEPmL9LlwN0jx1G7di3EVqvKQhkWjD5dWgbxdSVDwdidricd5DpivglAUEIM1r8xUbZzFy9H+SbNkCG1CI9wOnHw599Qu3ZNVK9RA54A4s6RJF0iKPqUVAkgUE+KqOPFQkk2GzIcGoAgh7vcOgpf/US9UAzZo5N2z6RQEhmvKOv+AQQb/tq4Bc7YqnBLQJvqMWlH7Lx5HQk3bqBItVgc+/V3BKdlwBEQgGKxlZB+NwmFGj0qYSYPbNev4cSeA6jS4UkaqhCPII8Lt/btR7PqVRAVJbZX5udxH5EiN0QX/7pqFX5ZvRpfzpuDUydPY+r4CRj68nCcOXYcm7buwLTZs/0CCElJ/4+974CzqrrW/+69U5nOUJQOKtKxANLtLTHRmOdLsZv2YsqL0VhjYkyPKcYU00w1zSQmsQGigoIICioIKiAg0vswvdzy/6+19z5nn332KffOGJM3nvwiMHPOrmuv9e1Vm7DghdUYdNI0Y4wiPfTGhxZi2ImTkRhImklgz6pVKE0ClfX90dqZRtVRo0C5Mzr27EXrth3oR2elrMwxI6g5l7Q2oWXNWpx8ylxQuIA0IMk//WAgTINAiZKo3LPIpKh6cEUtp78PuQPYfB96NUCYzD4I/qgAU4vgAwgShRUngL7lJaiylHs2mYVNoKi8CDbG0lMA4aGHH8XCFSvRWlEjs/tlUZltR3rvAcyZPRPnnffO2BI4b5AQw5bvOi6GAQSdiQRTeGd7O55c/DReeOlVyQyIqeY4/8T2Hdvw7W99k+dq+uqGl7EJXh5zT2nPDpOJgW+ILkDwe46rOegwxRRg7k2QhB1pENgHwQJURBieYi2GDVzaLR2fEqsPQn4ahEwmh8WLnuKbitAuCT1IZ2cXksXFmDFrFnLkZxMi+PVpOEzPuDYEgQwfl9UbS4oU3N0BCNTcoieeRFNzmxTKYm9S2Qwamptw1rnnoqSij6Ax07wTdpps1yINIJAmob2LTAxuuec4h9OJnmAS0J3RyPs+i+qSEk6UJAS6eJRJwo0VkD83rkf8njzHyxaRBsELENT40nv3oOGNNzBg0gRkmpsAElabt6JyQD32bn4DI08/GRlKK5zLoWn9ayjKZlE27ljho6BN0gEIE8aijkOV9VEHrUYO8//5Tzzwt7/ip7/5JV555VV856tfxyev+ww2rl2LJYuX4nu/uIfDpW2PyVGUiWH+Cy9i8EknecwgooUc+rS24fXnVqG0tgpdnWmk29sxfNZUdHR0oOmV19De1ck00nm4BbWjhqHkyCMpZgEZw4egtLUJTWvISVEAhKgYtTgAIe1xLnCJLsqPyw8QEk41x+98opfVYuA8CAQQaMMEAtBox1vZUdKE5uQiDmF3AUJYREPPAASgqyuNdFfaUXyKyWaxe89+PLZ4CS754Afi8CB+J2+AYHVYc28AHiGhsQKKYvBqEMyDHQQSRHibWyhZCC5a5y999Vu48brPcS9mchSalw3ARdnNzYUTToomQDDHaoIdtR7azw1gRSF07IOgO9J7ydVu39bV3LIKKcMjLu2dwzNLnsK0KSegb32cKAZ9tlIwerYlhwN7G7DyxdWYPnu2FJ5SUyNvz+KIuTdotea8H3IZzCREOoRiUSHbEgEHfjU+mzzkLX39y2tRVlaCiRPG5OWD4FKomqDUHuaA3/7hPpx1zjkoKZfRQDZS1C+7xrL5fMw0MxE11U4+CB0uQLBpBcI0M+bv6DRUU6plAgg+m7RaeKVRc0M1laFERTEQzTxDoHD8eGQrXRODI8Bbm3Fo3Vq2oZfU1aKzqRlIZzBwwrFo2bwdHe0tyJSVMw/JtbRh0AnHobWk1DhCwgdh38qV7INQ6wEIbnimT87ncnh5zWp8+xvfwOlnnoFdO3dh9cpVuP6Lt2DjSy/hySeX4s5f/CIQIJjnmHoiH4SFz7+IYdOmIOckHpJghc9nFon2djTuO4BUURGqBtRzdAcRaBFFouzfh0w6ixpykC4rE31L+lf90T+L25px+KV1OJmiGHSAYGeTIVk8Rapl0iAQQHBhAfUrpElU1kgTIDAtybn3sigGaWKYfaqr4DI0CTYtAu+ZzJqSL0AQzM0r6PLRICxmJ8XxGJmnk2KQ9N+zex8enLcQl3zwgwUDhAAaDmhP3YhNlu9/3Q8QYg/R+iIdl9slQGDIYLlI0I9s6td8fRAIILSSk2KC9BICoLgPSzft3+r33p+bfSZyWXAUg1aLwSdo9BA6W6Y/R9YpYZfDM089hWlTj0d93gDBvh8H9h3CyhdW46TZc4Rd3UYgBMZ0QaUSETlc01JnQq2aYa9nrYjWFofYyboZwkmRAEIxJk7Iz0kxjNp+8/v7cPY570Bpnz7Wkt/Cg1m0oMwJnpwJ5t5IgEBzITbOAKGTCu6kZG4FqRnSeEeUSUYfv8qDQE6KfoAgAJv4rx9sqbWUYhFLnnwSibFjkKmqk6YFBx4IT5qWZqT370cmm0WquBiJujoUVVQglU6jc/9+dLS0oKS4GCXkfFhV48ttQsvGToorV2LuxPHSSVHY0oWjpBvy6Ekpkcsh3dnJIGEHVYbsW8dTHTNpPJobDmPf3v2YPO2kPEo159B8uBEPPjIPfaqqRC4RAwwLIOrEmnjOtbikkPFNlkt2lllGwMk4G175bBr1VdWYdcrJHtOn9XISEcXgmhiUk6KiQzHOsBw4il4VPQhnSZqJ4Ip39L4oBumkqCjNBAgcziiZqZDuvMgEEIgwiEBIgxAVxaAfVpPxhyVN0kUL+SA8uWgRJk0ajxE9CBAemr8QF38gPkCgufANwCC2uJoFEV6nHru6j377VgAEfVS6jTg/gJDE4dY2ARDoYFk0U3GSvHQXIDBzYfoVoY38cDlqKXxZDR8NENxbSJjIdH+nAML02XOCb2smQFAiShOsvGxmgicDHDj7pQlcHYq96QCBNAgW7YGZQElfOZ//gdwXfkfOl3wQGjtJgyDCZE0NQpijpjLJCNaueJco1lRBPggyUZrN58Zsl7EdgzwJIBLA0sVPoqNPJbJlpD2RwlGzsgjNlACAyleLNUZsikkiLTNRsXsxj4XMHiJtkBovq/e3bcWpM6ajtm+d9NcQlwuhzbDzDV53BRiTVObYNbVQX0HmhSDKpiycBKDHjTkWDYcOYvTRR2HggAFS4+z1YdJNXirgUwyTfIoyjoZaFH0D9u8/gJ279mDgkYPw4EOP4LgTT8SwkSN91wnf2PIGCIbDYTDLdboiLYICJ6yJldvcOzUIFMUQABBUghKFnnWXfyVAFEAgHwSvJc1OdmbII99aZU4E7xfi6qVAwv8VgCBwlrpWmjdpZ6X/pQAh0JlO3lbyBght7WhNixxrPQEQ6LCyk6LMgyD8GYzbniKeoPBGcT2QN3oBHBggLHkS06aQBiHIW1w0HK3zEe8JgLAGBBDI1hq4djYNhyWngEcAB8xNmSQ8IZ9OHoS1KH+zNAgsJAPOuQQzMkGj+5JpErEAhI40ZVLsRJaFi67yt/dlAwxsa5bHK5UjgFDCAMErH6SQs5lItK7UutK3LzyzApu3vI7qvnVoPXwYdVUVKC4pZtU1XZqEw6J7U1U8UfxcgFJ2lJNnK8nplsQADh1qQFs6w5qZro4unHH2WaiqFqYMAXgIRtiLnvE7oWWb84W6QhO1bcsWNDU0IJftwrixx2DAQLeaI2NvQ2/gPS3yuHEegYQAKFTaOpvD3n37sWvPPnSls3hlw0acdc47+PeU/yBsO8LAIXGJxvY0DrS1C/8fx8/EdUwM1iC4qj4BEFSmZjeXy9sAwees6PVD0JmdByCUFbOTYtwwa9/t0AISdIZMf6c8CIsXLcLkSZQHYZiGNL3WdvfOoNh6MGTcs3svHpq3EBfnYWJgES5pSR9j7Lw/kvF410C0dODAAax64UW0dXaiq6MDz656FqfOne3cLJQiVPEudWNwj774mxs6KZ3VeAkSeOjhBTjnzLN57UYfezSOOeaYQAavfsEALo8IBzqYh9tEHgQVYuSni2gYr9ZHMQQdILheZsbw2UoR3LZSZhw6dBB7d+/mNdmycQNGjhiGij7lDNx0vxdvjQk3UzGvsoWL0c9bmls5pGzE0cewhm1A//7oK5NUeUarmwbk/viW2edfYKmGqNrR5k5CiG5oZHd9Y9MmlJYU4WjKPurVSfNwvHSobssuOLdt/cPzH8NJM2aipLSMs5JWVlRG0pHTt1o8ff3U2DUNggAIYUHQXswhDQTOcEWYqeiE/VcsAEGP5AmbgBNJQvvb2ITFjz2G2XNmYcuWzTh+wnj061/vqK5105ErjBRXkr2YfhDyAD+9bDn27T+E+gEDGQ6MHjcWyVSR0EZImMCXJi33gS4webYa+Ufgnsg9I4DQ1tKCF59biWy6AzNnTPWXe9YiBsU09P8qC5s7KA6PzyUYIGzashVrX3oFp59zFvpUi7wSQQmSwoCBww91gOC7rgqQEAQQRPveFRP8Iulkyuy1AMFhFDGiGdS7inlSJkU9iiHObdOaOMkpKuRiUHrvV7/8DXbt3Y9cJod9+3ajpqYK1ew9Lf7HuNzVAgmWkpO2Or6+qPSnzIXEV1IVRx7/O3btxqARI1gNdtuN1zvIM/L0aC/ENS/42nTMN4IwVzz7HH73jwdQP2w4UllCrhmkkklPjLi4RXBycJGsRjugIoEp2f6VYxwBBHU4E+hKZ1CcLMLhQ/tx4rFH4f0XvTfWNEW2hXhCXY9icAGC7lwV1Y48pFIWqjYEQKAoBmn2skpoQ4Aq1bAhCJcvWYp9Bw6ihmLQs4CI1tOZg66gVvTopndxmbV8z+A6GbLLJpM4uG8/Bvatxcw55LBoedQcbKDGdtOWAsDJVCjf0VX6RPINDYfwxKInUdSnD4jG6UyWl5VpY3ALaYnzqgSxuMHJ08PnSPmm6btGN92KqmrOTVGUTePcc9/h9TJxtfLeSesAztCguKYBiDDHPAACH3lSocuZCEGpqcAZIFCYozcPQlyAoE+C1nfLhvV4beNGDBhQj8kTBUDo/pPA008vx47tO1FeUY0Jx01GZU2tZqpQ/n0S9Bg0owvQTCaLTDaDopLi7g8LwLbNW7Dm+ZV457ln+gGCK50FBpRCWNGLE13i+uAKgLB/P5YsfQZ9+w3E+EmThfZAgiCfqScsLlGbodAgdOFAG9XxcG/+aqlYGyVvCcKEoCV8tgAEMRxp5oIo1rS691RzdPMghAEE3cyg9oIOsw4QdB+EOADB6c8gX/GtSsYkDsRln7oG0y+/HE2U45sOPRV6ysq0QKxypf9nhd2PvVSVOBOx9cJmR7ZHEa3OP5HUK5VQKM2m8dS9f8QD3xMhgPk+BQMEeSDUmi1e9izuW/syBp15JjqSRY4DkxonKzDTHWjYtg2tTc0YMvE4pClHeo4tfdi7ZT0y7e2oG3kUEuWVSLHkUDkGlL00h9aNGzGxuQlXXHBerKmq+cXZWz2KwQMQtEMe3o4Z5KQyKeZQ3acUfWjPZd5+c/AsZOTeemzdnKVP6Azp548tWIDWyirUT5ggs+kbMR8JSm6Txc6d21BRUYXKur7SipxALtOJxkMH2Qmt/4CBcGNjHJbIw0qPFfTdAAAgAElEQVQhi31r16KytRVnnHG64/+gnyHH5EE/dBz1IuK09foHASmM9+zchX8+/jjGnHM2MpzKzPvQuSJbeAkX4EkhLdXfwlJOEeQZJHMJpAk5sTe4ynjq3rLob0WtjXh98ZO4/NJLDYAgJIWPr0uAYPVDkEOkdtkHoYOcFAVzttFLqKpZCQJNStWWiEyKdP5TTAfeXCCxDoJ8KZHJ4k9/+D0G9KvD6afMRb/6egdI5dOO990Elj29HC+ufgnHjhmHyVOncuwRcSy16uIcKgCtNAmmKiaHZcuWYfPmLfjgpZeILvQIBOGkEDhM3iLDXyGXyeDhf/4D5519ugcgEGtxik0xMMgxu3F/Jpiy25vUpOTosncQTy17BidOnY6yqmqP74E1kiDGwoYDBFeDYPq08BKp2gxaJnTmX3LwJEe+wwChFyZKcgS2RYOQN0BQjmERG2o79CZAoCYu+9RncNz1N+BgUalUX2mMmIjycAO2zHsEu155BQNOmIKx7343FzyhGOTm1c9jw1NLUNynEmMvfDeKjxjE+03hbW6ltARKcmms+MGPsODrtyNrXYPwyXQXIKj1f2rZs/j9KxvR/5xzuThKSjvHmQTQtXMb1v7sHlTmsqgcMgSjr7ocbclS5Foa8Pwv7kFpQwNKkMKBri4c8953o+74qYySlR1YiN4EWja+ghMPHcAV73lnqL1PzdqZnxMmGLwecTIpxgEaZg/KxFCmyj3bbPhBw9IABZ35RfMXoKGmBn0nHifLxrgLTbRxcON6tLy6HqUkVIYPR82Y0cgkkhy2tmfFChR3ptlvpjHdgaNPPw3ZPkLFLhTz4k/K0nhwzUuobmrCGWedzgljHGdJyziVFsBhXtrex3X6UwBp787d+MfjT2Dc+eczHXmdQhNIdLRi+8rnkD5wiDUB/aaciFxVFQuG9h3bsXPVGtDdsz2Vw5hTT0G2otKaYCfV2oit8xfg8ksviYxd14FRuB3Zq0FwnMUMgBkNEISakL3/kUUNAwSKkRUhv6zOjkX9/s2iPW46eADPPrMMZ5x6MupJgxClGIsUcAIgbNy0Ge+64EI0t7UxMGtrawOV3e5TUcF6HkpelO7q4jTxZTLMNJPJoLGpiYdQXVmJp596khMlXfnxj6KpuRUVFRXIZrNoamrmi0RldTWSqRSymTSampuRpSJRmQzq6+uBbBYtFInRlUZlZRWKSku43XUvrsawQQMxoB+BZaWdIdUbIQIl+L0ZMRloJOmCRlpQLfqCztihBhxobMbgoUOBomKRBzag/kIc84I4f0ku8nWg1dUguKbKgCiGsLTOWa9e8W0Tg2N0NWwx1sJK4qZvFmuymQ9sZ8MmJLg0s+N5LP525Sc/g7E33oiGVJmvmY49u7D1739H/aDBmDRrJhrLytBS0QdFWWDD3+5HeXMzjpo9Ewd378KaRUsw8cpLUTZ0hBNiJkBCAqlcBs/94IdYyADBzAAfebJ9ldYK4RU09aeefg5/eHUj+p1zjqie5rkcZLD1939E3VGjUDlmDFpa2lijUl5Shl3LlqOuuhz95s5lc0TjK69ix9PLMfyDH0CqQtVvF/Mg9V7Ta+sxpWE/rrjAqxoOmqlnPlzytecAgn74w4ADAYTa8jIQQNA9pqN3R9jZnX4SCTwxfz4aampRN/E4X2PZ1hbseW4VRp10ItqKirkKHj2VlZV4fdkz6DegP6pGj2Z21Pn6G9i1bTuGz5mJTMJN0CAAQg4H16xBXVMTTjv7DMFDw0CNxQFR2bM9pZMtE2YAqJkr9u8igLAIY84/X1QG1KQXtXlg9UsoynWh33GTWIPCd8oE0LZnLw6uexVDKe69ohxtW7di67p1GH3WmcgW+89fqrUJ2+bPx8WXXiLMXWzrCyGOGJulNAiH2ztkutzwjxQo099i4c+/EHCNwFp1STFrENgIp0UlxBiSDc4h3dGBVStWYPzoY1BXR4WXzNfkyGzL4Rwo7+3/+edfwOGWdpx8yqm49957UZ5KYe+BQ2xmPO2M0zF02DD85te/QVtrK/d57jvfgbq+9Zg3bz62b9/OuQjOf9d5eHXdS9i4fgNOPftMPL74KVx00X/jwP79eOThR9jkNHXqFMyeOwcvrFqF5SueRVdHJ1YsX4Ff/vqX2PTaa3h21Up0dnShX/9+OOvssxlQbHv9DWx7fZO4bLDdVtyupa7IAKFRq0ofJjFoyFAMGzEcSJEUyTn74vk6JGrBv+JJzp9xsJX8V1yupfsXmD4IYVUj2cTmdJLDt6/ubYmSbv82F2vS0b2Mk/GsPZsUNF2Ro6InVWxO+CBUy0yKsQGCRdNghjzqAOFwyrWh0s/pprdjyRIUNTbgiLPPweann0Yi3cXjHjl+DBZ9+ds499tfQyvf7rIoXrMGzy1fickf/ZATHSFQJxggrPzBD/FogQDBJNRCNAq0xqRB+MMrr6HfOWfLm5/bcnGuCyu+9HWc/vnrsOG5F9Hy4mog24GSvv2BVBK1kyejcvR4Bg2l7a144Z5f49iLP4BUrfLOV3dboHnjBkw9vB+Xn08ahPwZeljWRWViUGGO+troAEBoS00g6oVWunrZAxAi+I8pNPj2ojY7mcCieQtwqLoWdZMmGy3l0LZrN5rf2IaB007gcrX7NmxAOt2F+mFDsP3l9Rh/6qlIV1I9iyxKuzqxackKjDplNtopQYz2KIBQawMI7lbwF7ppJIq1Bv3eBQkJHNi9F39/fBGOPf9drPnQVzmZTqPhpXWoGDkYJSWlOPjyRr5hdyaBTGMT+tT3Q/XECQwsKKPfaw88jJGzZiFBt0vjIYCwfd58fODyS2Tm+yDng/iz6jmAIHxVEokMXwiqS4o4URJn5pD1OII92qPGm0NXVydeWLkKabrhF3n3Puxr79YLo46g1wQaGhsxdORRGDt2LO7+wQ8wbsxozD3tVCyc/yh2bN+B91/yQezauROdrW14+KGHMGPOHJSWleG++/6Km2+5CYlUEiXlZVix5Cks//+JkWr71WPqSdMxeeo0tDQ1Yd+e3di88TX84x9/x3e+/z384qc/x4wZ0zF40JG48qqP4Z5f/hx/u+8vmD7jJIwYMQq/ufdeTDjuOJxx1tmSTnNselKP0sCo86bul0ozrxvdVC0b53fSV0HQptgTm0YnWnsgehF7muTw2AOtnR6Nl6i94OdzgeCA25OIT2oYaJcEQOhFJoYP336HzKTokjSH4BlX4HgAoViG70UdLr0vb0dxAQJtnQAIT6JPMom+M2ehbusWlKU7sWbxkxg8dxYevvPnOPvH30EaJcgkcijZshlL//pPTP/cNcKJUXb9nwIQ6Ba08Re/RL8JY1A1bgKyze1ofvlF7H3lNVQPOQL1g4aghBOh5HB4wwbsWLgI4y67BHByxvccQAjKusgHlTIptnWgLZPhQ6bf3j0AIcDxyHxH/TsfgMD2fL4WG0yBFVRhAAEoaWvHlhXPYsScqejKJJBsa8GeF1ZjwLhjsfvVzSgb0B81Y8YIf+09u7Dj1U0YfvIsdBlXyFCAEBaKGf/4eN70A4TFGH3+eQwQ9CeVSWP/i2tQO3IYimqq0d7YhMbt24DmFlRWV6KxtRP9p05hZluMTmz45yMYd9aZaC/vYwcI8+fh4ssulUmhAkJP85hTvgBBNa0SCQm/I7n1sh4F+VR4AIKETFEpfcOGTQKpvbUF2S66lOh8zKsViJq6CtdVDnPlfSpQXJTC3Xd9HyfPnY2xxx+H9S+txeKFT+DMd5yDH//ohzj//Avw6urV7Mj40tp17Avznve/n/eA2luycCHu+enPcMSRg3DJFZdj4vHH4emnlmDVypWYfuIJ+OlPf4G7f/Vz3PvLX2HEiOHoP3AgvvK1b+Irt38Jv/7FLzF95kls1mhr78CwUUfhhClTubKmEw0vJ2Uqi3RAwLxAm7yiQnEsXZ8f1WhQeGM0QHDDGalVAggHpYlBRbZYL0Ee04IO21gV5oyczSk80RxEquW3AcJbCBCkpkJuj9AgXIOxN94AXYMgkowAHVs34+V7/4CxH7ocyf5HoHXTJqz/+z8w+ZL345kf/QKDTzoBI897F8rSHVh421dw8pWXAWPGIpm1A4SFX7+NwUR3n+5qEPqfczY6LbkhSnZtx+N3/Rilwwahok8Z2la/itNuvo7Ttz77w58gW1OFruIUOjZuwQnvuwgVx5+AtOPtbAMI8UwM5npwoiij6I3DqC0AwWXi8q7EF037OncXIHjs9SoSgBIkZUTJXgIPT85biAPV1RYNgnAuPLh6DfZs3Iji4YOAwy3oV1WL6hMnIdnZic2Ll6CzuhIlyRRyu/Zi7DvPRVsZqd8NsCtNDKxBOOt04aylplwAQOD4eb5shRiwmPEmsX/XHvz98cUYfcF5FjV9Do2vvYa9r27E+FNnoL21HTvWrMeR445GnyP7Y8MDC1E7egQGDDkSG595DpXVNeg/fToyluu2MDE8gosvv0zMX4+8UI6heR6n7gAE3RSj01cy4QUIKj9FtPCJ4gQyisqThjj4Gz4zxnpwC6YjZi6Ln/3gLsycMR3jTzgBLzz7LF5Y9TyaW1owZfIkzDj9NDz0t/s5eqKtowPLlj2Lm7/4Bd6DZCqJZY89gXUvr+HkQy+8uBpXffgjuPGGm/C5665BTXU1Pv2pa/Dz39yDV9euxc/v/gmqamtx8803YufevfjrfX/B+z74ARwxeAgDraIiFQnhpTuV9dI2WyFOtYtggAFCn7cNIETvjzcKQQGEAy0iD4LusGyOU2kPFDBz+tLBgXTozMjw2+9dfUVvclIciA9JE4Me526WfhYLm+DysWrX7SaGYqEsU3IohiHetDlTH2Y43RWf/Cwm3Hg9DqaoCpiX7JK5LFpWrsQbTz+FsvJKtLd3YOipc1E9cRLKOjuw8p7foCTbhUw6g6HHn4DqubPQRdUCmZmpnsiTO4Pn7vohFnz9SzKHQJ5cTUfKBX9KJoYV+PMrGzDgnLPQlSg2lP/Cuaq8qRENq15Ea2sLhpxxMhpLynnNyrs6sXvp0yhq7UC/Kccj07+/8EJnBbK8VZGXMYDWjetx3OGDuOL8+EWqolgl/Z7Vt4kEDrW2o125cmg1FaIPvMZUDEEYV4MgzAmSCOVeeHwQkgk8Nv9RNFZXod/EyZ5IEZX0hcxmqZYWHNz4Gkr79kX54EHootK9lDe+vR3t23Ygk+lCxVGj0FVcYnWKIFo9uHo1apubcdpZZ7je3LLmhVW9rUpRW8xvAiBY8iAYG0Mz37dzN/7OTorvQlrRu1Rjs8aMTAo7d2H/+g1IFhWh/qhRKD7yCN67VGsb9qxdi86WZtT074eqCROQRkpkD+XuXQJPtDTi9QULcJkRxeCAtKBQzRBiotbbOtNOFEPQq14zkjfagUlPA6CiWFOKTQwOewqotBmHzt13lILczFDkMr8wNujU0uAQb9GqSrj0s7u+zzkXRk+cgFfWrsMZZ56JXDaDJx9bhEknHo9nl6/AzFkzMXvObNzxjTswdMgQkCPz7LmzcfjAIWx9Yysu+K8L8ct7foXTTzsNS5cuRTKZQDqTwYsrX8Stt92KVatWYgub0DJAcQoXX3YZnl3+LDZu3IjBQ4Zg+649+OhHP8omTCsQkKSgKELXIMQFCHwOFPg1OonmF6wSdL6i80Flwg+0trOJTOBpexVUHZy4Pgr0rpQLQiUnnNlJ4/z/U733SoAwcfYpzNjVIy6uppSLBxDILstC33t6A8+cAgjCb8ENb1QfUDOXffKzqDv9dDQVC4Gpj0yFAVWnM6D65B3JJBqKRHggzagim0FVOo10AmgsKuFwLgF31EEUqojibBqb5i3Aop98PzQEKA7zKER7oNp9atly/OAfD6DqWKrwlgTF0+uOm84e5ZKs6RC52YRAFH+joDsK6eQZ8s9V9jVa3zTlVaA/9+/HWUcPx6Ux8yDEmbcXIHSgncs9Bz9R5gYfeNSdFCMGpJOf5+8yRHDposXYfvgwKo4cxM5sbl8yw50wIMi1dbUd6obKQjKXYIbMxcY8Nk4lrIDWXbswpLoac04h51Fx+w8K2xPSQVuzArQMTNs5cBKoB+c/iv5jR8ts+IrqXRZOoFFkzfDmcmBzoiy/TfPl4GDHu1yrsUB9dXagceNGXHblFR5nLj5hutZW268g1uBEKyiAoKVajqY/L0AQJgZ3LZMJ8kFIOtUco9vr3htmKmRdcOqAQaVCdn5PgpJTgGfx07vuwtTjj0PNwCM42VZ1XR3v184d21nd37e2Du3t7agmH6NcFrt37kIimWRzQaazE53pLs6j0NbSirb2NlRXVWH3rl2o61vLEQqpZAoH9u1F48FDqK/vi89eez2+c9edGDxkMPbu24empiYMGjQY5RUVzt6qnAYOf9YAgrmvfgkivtLnH+R3wC/Gck50AYLwQUhwHoSDbQIg8JgigKDXD8ELENzxUbKkLL579RVY03tMDANx1e13YOLsUyFwtdzAbgEEkbynpwACjejGW76I1/cdwKijjsbBQwdRVVmOPuV9QEVBXX2DuCXreJIOEYUJ8nCcMYksXspRJt3ZhX379qG+f3+sW70Gj/zpd5HVvkKFnt99Iy9Os3vPbnz7B3djxknTcGT/vnhs8ZN413nvEPPkA5ORyWBc7kuHQGiAVKIR5fbkJvsRu5vEvX+6Dxde8G7c/7f7cfKcWTjvXfHCHONOgkknkcSh1miAEIEeTDcYjgpwohiiBhSg3lY326aDhzDv4XmYMXMGNqxfj2NHH4PqKmKEsqwvczc3mZDDENWthIWPMFOZN8TDhxvx2qYtOOqY0Vi27Bmc9453oLKvrBQZlWo0D4Cge5OzcGVCEHRCWTj/9Mc/YtrUKWg4eIht2sOHDReJYZIqHY2bGdI9rxpblxyf/xAhAc7/n1q6FJMmH8dr17++DlNmztKESHB6abGsEXkNVLlnruboJrsJ2nIhtLw3XD9AgAQI8Z0Jo0jM4ZdSmCnpJyyUYXoDt2UPeJXrwqc2l8MffvdbTJlyIo4ZO05cAUhlridH00xWqh3dOVDsJOWxcKjX46iXy2ax4eWX8eQTi5HJZTBy2HD2cUiVUnXJgPFrA5YXbC1cPHrFvPd9ldwq4CIRCyBoa8nvyygGSpQUkjXRWRFrciSxsMpvQdCSyJ/TawECaRAUSeSlQeDq3iqKgWxVKrtfSA56jY7CTAx8A0gk0NbUjA9e8SH84de/wOKlT2Li+LEYNWKEIyr5Bsf/co4E9xDkgCRzDTIx7dmzD48+uhBFqRJsef0N3HTT9VZ1cTTpS3Alb3Bx3/e/l8Of/3o/Ml1deM8F5+HeP/0Zn/j4x0RZVTkjpQb33krEv/g2qIrFaGtAc6b53va1b+Haqz+BW2//Cr50263sAd2TD2tPkt0FCK66teAoBrk4PncSaX6gNSQnr/b2NnR2tGPalCmoJyGeEAXIXBYvaCpIF+L6oMtVpCI0Bw7g+edXI5kqYY/yyccdL8wYRM9RWgEJEGJFNVjCCcXQRV9003xl7VoMGzYUZSXFmDBhHGE3d6D6OTRVcwYnd+efQCKbwL1//CNmzJiFF15YjVlzZ6OsD+VJMB6pMXF+KserbvbO2ZfpQPUwzXYqFdzR5SRKCqZRpZF5CwGCJ5Op4gPxAII+L0XrdPGh2fAtvyjlZHZlWqa1YuWgmw3W04Zp6RBqK5c5GVwxm80wryEAWFxSIkwJLFjjjV+3IAWdEX18by5AEFEMFOZ4qI3CHN1zaxuba1awU5eiRwEQhPPn2wCBL4D2rTZRumKihHb7lZehpowAgrstcZLhRPkgqEPzg7vuQllZGYYPH4rJkyb0UDXHBPbt2Yd7/3AfO2Cdc+ZZOGr00bEKTgUxLEsASKT89aras6w2vOHWL+DaT38Cjz62EFd//GMhcCeyefkCHc0kvvTlr6KlsZXjoC84/90Fa0tEa3YmInwQCtMg2MwOBUUxBCyLSslN+9TW3ISVK1agvaMNZ5x6CgOEmL5moYtOxZoWP7kUJcWlmDJ9OkqrKsRKhToXup7dscCBBKKusBVMXWkV6AST9mzBIw+jvLQEI0cMwfiJ44MLR8Uko0RWCOLf/f73OOKIwaip6Yujx40Jn1tE2+pSKjKeCpVwW1eabclZmVsi2hYtOhFuLyrhsupYCNyqkiLOg6DCsOO2GbU0LPQky3Qv2ObZCOCpUk8l+pBgVGqnVBp1FW1Fb4jLENDe1iYMQ9xhOIg1x19UXMJ+J/k+QdmO1YVFzdDVbfr1EPqlRsgPkfsgDFzE3SdhYkjiMJkY2inMkTQubtZcZ75hiZEYXItRiguqCL3Mcur+HO7sdSaGL4tyzyo5MW+aDyB4CzbphCUOR+EAQfBN72FKGepC2qjOtjbc/tWvcVGdd513bo8ABOp1z659+NS1N+DkOXNx6SUfRFFJabcAQiH+B36vfWDRosX4w1/u4yqDPQkQPvm/1zL/vPPb38pLNWgyk38JQBCn1KGP2CYGnUNpA2fBK9sUHCCL9evW4blnl+PiD7yPqzkWHhfvdkQA4Y9/ug9Tp52E0ePGy0IPZo0IbWAm543SMuiboUVp6AxQ+Qrv3bkDjy6Yj1PmzuwxgEDr+KO778agwcNwwolTUFVXF8rg8xFE6kJATopci0FPPhUkobQOhAFO+OQoAEs/o79XlaQEQJD8Jq7gyWf8LMRZo2DWtY0DECRMkJpTVhTIlVWZUIlAiTyWLV2K/v3qhUIqKupKizxtbm5GsrgEx44dh6Li/Oo0hC2/ml2YoHc01HJeCgyGZVB0BHXgJoiU2ephJ8WOThxsKwAgcDtCx+HShnBSJOVXrwQIV37525g462Q+QBxBwAmubNtsBwk9ARDU5qqDawIEwcuzeOjhhzF/4aP4wk3X9whAIFC0Y8duXH/Ll3Ddp/8Xx44f2y0HxThn1Ufnmoe/TuZE9Z/53A0YP3Y0PnH1x7Rs7HGOoO00UfbDJK742Mdx87XXYfiI4QVpD8TxESrsIA1RHA1CkINimNbJBxBsQECptQ31uzf0UQIPSlt76BCeXvIUzj7rdKFBiGK2EdKCxr9/70EsfGwRZp98Mqpq60TJZ4GE3a/zzKgY2q3KCqjtjariRdn+nlvxDIYOOgITJo3rMQ3CD398N8fGj5NFdtwcDPmKU/v7rWRi0DQI0YJC2rPl/imAQKdF+CqRD4LUILzJAEGJGVdqmXFZ5pz1My19qSzHXPlRkUn3kYcfxnnnnI1UUQAaDtiGV1/diGdfeBHDho3A9FkzrOmzg3YwCiBEmRh084LrL0bRAa6939Z3OJDzAwROtdzWISIPrOeZ0m/7RyvcEbQzqkxfrJkSmoRep0G48vY7MMGJYiB/ghATg4w00DeRb5K5HOoLNDF42pIH1woQKHRr7148/NCDeMc5Z2HEqBGOQjFfluQSagK7du3F7/7wZ3zyf64GOBtaFJkH91a49sBVTMo7BDO0Xbt24e8P/AMf/fCHxY9lTK71EEW5RUnvpa9+6w584eZbIurGB89RaQ6E+k2FE3rfjwYIro+Bg/zlgY0FEIrlIbaF0Gk2Ws+otFu57tCXzGSxbOkSHD95EurryMRQ+P5Tf5Toa9+evViz7lVMnzObC4dZ8xcEAASmhHw0CAFbpeZIFL3+5bUoKynCBDIxdLNt8j+g57f3/h6nn3U2+tSIEr3dTa9sTqPNUs0x6sbPHufCU1McF6lG4bXQAEK+/KK774uLg1dLapwY+U/3HXOuSnbR9Cgp8bz5j+B9F74bqSJ7+GHQmNe89Ao27D+IQ7v2oa60FHPPFOG3cZ6eBAjOKdOzJ5pskAYV4aioisE5fISiGCjVMqXppjoKAYDfmkGR/Aw8WE05K74NEBztATsrBvkghACEfn0o1TLFgzMpiwMa09FFba7+Pt8AtO+pxY7OTjz66AJU9inDwIH9nUPlxd/RpC6EnPDwJ4/zbTt3478vuij6w5A3CpUrYs7+k0E/pTwHl1z1EX82QMs4BAPR3XLMl0iaJ3H0qFG446tfKUh7oLcYVt0xGCD4gUE+i84ahD5lKKNbE084njDni4BBi47zYzaL51aswKZNlGNeBTYqGo7inMH9Hz16NE6cepIIa2RdsXxXCWhfqeP4jmGeNVNDMIaqAAKJj40bNmDlymfF/LRKdXo7QWdInmTnVc6mkQNq6/ritDPORHEpFVDr2Yfa08s9q70yhaaTQ0CFjjrDEKmleVy8LlQT0vVB6NnR2ltT26FOth0gBHOuMIBAoG/hvIfwX+89HylyKowiU2eICaxZuwGvUMbMkcOxbeEiDKmvx5TpJyEZI1W07bjpMzDpQDhGBydMot+Jmhh+CooCg4wdnAG5Vz6VB+FQeycoyjoIlwU5KOrVG6kPkQNBIBX6+50fp0RJj/8rSEjI0G5dWbs5zLoBA6E0CCp1bqEAoV4CBEGr0g7YLYBAtzGx8eK2muDyulu2bMaOnTtFeRlJV+JSI7xM3TutRnQyL4O4UUjbpFRrJZMpDBs2jP/fnUfcEvJvIQggOLzNDDwO6cItCmt7SeyMABL5jzOoRZujYpgGwQSNrpNd9KACfRD0TwP2wBMLzaGA5AUuaMuN6qWEWdo66RzRQsuOENDLw0pHMlaaKm9wGwaUjmjxmbtlB3SQpDQn8jUdIAgMKsCPyNdgWWvN+113tNXZt2hGLDBD0aQRgthD3EwBhIYOZUe2b6rg27bfeWtP5BL/GoDAqxoa5myuewhA0Pibfm6FBgFYMO8hXHTh+UKDEH10JFUksHrtBrza3IrSUUcj0dWJ/c8sx5G1NZh0/GSUUBRDGH+xLLVdvItGdJCkmhW+bi5wKBQg+LfdPbfkpMgAwZL/gDQHwtnebmYQEUAuntdrQ9BcRaKktwGClUxUMiP9l3wbJxNDgQAhqLATt6s5K5qEqEczMxLVBuXiSfeHJk8UcCL2yYqUqN3XIOhHKrI76/XbY9EAACAASURBVAu6t7P/hQLQS8QwhJ3X0lNkFIPQJHhuCVZfDG/bxPbrystQynZXxTYN277N7GAOUVezq/c9QlwxG+UlHhGBYLbPmZfcEearSYvcfXmj8V28mPDl2KW2QOSlUMWApEA1tSnaWPl1jVQYcjvZHd2RWampwNTK/vkmQD4IDR1kR3YpzOdk6oghMRqXnuQ3cp4ibDDrRDFErm+BLwTxAC9u8v6LVOBCu+Dum0Y5npGI6w+lQcthwbxHcNF7312ABmE9Xtq3H6mhw7lGR7KpkSu/Dq6vw0kzyCch+AnSIJjf2HCi+pnOLwrWIHgqLCrAIVaH/kvRLwfbupCV59yujQgCCGL+aaEoc3P6yGWhMMdeAxBqBxyBq758BybMOpkJjwicblC6al/nFiIpkSRkTbYSwdaXlaC6TNQNV48Tk22lOVfk2xioWbTJBAhxsLh/LAWe/Bif8REvQAa7GgRmzTF6sr+iEqSoVkLuXAX3oX/ImgOtvrv+O6VBaMtmg22vLLSkpolSm8bQNnlMDEIiiBubUuPTz+KUGtZv20qYSy2T63wpRqdrSII0L06IG40nxMZvY5xq3aifcFct8WaUM6BpTvHRpOLyuvnOQnb6WPX5Oe3r6ywLBDmueDFNPzyhAFDR2pVBQ3uHzPXoNVc6mgO1Z8qFl8lBTEZgJSEwWEuUIIAgohjejMd2cu38IAguuC2EqdeZTwOY/8jD+G8CCMX5+SC88vIGPP3sSmRKhGmIUopnOzqQbu3EyWeejgFHHhnIhmzbass1E0bnLhTSzA+mk2JkgiRxy1c8zj059LckGto7OQ8CZTkNHkuwBoHmmZagWJQXkACUNQiX955aDDpA4LOqAQTnsLNdWzKnIICQAOpLiy0AIUzgBQMEhiHyRqkOC29RDCHijtVL53l8WjD/KAQk+MflXTMzKZJ3cCJZilXJSmqywvFG5BpElXumPAgd2Sx7EtseMW4x8mRgRgXvl6lEDrVlZSAez4BCcP/IsQb1z22IPMsOsfBtWV0dtKE7PgsBvemOjwUNKI+PlHmEPwmL1lBtWtbJNLmEdh8BuhyAptYyjz3h6BJjC+mfpEGgm6A0ADlp2J0pGX2I26i7YSxIOU20yi+RQ3Vp8k0DCLb1i6NV9MMFQ7PmazhHVTEwf95D7KSYzBMgqDwW1CwvOw0yCzz04HwMGjECw0aOCuQbcQFCFCkrSKNf+pTTYBzfAyWN3PG4LdHqUKKkg20dMieGfTRBZZ6FS0QCaZVwTpocOJ8CAYRP9KJUy7UDRKplimJQtMIaBCmg+YcaQBDMXGBAne+n3lSAoNLCiloNcR8dqfI04n8atwvfe4UkSZIXca0t20CVctE/NHsYT8FTiPUhCYQw5qeKNXVQtrcQhwd2HJTFo8K9vMWwSFNVU16GMmVfottnHI1B2KzEVdN5Q93QBf5QJZ+EBLNpzzzaAz4gPUho4qocTLw2gGTr37ZG+tqZ3wQBCh6OV5ozZZqltQMcMWMRlxRcrTIPArQ8COp7a4iaBSCw8JUXQLpb/jsCBO+aCNoJF5ICIMyTACFfDYJ9DxJ46MF5GDJsJAaPHOXh7eyyIojfisULKZftAwhKgxCpOfCO3uukKM6KyIOQ4TDHoLEFOyiKtecqkJqmjbPTyn/3qjBHAgjkpEjFmpi35WSYo2SY/IcB78U/pbCWvJBTLZcVcxSDxzyhmKrDM+1bZlMvkyMJO1SJIyM9kl11mlOqU46FushmMkiS45Qcv658e9MBgjxI+YgHjxeEEzJoVB7jBoXi1C3NpOOJwm7QcZm17T0BvoJju2mXlQZBhZwF9RfHtKC+JSZfV16KUkKkjviOPxOFVQTDC9kp3Y9Bu+K59Tw0lbcSvoqLSnr1qXXyBQ7mGKTgdNbL8LXw5HnQloTq2MeiSR0oBWglmElanPB88FVptfKsS6Iqh5DjGqVapptgzgAIQcJT1yAI7ZI6MypGSFZzLNWrzsSnnULeLOjCEEMpRnyNMmSSD0JRXk6KAbPIJfDgg49g8PBRGDJylEf1qlukekqDoOiRhbE6KPmAA9+78jqYy3KpuiYNIFjzrSifGjmQnKZq5ZwM6ufsZCwAeu8FCF/6FvsgENGJNJ5aTQa+4XmFulg79zZP/6YLXd9yCnP0Zuay82C/QDOFhDAxuDc2Fv5auIeuHVD8m4TH3/52P6ZNOwlDhg5xTkIUMFChOPrR0RlqXIQcR51oHk8COa+8/DIXnhp11CgnwkA/iDS+N954A60tLRh97LFIptxcDbqKzn/0nWMYm7cpwalHFuh/t+DFgAtJEge53DMlvk1aM9fFAwaulZE6IlzATopUrFItkhS8mhx3x6Ru4Jo9OtZiyBu0x7dB/zBYoePiac1uKY5MdJlmKxhTtlb9KseY0ThHFgDCaxJHw6KDA2rb8C9w3dE1w69cUzEUORZtL5yfq0qZGtMNNgvJhaVUy1TuubOLU6AHPX6wYL4rxY+0Y6hyz3ajXCzKyOul2OfF06o5B0HZYokF6CGe8Oj8h3GRzIPQ/StCAg89NA+Dh43EUNIgSB8Ok/fZAEI4D7JzJZcziTTLfr4YMaMggIAsMkiguSPDmRTJj8DD//kMKWHv9qEDBCZ/CVrEGzmOhuBdyOXw/U9e1XuqObIGQQIEAkpUBlgIXwkDLABBbaZel6Eol2WAUFVGaYrVo7LHRZ+pQGGRTiNLpZo7OtGnsgJtneS0lENZeTmrm5ub21CUSnGNBtIeHDp4CDW1NbzBqUQKzc1NqKiqRKq4xL1vklY6nUZ7SxNKiovR3plGTU0N0l1daG1tRVVVFRJJDqLkJ8qOX8gtQTkm0pgfeeBB1NXW4uRT5opsXXxjUs53wi935XPPoeHAQZxy+mlaelRV3lmgXEezI9WqrH2RJz2rnxIO65POW9L+SwxHlPwVVfH0zOjcrixpHL2T4g3S4DS0tIOcFIM0CNEAQR1uYo5CF0S7QnkQOIohZtVDNhnYZIxTFMmbf0B3AgwECEELEXVb150ppSA2nQot3DKWPLONNcqh0SuXNACjiirJ0tj0nr8tQRgeHwIdpGj7o2s3HF8NY6JmRIsq1pSWmxcUHhtGk0JdLEQqlU+mTIp9Sql0taRTeVbi0nUh7xVycXA4qE9OKoCQw/x583DRey9AUZ6ZFIPm8OCD8zB4+AgMG0EmBgqHFZVK+TyHyOueBghxfBC872jXxZwACE2daRxsJRODDsolvTplyzUaUFpxuTjUvuJcyodFCbY7P3EV1ix5ohBSKOgb68WnoJYK+IgAwhUMEOZKZEomBpeb8qG0aBDYNqvMEDLMsR8BhFI9isFAbyHjswmLTCaDJxbMw+LHF6GspAS7du/GkYMHo621FVdceTk2btyI51e9gLa2Nlz43gtR37cfvvn1b+L2r9yGRx99DBte24jBgwbzd7fcfDPKq6pYALa3tuC+P/6J66KvW/MSbrr1FlRUVOBPf/wTSsvK8dKaNfju976D2r71jDb1OFhzCoWAA2a2cu2ymTTm/fMf2H9gP4pKS3H85OMwdsIE7Ni+A8tXLEdpcTHmzJ6NzVs249BBAghn4NFHHuH67AcbGjB9+kk4Ysgg7Hh9K1atfB6VlZWYOXM62jo68MKqF9Da3oHjjj8eQ0YMJ/sLNm/ajOUrVqBvdQ0am5tx3nnvxMqVq7B9+3ZMnTIFx4w5FokU2d/cmeo1OuKSGNsB2zpCAUJYW2J5NIQvhQQ7KZaXs5OiEjR87Lujvhcb4oYlqrLJ+d74ldZBm5h5uD10bhSoMeegbm8ieabllmUKWEOYO7c0U5OhvjO1BkZ7PmAVMI5AzUgczYXepz5HKveczrCTotIgCJrQrh8xHSGVWY5OMqdaLiYO565n1AUgLs0Hvefm2Mi/JSEIxZxJ27hrx04cOHSQAf7WLZswevQxSArkFti4Ep+KFjnxjwGYybS8aeMWVNXVoLymloOXRwwfjorqqkiAQC/E1bKqHVTdZ6XjnxaOEOF/YfpnaOCARyqSah/uSLOTImUxVXxEOBm7SY/0Bcvw+unma9WPSCev78Odn7wSa5Ysyn8zC/ziLQcIl9/2TSfMkY6OHtYV7IPgOmMRfdKds55NDF6AwCqxKB2/JjD1NSThuWThQpSXlmLO3Dm49JLL8bvf/xZ//fNfMHT4UBx99FHY+OpGvP76FtT3749TzjwT37jtdlz50Q9jwYIFmDFtGsZMGI8//f6PmDZzFkYecwzftPfu2oVH/vlP/PdF/4U//+73GH/88ejo6ERDQwMu/K8L8ehDD2P/4Qa875JL5UGyXD95zt17aF1ojg/ffz9amptw+hmn4wu33obP3XAtHlv4OI4/4Xi0trVhydPLce7ZZ6KxoYHTot5+8634r/f/N7q6OnD//X/HjTfdhLu+8z2ceeYZ2LZtG7a88Qbec+F78Otf/hqXXnk5Rh0zms0Shw7sw1/u+wvOOO1UvPDsSqQJSaeSqK6qxuzZs/CTn/wMF73vfRhx9NEe87mqHmedrWYG0lE93UBcgBCsIg5aQZdkSAXparRozcnEQJkUddW5ALJua/pYgjwlPO8Y83DYsjMQpeJ1Hbb0RdIvILrLjqJ9x0yjwIjhiCZkn3+dHJ+HGADBkftSkJoAwSOLVXeGZonnwbVYovdMrb8IJfTEnLnVEvMFCdogW9PCB4EiE2wsxGsGkwO3EJS4ASZFmGNxEapKipX+TJj0PFC0e2c68OsC+YW7rsQrMlj90ho0JJIora7lvA4eG76aSzaHzs4O1qrqD52dzs5OpMhEmSpinq1WTTjjJtlUTDyyaddujBs+jC9kEcp+KZbjr5sj0nMkzKX4zsf/QA5aaDlNLiwAQiMBBAKX2rAYIDjQ0Dsrh0xZ1QVkybnaqZQpD4s0T9xJJoZepUH44jcxXmoQPABBMU1dg6AInVWlgolwaCSkiYEBglj8GLjAQ1UmkKADsfSxx1BeVoqZc+bgykuvwK9+/2v8/b6/YejQQXj8iUWYM2MW9u7bi5rqapxMAOFLX8YVH/kQA4RZ02fg6PFj8c/7/opxk4/D6LGiJG17WyvmP/AAdm3fgeJkAhddejFWr3oRjS3NePeF78HSBY/i9R07cfFVVzp12E3y747a0J1njg/9ggceQm1tNeaeMhef/cw1OOPM0/H6pi2YPWcWC/adO/egurYajYcbMPeMM/Ct276MT157Depqa/CxD38Et9xyM3581w9x6ZWX8dVg/cbXMH7yRDz5xGJc8dGPAOyzADQeOIC//fk+TJs2BS+uWoXaunoGRSdOm4pJx03CvAcfZvPGOee905NAyicqAuovmAJIAQTXRU4xesmYlDQS1OJ87qUD/V3BDurKy1FGoez6GZcwW3d4Ug2aTrPxWZn3zVDVp5HkSRdehfZnfmf2H6iNsOyPbexCsLtPkJAPE3pq22x+DgQylFNjvmtA42pNZ9gHIaaiQAg7D02JXpXigwRiVWkxKotNJ0W1DlJXaNBVHAEZZ36FaBv1fctms3hx7To09O2Lkv4D/F3msug4cABNW7aBCnQdMXEcEqQBSABdzc04vGEzcu1tSKSKUDF0CMqPGMBVRnXHZ1oJMhe3bdyIY/vW44jBg9zLfYi5IR+Q5Yh0WYNBrW8c04L/TJjcSQGEDA5RLQaPe66A/Xo4pfcMEf0YuUgswOXOT3+ol2kQvvgNjJ85l2/6VD+e/hSOm3LxzTBHJzGNOFgkLMk2XMeZFMlJMf80y7ZbXi6TwVNPPIHS0lLMnjMbl19+JX77u1/j/r/8DcOHDMZv7/0d3nHuO7F+w3rUVlXhfZdcgju++S1cddUVWLBgIabPmI5jx43D3//yV0ycOBFLlj+LIYMHYdbM6fjrH/6ILZs3oaKyEh//9KewY+s2PDJ/PsaOH4f7//IXfOMb30D9kUcGZlosCCCYQoQwaiaD+Q89zH4Tc0+eg2s/ey3e8653Yf36V3H+Beejuq4W6Rzw6rqX8cbmTTj3gvPxnS9/FVdfcw3a29txx9e+hltv+zzuvON7+OwNn0NRaTlSRUXYvHULlix+Cld9+EN45ZVXMXLUKJQWF+GRfz6AdGc7hg8bhnGTJ+Mvf/4rxk8Yj2knTcV3v/1dnHnOORg3YZKIPZfhh3GYn+/gSg1CO+VB8B1SW4tKjWrXOKlcEAR1asvKUZbKCgQquYtXY+BtP44GK84cQwW0tQFXPRyn/djv6G7luoCXPw/SRriObuKjSJs+0Wu0IkEIYd3fQI7J0UKwBjxPMUtOil0EEDr5Rpj391JDo2twaCoMEIps6FIpchUgfXNMEPmaG3SgSZeJF9e+jIP19Sjp59ahUTAo2d6K3c89j/7DhyJRXQNUVgBFRSzwdz73PI7oPxDZuiqyseLgpq3oN3kCspVkQvBuMhWCat9AAKEOAwcPkrRigmU/tcYxM/gMAgFVHHUfqOBzYaT5lnCQ6KWpI82plol3+kGFHKl5PGWhJgF2XD5EwEw99Lvvf/rDeGlpbzEx9B+Iy774dYyfMZfXoIiZggAIwr/D64PAG8yLTl5r4QDBxoSCNjuIiWc6O/iT4pIyvu3W1dWio7UFxUUpdk7ctm07BgwYgObmFlT3rUVnWztKy8tZlVZSXIqiomJ0trehqKgILW2t6FNWjlRxCu1NTUh3pdnc8JN77sG3v/ddtLe24sCBQxg06EgkUin2XA168gMIwYyWNQgLHkVNTTVmz5qOW275Av7301ez/8Bf7/sb0pks/ueT/4OJ48fju9/9Hi5873twzw9/hIMtbcglE/j8jTdg1DFHYcmixfjl7+5FMlmEb37j6zjc3ISnlz6NSy+7BP/72etw6Qfej+OPm4xf/fwerFj2DMpKy3Di1CkMQu78wQ+x9Y1teOc5Z+MDl3xQxgD7BUhsAcZqyiQOt1MUgxLtLEZCmvAKgSB6oB2pIYCQpHzqji+np11z1/S23oybfT7r0mPvSnWnp70A4BDWp3KWVZ96zS4x0YFhLnHOvTQ9FKRFkD4ITR2kJnbBY3fWjwFCSTHKi8zqIUpsee/BKgAvT2gTOsTumCUz6QzWMEDoh+J+/RQMk3/mkDrUgL0bNmHASccj09qObDbD/LyjuRmdO3ajZtIEpItKUIQM9q9ei/r6emSGCACgP0UUYvraRozuW4cjpQZBWq1cQWlZlEIAAq2xLYpBWKzCV96eX4WcCyVAoCgGy27Yqzgqf+6kGI+jLXHzH9BZoVpAP/jMR/DS0sXdIcW8vlXQNa+PeurlWgIIX/g6axDoYYCgYhjCTAyCCzhmBkKpSoOgKy6D6izo4w++8QgPfpHtX+Xud78UYEUW3OGsVzqwkRvOP/MiwPaWVjy+8FFkOruwb99eTJ58PKZRXXSpclXsI6ygUT4AwbnFGEfacZ5xpkRpidnjTqhFs1nOKaFMOSInRBZf+8IX8elrrkFlba0EaWLeqggJRSzQ2nCCNPoFu+OStiKL1zdtRCuBo440Vqxchas//SmWsnQohB1f/J9tdcpBSpcTplpfl/s6JbMGgaIYlFpPvBiMueIBBJpTdRmFOVLqXLFw3K2Fl5hObTwCR4i6fg09dZb+09vxmBgUrcZVIThheC6RC3uv67sRtD4eGCKdyOjsUTVHMjGwJ7rFdJDveguAUITyIjMHqBqBn4hYgOXbUYz3VY/xIRhATturX3oZB/vWo6S/X4OAffuxd8vrGHriZDS8vAGZ5ia0NDSgdGB/9CktQ+mY0cix7wFwaN0rKC8pQ8kxI/0aBDYxbMDovvUYNNQPILob6qhrETjngA0IGA685pK6ToPGCrJfA/kgZJxUy/q3QdkTmTdIXiWkjqZBkmNUpqof9j6A8DWMmzGH17GYkhNJRh9kYkiJmCUnxS+9Tqizb58SVHE1MGli8ISY2E+NjYkL7OFuvGl+UHJIP9ZqO3XiC+Jt9E6mqwvNjY3syFNa0cc5JI7neMQht+dYlwLL1jE5vshePN8m8mNANPYli57A9BkzUFRW7oxSgCWL2lgJUIrlzaSx5sUXsG3z6/zdjDmzMfDIQXJcXtW+8NxV83EXw2EOBCicQijGe7KCYWNrB9oyysQQjoPjMkoCbzXlpSgpyoVmcozBo99+5V+4AkK+S/W9Ml0ojutiCsFXpK6pgwFCGhTmGJc+PCDQmB8JxurSFMqKOQTGPTvObdGyIAY2EVkZe06nEGde/A6dKfJBeGkdGurrUVzfn0E8gye5YiXtbdi7Zi2KjuiPygH1aNy1B5079qB+7NE49NoWFNfWoHLoELQePoy2rdsxcMJ4ZNjE4H3IXNzxGgGEvqxBsD1RIEHxYa9ORoB5875BkQw+AKA7vQbRqSclhysN6EpJdHOIUy17hb3YO5vdwVvbQS65kz2SHbrl86PPfLR3aRAuvfWrDkAgDQLdWj1H0uODIMMgpcBjYU4AgTIplpeyCi8fH4RAVbJWxVGnD5PA6Hc6ecXNnCgEKoEcFys6hJujTIwuIcW2GwZUI9T76BGebFEvq1CcsPoILl4TWhl1TFT2On1sWgE935B5najSWai+NIHDrR1sYhA+CMGs0OsqF75C1CWlWn4bIPQIJf1LGwmygJjkrBRXSoOQobi82JoMV4C74WlimgoglBNAMLJw2pxbgxZHeN73HEiI2gQF/hkgsJNiPVL1/TkcXXjpi7GwVvPQATRv3YpkugudySJUjBqJkrpa5Bob0fHGG+hqbQOKi1A5eDAS/fojl0z5NCTF5IPw2gYcU1+PIwcdGTo8HSgojmkDAUKP6OcC4ht/0aQ4IMx9R29ZcDMFEEwTQyhAkFpTNVZeVQkIKeGSAxCu+RjW9h4TwwBceqvQINAyU6IkTx0GXiRXBKs0SrxYGs93EiV5ohii8XEUQNBlkHMDN0i2EIDAx0rV6GEVktCI0CFTxY+cW3nUCQ4I01QHtyfjrHW2RGPlMRrMM0grE2Ma7iuWWGnnl9QvrZMFIBCp8M9zEACBw4UEe84HCASNlUBdTZ8SrsUQTV15zfjtl9+qFXDzeTk3NhpKW1cajRTmqERLJEjQQlHlu7qgIUhMeRDKS0i0CuqxFYrSlyGOoBIi2pthUrXdEzBCRT+QieHFl9ehqaYWxf36i3B0N7CfKxdyf9ksO5szH0umZDVVGmEGyBGkSHH0QooPqs5VhbhO5brQ8tomHN1vAAYFaBAU//SslXY3N/m2ei8IPBAzVpwi9po7QltvlS4kSVGsqZ0cXN3HBAcc9ujQCZEeB446GiLlh0erwnkSZD6EH/U+gPBVjJs+h2Ng2UFRL9RkAgTjZq8EVIoyKZaJREmFaRBk4iVJKFyHwaKOMnCJL4ZZEWYkL5F0o9BisECKFkQ2kCOVqYLh9RDjZZamMT6Vn0D31BavdF90BsbBax7pau89vhparHFDm9AgiKf7Y1KtkAahXBVr6qG1fbuZt3gFNDWCEhBU7rmJfBDUVS4PEhImDec/PDniDVWlRSANQlLL8xCdijraj0IITO9JD6qymu9K87SliWHtCy9i4+bXUdqnDC2NTaitqTEucC4gp48oARIJTM60KlO+iZ9pyZJk6PrhxkaUlpQhS4nS0l2YNXsm+g4cGHp289EgqD0IAhX5V3NUa27RIEiAYOZB0LmxDhCYOuRlhleQfdccLs4+WuyjlsuBAcLTT+a7jQW/T7PrKRmS9yBq+w/AJZ//KsYTQEgQthTE49xCpapdnE2FWMVhc9RGDCpEsaZK1iCQh3m80+zxNUhQ0V//Y1ucIJWVJkPzXgv+Nqq4jFGC2i+QKVVyQV0HfqTI3wEIakFi5COINRItA5/n8HqKEPmp1Ka9UN8TLKA8CN4ohlijCX2J+qwpK0M5aYnffv6ProAQyG3pDIer5eMkqJvNzMURJoZilBWlGCAUEl0R93Zr9q3SmHdrw3I57Nq2HdvfeIMzqD7x2EJccP47kUoJrqnfeFU/Qrjo/xWmVXr4Dyl9iH8/Mn8BhgwdiWwmh337DmDSiScgQSGhIfwszB1D59say/ItgbNnZgrkGL4e4hXvAOlHpHlq4DBH2bpWf4F9N0wfFPZzkeui/Y72m+hP/Z/e+PFnP4aXehNAuPiWr2DCjLmg9CFCCEm6MTzxdGFuevETICeAoDQIBQEEUvLYsskZskmRg0m3MTFJ6Bm1RSfEnYtouPsAQfWnll+fZ35jcacarBGQUEsyCo9t1TlbgiDMqoBhYxGpllUthp5DTA5AeFuD0C1Z8+/+MZEemxg604XdnowwOaJVMjFUcpgjCT1/0alChX/c74QCX9VYEWciLI27bY8ob8qyJ5/CyJHDsWH9eryHAAJVc+yBZx4BhMEjsHnLVoyfOAm1/fvFXvsop8Wg4ekjz+gAISKKQW/PDHcUAIHyIJCTovs4Ic4BN3IHOAk2Lh82zDCgUMaYu6/9n94FEC4hgDB9jnBOdJIgCXJ2kajXUcgUpJQjX5gYpANQDGntD4G0AwRxkPwPERdrMnpA/jCYNlQVYQKQwwcLeBxlWJ5agEhgILUAYbciEcYoaxgERZhYUuNG9m1ZByfVMldzzH+DzD7V4WYnxbIy9kF4+/k/vAKcKEn5IPTMPOmWXFVcjPKSIqEhdTRk3jocsaVinsPyAgklGkW65DhaR8U70u0dXOCturoP3nP+u5DogXLPxM7mzVuA/Qca0W/gQEydPp3PbZxxOaLUYIleCWJfLF+iZBllEBd0KddHAVCUSSCBw51daGjr5Fw2blviMhQU6sjyyChrQV8IECeAApl1f9zrAMLNX8b4GRIgsP+BfWu1DAlOcI1i/YTOuZqjAghhXusW8KAUPEFpcZ2c3RqdxUgXH/sIK4AQVxgWChBoQCKrAz0hgjPMfKA+0w+kZiaIqzq1ahUMgBB3PcyFZg1CezuHOfYMQBCtsKPZ2wAhNl3/p75IpE3FmoSTYs88BBBIg9CnqIhzaLg5u/Ow5wAAIABJREFUMYw6Ht2oHxE1UteZ0XuI88m3kMzlsHL5cjQePID3XvhuJIq677FLLH/+vEfxxs7duOC970UyRdFo+QEE884khGv4I860+4ibuj+qIbgVaRbQnC2pXyrWRD5QlLBN7bNwgxRMU8kyUQ1CH4BhrmDfA6lBkOblu6/9eC/TIBBAmD6b7XLkmBFVqIU8BaRG2hFx5HfQt7zYKNZk2VZD8LlaBLExrvC0k4S+nTGUFIF0FeRrIEwsanbBZJkPstZbUbeAWJHd+loZfgI2EKDvW1yQ4CoS5MHQbXPOWkSxPf/v6Rg2tLajXcWsyUPpEIy0bATdFKzAhB0gKVFSKcrJYebt5//sCtA553LPhZoYbKwnRwChCH3ISdFzs9R0pQFHX9BjPGfFqE0Jonl1/6XvPdhf/kPxHObR2QyeeHQBaxBSRSkZli16zv9kiPLulJ6+T59qTDjuOOHYmKd2thCAoNZK8X1aGyp5rx5bdEjQ+rqZL5PCxEDVHLXV0DPOqCRenrZkUTi+0hjpwWnt2VyRy4EAwtplT0Vtc4/9Ploa9VhX/obYSVECBM5a6KMut6yz+lq/bQuByoob6YNAyNOvfjfNCRSlYD6u8AyecP7Eb2/LyPRgeSnchBBm1vCPMQQOBORO8AyoUFUJn/BoU0ihWoJQskwk0CjLPYvDGP541kyGn9q+YIBQWoqSt00MbyJXeOubJhNVhwUgxFc9++fAUQzFFOYoijWZNBnYtkzs5Jql5d8kyPUxTTpzHgmvnLrCz2OYMHRCAOW0CCQ8/OADGDl8qIyUUjdjcTvWgXhkzgZZwfD1rdtw4gknYuCgodpduzBaUDroKA2CAjSOPkVqEGy9xtl7XvoEAQRpYjD22Rva6NeU28wMjAtIGyI1CXdfdzXW9SaAcNlNZGKY5WfjZsIkfde4BKtbY4BNDBzFYBZCscXpCyhgasrVv20gQIGHwsjV/1UUQBCJkvJ/vDMLACf5qj6k70Deo4kBEN4UcMCnPoGmtg60cqETG2TSfprHUjOTL3sbIORNC/9pH1Athq40mjq9UQxxhETQVHWAEPSOrX0njJhRhT/fgcezWzXcTTNFoJZBjoH+OHBgPxfJs3nyu7lQ4mk9FLyorqlBqohSJUXCikiKoht3HkdbamiCv4i799lcksNjqVhT0DZwL0FZFfl3/kJQCiD8+HOf6GUA4eYvYcL02b4N993yjb3jXAWS91OKiTrNSVE1ZhNA4md+gKDQpP6niTAjqTLmC1GCvFCAIMYbbUAIFczCQGrcQtwcCLGmGOBLYB6yNwsgEKk0tXdotRi8qZzzqWWhz5eAaEVZKcreNjHEIoO34iUVAp2fcPCOlL5lgNCR5qJk6okrJGzzVk6KfUpkquUAoB4EEhwTQNTEdEBvAxR5bIquVXD+LkGC0GI6aow8WvW/Kjz4pRmFf919gBClPTDv72F1EkTwR9TCy5t+ThRromRJnODI+sTwczBAAmsRKMzxc1f3LhPDZTd/CeNPmmUso9+0wPkjWE655oEk/1XkoKorK0aF1P0qNZfn5i+LEOkdmao+U4uQ72XbASYB+QzsAtE5+jFIMPwc0vj1WnFq/HrSryD4YPp+6AlcVARCbC6gAQRnzlriD961Qhc3xiDIW4A1CBS6FGCPyVcrRLuknBRL3zYxxNiFt+YVUzNYyCgYIJCTYnuXAxDiggMzcZjqX2kQ+hSTU1+wsdIOEASfC/cfED2ZZzW2P5BloYL7czP7RYvNKJ4l1kJfEbNfFubBSxbYgSmftcSPMjbA+6noN2RGMYBClgBCZxqH27rYnyEQIoT2lYClRAS39aPrP9G7AMKlN92GcdNmSuL2+gZ4EhnJlVYAgTZbvU2Mu1YBBM0EpjIi6mSgNsxDkDqBep2K8+Ivzuh92o4A6pYoPIIsY41BaSXEBUKmUIw4VDqQErjdeGyLFTAa84Cbx94EY7EmVfBLSdYgtJOJobscTHIvARDIxFCG0kJVEAXP5+0Pe2IFFCjUQYT1pskmBkqU1OWE2nkuzNpgPELIPG/qgi1pp6K4CBUEEPJSf2uNyLu1rv90f6v52hjj0AWueUHQRZiTrMdyaNh+7vgXuKYDxbvi3LD9eygGynzTc05F+8pUweOXc4rSDMShE7VnYaxB1ygorbNHyxAAFnJIsQ9CU3sXl3uOjoqwaRP0XPP6KBP40fWfxNpnepOT4o1fdDQIVudBibYdz3/pm6D7zpEGoabU9UFQGxoUtqhKE9uISYF79iSNiVoV8xAaDqmi1zyVlReyT/4WmArZcVEwvuf6CBQNkqcvsXPrkYlU9HH680XYrhqFeC/HOcqFvcMahPYOdJAmIwIgROXDZ94l6YDWt5JNDIWNq6e/6onbck+P6d+5PaFh8z62EGZ6gzIpNpOJwT3Onlwl6uees6LxC/P2yuYpSpRU7C9pZhPSbrvBKN0rlN08I4xpHfWhqx4P0m6ovsJ+77nVG2iffQY0HJMvJg/PIOtqTgrVJOh7ZO5L0FhN12aul6Ou9YHggBNMMzho5FoMCVGjIsjUEFRuWmc6Br3+6PpP9WKAoCL0+aC5p01d2DwahQQFN2ZZpa40COSk6PDuMCfHAC7GxBITFJhNsHA2VYeSMGzqdI5vlWprs60olKz60r1izUMeyqjlAe+2mt8gfHf6BS5ij0kXAgidPZZqWTERzob3bwAQwvCJnr2tx5bz/1BDeiizDRwoym1LZxkgUC5FRzunrYOiiaBshOob+oTeoT2rkGGOvpz8QqLbV9m9Shu/NxwA8zDZkUD3aRK04kGqo1ATQ4BkVXH7hZCMB7w57QuEpv/T1nYhWljTF1zspUz3z36EkhNLvzVdgxC8NknWPJF5KhOwRiqUMkrrYlohiF8LDcKSQpa3oG/+tZpfY4i1/Qbgkhu/iHEnKRODe0iU8HJS/soDICJkVSQpYbQkkokcaspK+QCqFuiNfCL0dEySj3hzb/OWr5QAtR1eWydxVfoOGDFtGUJV5xf8WsM+xwR3U1zv42Ba0ofIxGNBx90GHgWRsvfO1dLehTY2MeSzm7INqZkxzzcxMKr3QU6K0cGT3ZyE8XnchLZhjPJfd9gLWPOeXa5IfEwjDAPiZGJo7lQAQfISkyAoPt1C/3Rp4ULjHu2nrkHI446t38zlNd1lJ6Id9/burnt0D+5J1s8xjdn5lv9ia0kDJ7rWRHtbFRuK3tZwWlG+UO64omcW3aeYlU+bIE0ZAhKq1NSyeJIWnMq+n5qTgD4i0iC0dKZZg9AVAqKIb/qwn6mZUP/WStfefSNpEHoZQPA7KcqLvBanL3wOvKWfFRImU0J5URJlMkuZJvL4ryYJ6vumgIGOqOOyN6Gy1IjJ6Viw6TBBKbQVmpZEnXTWLESMgHK7a56HMpRY3gok09BzHGgnwbGnWfNFmKulcSc5NzcbmFxX2yHI4zajH+a46x7FAGhI5GTWxWGOrmh1wIyRMEtNQexJcOvE9KjYTgl7x7LSMVLl1J059QQrdExmHqYXtYI99/uemEPPjSa6JSUTiXbaMyJxjn7OzRaIppgrKd8lixZRUUmfohSKU64bsZc2LGfNAATCFq++UgKGqNBdZQVdo26n3nPntmFN4uPiZuksKe/abEZVIMLPZQOd+D18UvzDhSvuESQ+qM6sMnWGOYu6/WnrFCSkLaSg2hbmIytjcypcK4dGD8+QFs2OrgxaujJIB/WtNCIWweStR6P9S3Z09w2fxtrlvQ0gTJvp2vcU6lYbKBeRUjAH2dZJU0BaBC4Z7cleJRrx74P4Cf1X/a0QmcYlj2XjYislRcg/orJC5usroAMfdaQVwEnJgahwJCJyPaJBXaRV1TUdH+iaA5dNeWGUalf3V1C1M6LZbow31ERivBr2ivIdcXbD1CB0R2J7aEYpI7s54JDPTf5i+kYqO7hVu6D8VC3rGtcjv9CZ8bkKYcyFKHUKHUs+3+lilr7zaBiCkI66dYYkHVNnSnesNp3y9LNtu7U72EDeKrlNubfekyquxuL38vKimQ+Es6F7ObH+W29Xva8tpJ4yWJwzxffcwyVwQzx4yG0oPs/fyZLQNmdJ24bKfvhWbsgNt2xkECWIL7zJoKjiokW/5GIz433ZttqbHGmWqA2vnpH/pblFiR6C18gWVXH3Df+LtcuX5kPW3XqXphxvF7vVjf3j2n79cckNX8TYaTNh8zMQdCyGKDIt2rm7o8qz1RDQPfo0kakfEnd0tBThHgDCBVD4PdifcGVwT6jfxSpQWWsxgnhtatRtDNyzqkGCmuq2d1O4hpFQvDkUluBIBXW8CSTcrSY9QlQTMLpviSnMXecz95YUJPDNNfW9Z/QpiEka8Hz+JSHMXzt3Ho9547YbyKLfRLrq1gZpH5uM0geAYjgcO7dhCx9zBHUPMGTtqhI5ffeGLl5VYMYHOgJMk46DouxJOWmr73NKPR7AfsKETzCQtfNo1ubE2AcxVOWNQmZIvyeJPi6zYiOvk/aC81eBivh/+nTV9/75CC2QAkf+tfBHONx942ewrjcBhItv+CKHOfYMQHA5jXOgWfPgPiTaHb2B76D+5wAEvaiV6bwpCFiQW6SQMMGChXm59kRXYxLJefJ8IS5A4DnlCWn59X9DIaTPw/QgD/MoZ3uscSu0LXecvdffCdMshLUV2IYEIFEai39XjYJnTZXkVILQoEGTxkRF5+CbvH5G8zwqsV9XDqtcP0HyAlO0Ru2N0xnxhQCNgA3EZp0spuLClOeRFd8EaiCCAQJFDcR/RDih2CVvmy7A8TMPn++C0SFHyWk/YxBgyWOhz4+1gXo7jjbEu3K9ECB8AWOnznQW1Jvox8VhNg0CMSa7JkDl5VK3bNWOuPurxy+UgoKevBRA36VsFB9WBVExloIllTlXl6jDhKudsbuDVz4JvkMlCVTXh+QjxIMElu3QB2qGbCg9D1nv2aK8GEd8FmN9MyBRVmCrtpu8ZOhxhLb91u7vLVAbIV8Nu+GarYXto7hIFSIS8l/3twT8WfZX3NrFnB2/JFmNL4jfFAri46ySalvtgsMBOfor/AndW/3ioVT7cr/tOy4BQgH0EORH4Y7P3yPlHsjvIbCtrpPuyuhaAe8V09K6/jKtr/BidF5094JhGv9cmEOU2VxE5AWdGBfAJPCTG6/pPRqEmn79cfH1t2Ls1BnyXq9pADw3WXH8TJs9OSd6bs++vcsqb0fHWc0BIIFOBxEmBi1Bk9mdLwrAsuOFCln6TgdPMrGnb008N8/AOeoD80tO/onnQHdTcxDTwcM3kkJkjNZIIZ/nx1wM4Kj/M2bnNnooRDsQZ9xRACFOG54phpghbO/F0WjkNQa51zGXOq+mfWdbgSgdoNq0CCafchzeCsjAZpzBQu7hAqw5/2F+KbhpyGOEPDLd6GeYPmaZ6m/FLtQFKCkAI4RoERQg846BpES+pSjYMdPTjHcWUVoW9Sm5q7LxWV6uvOtG5gLbLUXL85CQnmy2hSKfiEQCP7nps70PIIzXNAiCbPXKjprHOBOlplWgegyaGt1v5nLt9MrmpECG/p33qESxGwpksTyavljY4exX1oIBguaPoR9vNy2SOLUBpkIesNu3OUd3rLotVM2y0DE7qxQXIEQtfRSLj21/jGqosN/na/oIWt9/FUDw0kT8OQcxzHzoJOiWGsWMzVG+VeYJ58RoNKs773kAksOYLKVCNeHtuMjb1PkhKv6onXMjDaRzoubMF2ZiUqasqPbV7713YMfIKwGJRBV5blgYPQgBbAIEAiJxg4LdmTFo4oXySxEl8J3zaiyIpitwgIbbHvFdAQ68mgi3L4+pQYuKsa37T27qhRqEcVNcEwPnouJNF8tOsQlCmHtxrxD0YjMdU4O2orz8HuIRRKNMDMEyK1xKUSvem7zWaUKZKNyxmZucDxPVvxVZIf3YXxf65rhU4g+9HS+g8JO87mDj/rZw/Xzc+Toq0AJBgs+GF5er9eB7+WZgprLCtodsxvrv9JjyoG/iTsMWn55vm0Ex7vm0Y7bB204awTyvmcEOXnFXpPD3dJql8SsBaWZwVaJAZ0c6vcYBReLSoUUM5Dns4LBH7XKgRySI6wZz2GDlt3cQ7jzERUWflx6gnq9DQuD6cHy3aRYmbUVSqPnzfdhZUXNe1L7n8SvzSiBAEHNWwEoGwPIqUlSE27ZoQNFJhv019Ec4L5LDpfn89GYCCE/nO7OC33dhXsFNFP4hmxg+93kQQHCEEWvi9E1PyZuvQQjS3i9EcQBi5AXWV9kVj3bBFal8c0MpE8oFKOnTFoT7BBRAuG5UkmexHfnCNmyLus/WlSccy/8CswTL4Yor6E1qiBvKWTgEET0WtqqF067ty3znYAN0ehy6+r3JoM3vBNXaV8CleHedzHc94bCx6tZ5Zy/2WLQaCJ61T8LGGzTnntqpN5tOzJwE+rhN+tDHEpW3QJ0jdW0qZD2CBK0O7OKAlaC+FduwaTG98f35nRS7al5ZTpQWQQnZBDJSHhQyF9s3PpoJAR/CzCASZXnbUsAjxyYQAfiiTRlmToaf3vxZrFvRmwDCdZ/HuKkzlFFLagN0MEBlnQWO9T0SJIQyJf7WDxIEdjAJNdxJUbSk4Ijyb1Bmj6QTIhZ2eL1ajZjHPMB86YQ5cmyapuiKyQXtF1j7La5QgCAgmlhnfVjmyufHMvzrFnPKMRe8sNfynYMJnkwhIfVjcu3cGXq/ixItbq4PNau4/QSBIHOt3fH4x6LPwW0v6j6r6KVnd7VnW7PTiH9tXarQ6cMci3JYc7/339108BhFobpw8vglWT4krhf1jmCXIRUltQlFAwTBFeI8UYoA8XvJt2WTDBCMD2PtvUVDY3VQ5LbtLar9c0Awv6YusPRbCqukSy+kr4TSL8n2LOVj9AtC7wMI134eY6dMd2iFFk6/DbtCzLshgqAFePAjcwEmxDvGscxRambzXuWyzrA8CNya8i9wTB5ig7nQVIh9rVsCVoZqetfFO2uPD5HHlibnVoCPVJwDHA6G/EzAvGXwPsU6veGjydO02d2pufSqtxRjHmF0EOVEqH4fx9nPZPi2foPac06D7rGuzdMmfMxv9GUJ61uB9DBxUchNMGiD31I68SMrCf4iaNuyD7HWRPVnW9wwtC6Hw69obXggi5Rr/DN22pd5arSXPLZ12aYQduG80lwNoaq3HC6y6/M46D/6BVJOWPNFyLEfQNgB1cMxxXvqbT+cVW3pmmsvaPD2RZyb5kxaZwUIhE+Ccwa1Hq0hkXJRfvr5a3uRBqG+Pz543S0Yc+J0N+kPi1uxNcHMVDgxJhIidyK/qzMwCPW/jZEmyKeBIwJInvuhRbxESZ4EvtKpUuoXAhxk8rHPmgdEZJE0gZMxdgcAeL1lY/oH+jhUPHwfztis+ydRuud3MQRrpETviQFHdhLwQh7jN53CwoR93N8FOfxFTScKkCgm6TslIdELUQ6Mnt+HZB/kvjV7rppLnJtu6Lz/negkj7HwWjiauPgEp+4K/j3UVilgHKY8VX6S3stI8GrbaIELFTGPjD/5BNnv2ddAf/yRB34dpdsHfR3mS0GOjUqSGIp/cevX5YtnYUgGmQBF0q7zjQAInnLRyqVBVQt1fO6ENPPssAbSeh9AuPYWjJniAgS1PEIoBnmjKoAgXAbpEbEO4qEM6n6AIHOXs9ZBOiwWBBB0M4MXNYpxFFlPTHcAgpoVOW8qkg/2oRAr6DJU/3DMqCX1hnO7D/B5CGW81l/awyN1r2rlfJV/2wFfxOc7hXcZkz+rofgua5LubDf4fG/nahKK/j2XRpO+DZunbQF4zAGoMtat1WjUBEReFh9CaJaxxtGcRG7qm0UfMWnCN76Y4ylk7ZkXauOykINwJtTeiyv81XdBzj+eyAmHL5NaXWoQ8gAIlOlQOCN6H/OW7po23Fu6+oKqcoY9KvLBoyVhWeLXXviANc9Fk1U5ymqgJ0uyAwSVrUe1J6SJ8uhxR+vuYQ4/u/W63qVB+MBnb2YTg06Y6sYcuKHSRMC3aiXs5cv0s6wECILXuVtOC51EijUHdg1CdKIkhTJFyV0XkojupanBMvC4znpBcxZzdYnc4SsxVATOwdGGbL/dR2luItmvn/9F3E7U2PKNAFAd8aGKyWTzH73/i/Da9dqh1ryUg27qHmGumGjI7dyZc8A7UZoE2ziibvxBfQpy9zq0mkCIRYGFPq19GtqEfOcSZ2/fbFoJo40g8RSXdqNs8eHCz3+uzfFEgdU46+u8IwdrXp9EH0IXms8TaGJQHJgnIzkz+0nQBdHth/qNzrCoC3hdF2EBCCKcxHmEwVrrT6Y9IudKHXAIDYIJQRQIEd/zNxZfDwW4GCA8uyyf5evWu/7Rdqu5/D6uqe+PD1xzE2sQ1IqzTwHflIOOlJscSW2KSXJKleQKVJcwkxLpBd/Ao/KMybDKgOEFmUW644NAq0p1EMw1iQYd6gYvBsv/leMOBAgxAEc+uxw0b8dmKRsrCCAElGXOZ3z5vMt0FvemaPh82HwvgvoOu/WpbwzZbPJmR36bfeQzDv1bq4AyuAfZeQWrdhNSRJGT026Aj0zYeG0qcCbxkD16s8IiHR4UzLasGQzVd6Yw9e9bXMLLh6Ldd20AQaxlYf16nfW0frjRfAECjSGILyehSkKzr3ZASuN4Xard0JIXcXSO6d+gdkuCEgeguPPiKAZPTQbht0AXWp+pgR0XhRbC5hTp7g3ws1s/1xsBwkkeqmYfAR8NuUdIFzoiv6BXVHoBgvdeQxoEl8manYQRovfgBUVOhAGB7oMEP/lEgQTBoMU8w9XXGgCJ4up58KC4cy4EINjihPMYWt6vxtUe6ELcFLJBal71no0fu6pTjdEmyKrp0q8JKuLw9UK2OVz4yrPGqYiDhYBtPhJZeH2JDNmkvuN7WMDv4sxbreK/mn7cPXZv9Iqm1FiEr4Hf9FKooLYiR2Oxg1T1hQIEExyo6xm3VwhAYBODHahwCKSXxWsIUc9SGPe4q9TL4n0h5rUUzHzD947F+8+kfNv8Lhho6evPpg6t1oq57z//Qm8ECCdOE7uhCTO/alKoejzgwJMLQTAk3RFFKm0kZSh06PVr8AqwPAACgZg8tQjibOSHnh1hw1oEf4emAPaGQkXBB/fQiMug2378LyMOXh7zzQck/KsTI+WlPdA2LWi3PYJMuz3Tz3WGaltdcRuKDxBMgaz/O2h7lBC2/T5Iw+GcvRCAEGXjDvu9DVjYAFdcUaBkVWF35Hx6kQpvoyMCBQ5AkOLIaTVqofLrXmtdDELQmLw4GNpaW/htVEiuPhzdpq6StTnT4YiH/HigcFIMBgjmr9S7hCvUV3G7FGPTxxep23Gm7sIIJWOyTsImsSbKOVPl0JEgxMMMpBbBelMAfvaF6/Fy7zEx9MP7P3MTxpw4LaKUs9wkNj24m8dbKW2X6uemp6qL9sTGe2/+NmKINjEoLCNyPFqeOEWb8hCcjryJARAUCFEZ6Ryv7wjLHwMEjSh5PfM7xwFLEd6I/tt8u4u3UwVwUvuWFrgcgRBB68VkSIrCwkSXDiPU9+ZVysO2pY+M+45bpEb1Z76vIR3nV0F96IzUdq6i+ojqS/9ejcG2tvmJ+yj2313qCaNvZZFWAtuWqtkV590difs9nfPQVdKLh/HgvBcz1VKQVsNzI5Yvc3/iFoJEXGmtvg0BCLZ0gwwQZIdCAxCUtcCkOT80F996V0v4sjmrYGnfBV6KpboAgb7Twx21hZFVH4UvgnfNxb+B/1felcBrWZX5/72XTS4gAlKKC26gqSxyBTPJZZwpM9GQUMuNn05K5ULWZDXlgpWm5jKYuKLiiumY82u0IdtwwdyacilRFhURUEFkES733plznrM857znvO953+8DprlfvwS+76zPec7z/J/lnHPjBQIgPFU/ZihoSS3ZZuvP6Wjr/gNw3LnnE0AIZG9q5c+PkTgWs/Eg0IL4eNiIEfkD/Zp9LbIMWrTDF7X49RfUAwcvcXWX6naPrYrjSUgFGgVHyiy/F3spauUWPX+pRsrJc6frzekirj7W7EkOnatVFhD5Isnym21JtJ3KEqSYdNgqD8iw9gOPpnERzJO1Mook4Vgj1QkBHo/rQvefaPc8V0p5zLqJc1gMTIrxOO8/dPzX5FPUsEki88+AhAg95WoEE02Je6IfzwIWJY03geWoFMkSqVglnXhfpMjVT0VNBA4h8ipqldTrin5jIYAgaRKYH9cBlIMgSMTuVzB1uAfBhrxlXwUxspsEQHimUwGEb2PofqO9nAObjkcKndhLf4yCkS8ramHiHvRybAxVhA5OuoIwy/xpm9Fsftkc60391YKbEP/W5sDnAKEU2CilOSwdSvVRsF3d/JH/XwDBeGsCm9z/LSh01UkVA5rk07FhRw5PgHKVql0AYk1CDL541dsgH6DZWsaSVSeAqGnaS+JIl/40ySQslwnycl9C7BI+5aBnGYdVRcI1I/w38eNehaAyAxDC4K7svAo1pq+IYnIhFksqUGKh8YrvZEhFavt0aKw9AByMkOoN5B7I0wXhtuPeRq0cMn4CxdtZasrdlFET2ly0+qpNgg7KkaP9oiv5AEHAiXhaPh/BzRd8u5MBhHMIIDRkzrkqgrMLgHzcJyM6krnJnudvOITUvOAdAggWtUnU50jJNIAg6ok8CRE3p5gXMS13n0X3XRlFHdjtOte1jOL2y9rMWN+tpjeeS4cyfeUKKG/uZfIO/Hb/L3kQOH1SBHqMnuvWfog3X3sNffv3x8d22Ant6u1ap33NbfJRJwKoIjvaV/btrRsw7+WX0dDYgKH7DiMhZJa3A406q1oRlrs1teUmlovOriv+ZkcX5Ulv9ZvYC0Igij/bO9wbTGIAwf8+5FbVay72mD1ORt9aHvYFcL6K9HVI+o5PUb0uQMsDYE4eDZmbMYTgdiwWpUw2ZmDY1oMQf8o9u27aco9TLAgOXPOQ7wbmAAAgAElEQVSuFBG1pc5zEKgPV9aKi5RI9hIfSo0geNHwb6xbDRB8Be3mCRg+dMKw+lv/4idKUCSAIEbU5OV3mTR68oTIUww6BJMPnm6+8PzOBRAmnv0v2HOUOMXQplyjWQLFhKmGBlJwyKeftSBz8aa3u9TdCTaKJHv0XotM5WLRK7+kSTalBa4EJNlP1URFy460QXU/+cpbP53N6crvVPfji5HHmuqSk5DNayh7MoBTc3MChBQgk+dB8LlAlJWKV71gqOsuXvg67rzhBgxvacFnjjkWaGqyyoDHhpWgkk/JWi3KXpIDNqz9EJdfcCG6bbUVzp86VVoz0oprb8f9M2diyVtv4YRJp2LgdtsrhUtMZY+KkfuCRJjoRT2vrpJtdahX2klqPnIXMi+arzBiNBLfZwAKIxopCBcicICQAso2N8AsuhfBASqhrNUYCCgJEAxtvCxPSdGIsRKiJxXNe48hDBzsTQLpngO9ViFXvlaoxjKXjEi8IZSyhFrypt34WH2dICo4o+/YSO14NMrws2nIPsakQ24WIAQOWrB6dG+D2ndSl7m34dqxdoAAwtxU9VRzOe0PqbmhKg306T8AE8/6lvIgiAWll7D4p9ByFZaFuCazQdxwoC+ZoCQQ+76Xbw0rta53qLHCqtkSnIgytKDcwpJRnDCIR6WEZMYYXWMOqRC9ihKiY9avv50L16KACaL1q5G9LkmUSXybMD6SnRZc5Qlfo8+1ktd10YElC+bj3huuw/DRo3HYMRPQIa8TV/ldOiFXWyZKYJPlCXnhnAYcQqG3rl2Nqy+8AE09uuNbU3+k4DMVnPOrR7H6gw/wyX84HNv0H8COVkl/hJMHIPnH9KnmKASqnq/g8QagraNdPs4u5k4JeDZOTPDC/UiyqjY0/SRIYEE7n/Sczvo3yVdFiXehhS6vr5LYxSmUxzus/yoAp8xg/JwDucJKMKQ9jWyoHbnIJzxR+215YpNTxW2XQg7qO4kCLDgQxSVAKN2Ve7SRkEGbeyJO0Sq2TqS3dL4BQSJBVxcEsjcrzOKJvlkARPKyFxI0jqUO3HLRdzoRQOg3AF88+1vYcz865ihCBD6gDSsVLcDoqU/Cjk1OZqk98KisbYdpdFzIP/JoPRBlNh8vyyJOKvTgO0Zt6VoULk0nuympTbYtowlGNI5gLNxL9oqVK0uj2HxTrPNQX3K1SguDsqNG9DhrXkvaS1QWgS9ZOB/3CYAwqgW7jhiJNR+uxeBddkFz375yVVvXrsHr8+bJfbLL7ruje89muXM2rFuDRQsWYvWaNdh1l8HoM2AAWteswbUXfh9NPbbClIumYuX772HVqg/RvPU26PhoLVo3rMe2g3bC0neWyL3XrUsXLFv+LnbZdTds1auPFM7L3nkby5Yuxc6Dd8YHH3yA5l690VcCCs8D19GGBfNexfqP1qPfgP7Y0LoR2/QbgMbGRry79B307t2MxYvfRo8ePbDrHkPQ0NiEpYvfwobWVvTtuzUWLVyAQYN2QN8BAwnkKOIaOhrLMH/BfYuzaLX9HVRPfpJSKgcgcA+YEy4JvCpYNI+i3zOKTckFMcY0gMB6CHgw8gBO8EXEwIBz22DRF/JmKbnOjiUSME1A807fAXAgf2+THi3eWm6OkdJgCsqr2xM8cKP+6ZBPCQibV6EvU6LCmnY6+fiWi7+DVzqNB0EAhLM0QNCKPJBOksmw5Yq93bzO6EY++RWZfmxPn5nwAAKhFPWfcAwqthEtMKASNi9BWFfh18soJ6L6RzBaSFz6+7dcyoPnwQnEequOOA8QVQUJmyPMUHZsRpBovi0RL168cD5m3XAd1q5djbbGLmhqA7bdaUccdfzxaGzrwG3Tr5dgQPjHevTqhTPPPQ/rN7bhoXvuwvJFb6BtYyt69tkaB/3TZzCipQXTLv4BGrr3wPgvn4QH77obPZp74StTpuDhWfdi9cqVGDfxOMy4fjo+WrUC7U0NaN/Qih69euKc712EN+a/hgdmzkTrunXo2r0L0NaOUQeOxeEi9NFFXAhDSb+NHW2YNfN2zHvhObS1t6Opa1d0tLfj6BNORM+eW+GeW25BY5dGrF+3Ht26dMU+o0dj3IQJuGXatVj+5iI0deuBdes+Qpdu3XDK5MnYfpc9bNqvx7xaiejr0jUv0r0NZZVDlpPryU9F4bMQQNBgvN4ehVCoR1Or3n1pqupcgdRViS2fn2tCZxrsUUZSpGQslJ9LHCDIdv1BJYV3tAeAZq41mvWIkOfDT17UvzuhEZn0q190asCtAiA821lCDBIgfBNDR4okRVpmkYBHas8qKkk4J4nRBQiUf0BJKa56I6SpW7TiQLefVc+uEiNMGvywRnUegi1Hng39IeASsXxqtIB9kBADA+ndpJcsCxSKPCZFAjXUnxayQonXU7j7fWlPQJFVqAV8Wdro8iLEcN9N18v9cPrZU/DiC8/h4Qdm4ejjv4Tf/voxtK9ehaO+dKIEAo88MAsNzb3x6YPG4pFfPIijJ0zE0L32xrQrfoL+Az+OIyYeh3tvvB5r16xGQ5eu2LpPX5x05mT03W573H/TDVi14n0ce8okTL/iCnTv2IiTvvZ1PP/0XMz93W8w/pTTMXfOHKxYugRfPOkU+b7JHT/7GQ44+FDsPfoAPPLof6Jt3XrstMdu2GuvT+DB225C24aNOHPKN/D0E0/gqd8+hvGTTkfPnj1xx7SrcdgRR2L0gZ/Cjddeg9aNGzHuxJPx2MMPYfkbCzFh0mkSRD/ywP1obeqG8y+9QmQkSYUf83D5dC6vGLIrtCku34qBSz9B0b+kzPl3ciw9znXZUy+Sgk6FgtsRoo2TYguALZVMWGovJKAJCQ/EflcNm5RzGeYqMwsdFmgPAAttwecPyFLQ11n2eWnr76ABO4BHRvyYrpBhCZYHJj11Nq/n1qnf7XwAYcjIFommCBwQK3O3FCl/n8xMHecCBLUoMtPbqmz6m3/tkv6Gb5y0B5zc45McINDMij5FyjNYX9Ekm7cR7q22w5Us+VI1XxpKJLgyUhRwHi03JUjg/Wr8F/bgMHDrWSBFSWHvLFyA+276GXYduic+f+LJeHvB67j5qitx6OH/iCcf/wO6NzXijO/+AK0bWnH7NVfi/VUfYv+WUXjpLy/i+K+cgcG774Hbr7kKK957H0cedzwevvMOrFm1Ek1du2HfUS34zLHHoWtzb/z85uux6r0VGH/qJNx45WXo2b07zrroEsz9w+/x2IOz8Lljj8fsRx/FdgMH4qiTT0GfXs24+LxzMebAgzDiwIPwh8dmY+P69dhx8K7o068vHp11DwYO2gmnTTkPf3ziccy+/z4c+eUT0dyzGXdOn4ZjT52EffcfjUfvvQfPz30anzvhy3jqsdlYtvhNnH/ZFVi/fj1m3Tgdby1ZiouvnYbWhi7qlEWWwlVPLxTtwXoDhDxe5qdJisal3dbF5QKgh+nuov2aoJtNB7qsBM4B05+SYbMgpGgOUaAnE/dUrypGr8MJ/MI6Oj+Q+nFvNrTQQlNKpRvmEMYFCEwnqRwELTXdJsSJC+HxENcqU+4QaQg6MCyeA6AEZp2Wq3IrANx6yXfx12efTp1gzeW0YVRzQ1Ua6NOvPyZ8/ZsYMnJ/ycZNykugDqkYUEru+4g1L5WOjvOrrHAbwVTDsmhQZ+I6wl6BBdmOao8vtXJg5U5RWApZ74Po1w8+ZJupBA7M3gu8zxBRxOZrvrtLLJzZNt6GSdD7uXfz+0MoEmR5Qy4j5EpMPVq02ljjUE0ChJunY/26tRhxwAF4f9lSvP7qPEw46SS88vLL+PPTT2KvEfuhfeNGzHvpZbQc8mnsvONg/Pvdd2LXIUPQb8C2UkEP3WdfHD7uGNx69VUQeY4to8dg7pwnsefI/fD5iRPx4G0zsOr99zH+lFNxw08vl7kB515wMZ6e83vMfuB+HHXCiViy+C08O2cO9hwxDF27dMFzjz+OMYcehiMmnuC8ovrhBysx49qrsGr5uxg19lN4a+EivD3/dRwz6TQ0Nzfj9mlXY/DQPbH9DjvhuSfnYODHBklgcv+Mm7Fs4QLsuf9oaUW99tJLGHbAATj6Sydjo9w35Ib1PYCOcpIrU79Vr6UlX5jm8Yb1bca5kOZefURGb7OB8Bw+SVerCyv35Ct1GnG1SyaCAEGOkdQ+zcmeVxP04QCBzLkUmmmLX/xpjUD3GmiWEJnNlzRag1Yw642hMAiZvZpNtafcjpLuDaHalrPNRUvmAD/9NuOS73U2gHAehowYRSR2Mnqsy4bUf9yDQElNltN1yMHderq+PP+S2ZX6G/18dLhu3mbWgRFKDNCBDT6lPCBQk3Uv41kei6benEiET9KVFiC4G7AqwMnrtqonod5WYAph8i1FcpWHP3Qvgf6Iv65YvgyPz/4vDNxmayxevBjvvfseWg78JPbdfww2bmzFgpdexJzf/Q5NjU046OCDsdvw4VKNzn/xRTzzxBNYuWIFRuy/P0aMGSNzFH55/8/R1L0rPnfUODz31FOYv2ABdhm6F9o/WoM1q1ZjzKGHYPZ/PIymbt0x7osTMe+vr+CFuU9izNhDMPBj2+KpX8/Gq6+8gh0HfRzPP/sMRn3qYBxx3AloaOwiXaEyDADgvcVv4lcPPYSPPlqHnQbvjJUrV2LU2LFo27Aed02fhhEto7H03ZVo7tkDnz36C+i/3SBMv/THWP7WAnz2CxPw/PMvYO9hw9Aydiy696aETMmadcgrSFlDKZ6r6TSjHlRCvdNdLElRWNibcmoZL4tRUinKM04xDtZCwMAm26XJFN5TXLFbOCX776D7DeSaKf7TdC63hvbNBEseO26an5e/Fly07FwpDCLqUwDE0ErlHpgnrKUA4Jf8kSQXvgSt9TgAnnHJv+Kvz/0xlaVrLrfFPQjHfu0bBiBIgSDPVNt5tauz1/bxppADSRBY/F8jQQIM7ouQWfbzFZvplmVo00jSnVaitLxAidhCcTFLfrSSLxB6KL+pjHQSaiIQs01S3h6YkMycAzDkFPgRPblw1caeV61scmCtQr6W3eSDhLyM57x++CkUcjfqDwPAyuJoV3yqj0nRM+mk6aR4ySwJJXY5Qt4Acw0xrQJZ/MZCvPH6PIwcMQIrVryL6y67CgcedhiOmDARaBRHi5Xdo/jOtXfFGDow/89/wl03Tcdxk07DXvuNkjwv9nRjezuuv3Qqlr7zNi6+5t/Q3tAkk7EE6JBCnw2+TH6BA7hK6sJyyiW7ipxflaEbPcXgAwRJSaP0auFEqzhpWwaUV0VkIi7tytuvlPVfHE51Z1e8SPpeAa7EOUCoRi1mUkXoQfPJ50VLXZfOFiDwY8N8rr7B65p4dLciqRCufW774fc7F0AY/9UpGCo8CJLzaDGYU0YKE1K6egeFLqXUsSR784GECJksfw4SLLNrt5Xo21lmAxTKAQTOsHrZ7fIrTKY6oj9c5qhwkFchXe1JcJk1BSTEFFpRzNzrqfTQuWD0N3oVgFAh7FlNvgRq8fHm0TNP4eUepfKS1bSwlqvOLoiRHKU0pSlToBTsLaMkxNra2vCXPz6D3/zyF/K+hK5dm7Dd9jtg7BFHYrdP7KMPmalrDEIPyxBcWPjyi3jg7rsx7vgTMGSffZV1BDS2t2Hmdddi+ZJlOO+SqRIg+IDDKoRiJWLKJh59DVn7NTGCAm0pMDmUJ1NRZ0eHnM38t0XLAC6+BtpwYFjGNErK1JdjKRSNr60dpyqjRGdb/EbllA5VGTXWKOHpHoOiTwggSNXP7jagVvzr9MI6xTzgpQ0weUMp9SJamPHD7+OVzuRBGD9ZAIQWcsmrY38cpdrAALOgPIPVGOVGwdPia3Wv7BwnOiVDFs6xGAIiBCr4No9fRVrEPHb3aIDDYk0aIMiMVXfLpSj0eN/szQo2j8ptWg1juuRtCa8F30aV+onlTFS480TyS4qUTl68xILOC2/hOg5fR2QPT2D2WwmTSQgy4lmydrIEyGtT9+Evs2ytbSPeeWMhFs1fiO7/e1xx6N57obnPNpCeCy2zecK1R3dhBa39YCUWv7EIg3YcjF5b9zX5dkL4L3p9HjasW4chw4YFnwD255sgr81xt8RVq2uxpFM46vIcqUw5vVImlzNaql7sJZWlSvaly9OS0399xUg9l/MehMbBgU34d3uksZbFC5PAbkpS8mUAgp07+R18AKCOPsrnrpVWc4xEmg070OAYuGp5MeNHF3QuD8Kxk6dgyIgWtdZMuWWEvLOboq4uk2So8hJsLd+lozeUgRfeqQYLFOJ5CWksqgWHI/D4MUgpwdn8arhhkSdUZvIaKreroLuargMQ0kgQLVUEKKq89rhFAIK02tU0VYimSMEnyB8GysIkFG3we+ppDEx8M7by+2vUep7JQVNGGjwUtiKNQNwkwYg8mx0Wnr5S1+DcuVnRjEndmuhfc8umWgSqfPCzpdZekqhYn9gbH6UN4y5OSvXYRnKVuF6yOFJOUX4hMGFyDLxXQOsGEKhT6U2y75C4sxY8WI91zrKwXYHUC5cshd2j9w59JYi2RxUpeZEsCs4zGgTo2Vr2ULuoowO3CYDw/DM1St306q7kT69Xl5LiFMP4yediyHANEHizdKuiz+L6Ilb5fcCkMl8ZgBBL/3MzVHkGqVkg2bu66jaz+8ttZ+1+zoQxTGe+uay9INVJTTLIH2d9zOv8hMtqY/bb9GPRoZADxXJVaIpNdXMddwzN1IlFs8S3KiETixACPYn5urg5Wyi7gWyZECtwvKxL5rGQP4aoBsskemcPH+jxlNtaTo+15hFU41wVJMwZN5kncW9bqsIOjY/XNcvHcziY0qX6tGgha13swYxrn3VqTDi97iU1deE8OT85wNXSLn1v5wGk0G9tiScg3FUIbUEZclH5jcY0VcAmH0iGNqBS0wIg/PjCzgUQvjD5HOwxnE4xuB8iFB1h4TvP/juopDgol7kLdMwwyw56y/pSkErq/4a9B3yk6dJMY0z/yWmDEYI+SgIKVT7mRu8A0Cqy3ONbIH0kVUbtJ6f5QNBXskI+kVuO0qPMSovv04da15KbBCCwhDMuZIuS+UKgy/JbYFew2CfpFcvfXHm4iiT+6E9eG86VymXcKTmrJXd1FcarkQPkLs0TBepVwVAR/Q5t1eOa4ez/FOQYGg3J15gid/ZUFUIX5cJo/JLRBgwgJK9VOUaQT5I54ytnP+vSPu0yTao5UtZGHohRvCyBBmUX337pRZ0MIJx5DoYM3y+QqEfMK9/jyHktO0pghaCNHR7Myo87kqylz/LIo2uZDhJsuCHbmPNN5ibG5F3BCrrj4g6XMgChzBFMzfRVYQ1/6dI+9Wop4wtirRB0WT5WLb+MsVOFhBXqGICgvAd6FWryIATGkaf8YyAgBi4MTI4AhCIgIkF1yYz5lDbLkn9TehA0F8o/07e8kWP1PtdolbUdDPG6K1vixwfzqRvMAZBVqp0HLfQeRMga8r6k8UVYYOt8Db8NfvJA51NQC77vxzhhwsPweEOOXxkxep9QmMFmjXDDRnUpTyIZ2aHMndsvvRh/60whhmPOPJsAAnt0w6e6eOUxbyWygslTKM49CVm2cHY7E3LWl8Da08/hOs0YJ1Ih34qWoh4EH01qSSSeMi0HhqPjcEFC4XCZ0Oe+v4J6IrxWebz6Yhwu9FLuoqQx6W5Lyu9iQmymEnkBMT6EonJlQF1IUOr6Wrk4wCtHO+ZaRF69eimyzbQ0NXWjzJ2a2pCqSjG24HPhEDeenIABlKKQnTa9PRsy9qs4eqJ7MaNIsyW1ZC0PcsImCg+fZNp0JhdKuHT1EE814tKRN8NnxP9ufRP5bic9f3GyT4z9jssEQHi2Zj5KbaCcDyW11cRyvfv1xzFnnI3dh4+UNRo7wosSs3bN5UmZzeEyh/wX04y8l2xc0Bu8yhCXG4mDh4zGTndoZ99uUH2aNvVhdb08Bd6GRHpzBeomTMYbcKeZqPXZDpH34SVWy5tGCFRVaXZLA4f8Mef96o88VNYXQSUYI7eobjcFfpWZA+dIucNqHnDtLYSHkMJrsb5TE96KJu97f8QxPBvqcY2IVHAg+ywgGrUVe2C+aNTaSg7xb/y2KJ1bVH09iwECn3gmgVdOy1318Doq2rC7O2T+gUMWDh98TgrrjZA5RgBhKv72QmcBCNv0cwGCZFYfJCgChhIS2e2KLojgzGHvOyCLhRbI3qGVz4JUQ/kSvDFwwED8kAYS6Fonj1H4616MvWypEMOniK3sBta1TAJj9FIknThZsh+PpPXwfsRBYmL2uCbDFsxN0CInFKvOC/mEhH1ReKFMCKlYxFOJlHHktZVXv5RCy+lkU4QY5M5L0FTswt5UkkbLscMjpkwwPM5NvBT8FugxRnvrFnffxsmfnE8obQP7tWxWf6i9aumCvCUluRXR9ANI4vou/jEeCm/Y2QvKzGXPXv0Q8KHvJF3VO0HyXgTpfaarle0nAhC8UJ9ub+ZPLulcAOHoM87CHjIHgT4Up+XKUAME9T3z6/iLbYWiWz98LI9SFwtdVybBz1WSXMFboBDbDO4W4HkI1Kr7+qPL5rzfMCqm8uWUuGxJVnEZ3NKqRi3vVy8/xIzckEAtYjjnUSYjEMqRKl8eVvg1dl6+VAw/dPslG8umAAhG6Kl+UvqQbFDFL51AV7PbNvV6JtxxIYbL789PGH64iH7F2FlL+kcs2S3aFwcPHOAlXIzhnoxIvd8ghKLCMpHmEl440bcEWzWva6M6pqvHRScLMqMMODLcro2UzsjLjK/A8SSoOcoEQ9WrpD1fMXM1krOMMdDW+QDCV87C7sNGBFScFvmBx4hcUir9GOcmGQ/P/Bw+26C2ohaB0b2nAUJWSPLVj5sdNBzlmwgoavmrM2Y1Cd6k+V3QKHUT2ynZ5m2j7nw0U2cTn4oEICe58lAWVcn9XY5VHMHyVoaTQ1KgyNLbwh4ELRZDS14GIKQo55oIXsfK9fIOmCF5MrZoyWuZit4jkS2akUR04ZsnbBIBkq4VAgIejFf9KvUUIYAehhMT5wpMow4fMDgKs7yWdtabySj/NJo0quWezmptghVlVtYfp6Gm4/nKthuxODizBRiI5+bov5t5aPBu7vfQvYo/PTTigTjTlT91Ncw7LxcehOdqYelSdWPDK9VI1cK9t+mHo//569h92MhIEh5fPKKYvR3RpaA8MKJ2hHDnkELR2CHM5PS+g/9bEVNSeX2kzigsRyiEUXOMTmYU3lD0vjVzyYRfmOdB/MZObqSsiQsQfNXLgESGfFl6BsMI3tUO9Qg1WFchjc8P86ScFODnqPkjL5Jl6nQJSwr9dX/lRXC29RRwkVLGb7keQKQeACH97Hsq5dPKEX8owc5Be0BMGEXhMXqVB6d8TGEukU9+5MmCe61ni3CKOXZn7kIoz5n5a80yvnI8CILi5fM2srKcxuLrCR92lJH/VDbcruUnzS3mRZ6OdrrMrEi1aFZjrGn1Cym0mZdfglc7Uw7CuNO/hj2GUZJi+KPdyjqXgDBNdll1hoFApLSdnDIcJWtFKt598E4IZA+0WCajOxFsq2Sxcre3D2hSOIJmTexNQQ/zRUZne14CKb1UIQYeUoV6ECBE8xHyhUVM+TgJoeYRqzThnFIqBkxy67Kp8Kxwp0552Zgy3HCZdDaJ75KEI4abHCDwtG4u5Io0kz+rzUn7glXjQy8CuKG8AVIo6ayhH+jyI9NFIMsmK/K+0jo2UoTLsrSqmYkVjbOIGNzWTqeaLummn9O3diKZ+wm0Qck1tyoeP8OgL5IiTWFP+3ij7ehAU4N4mIzGQDiT/oyxd4jk9J3VbRIg/KkTJSkKgLD7vhRiyH70MilwoD0CASiml4pIGSC1/prpc7Gp9P9037Tsfn21TLJ/N32FhqT/G1r6cjstGCgwZi6ZMPZ4GDPR/YBdkTSLUFzndYSUSRx4lGF56jh21LOsUMibZiyxLBPbZJjM8MFmVlKyu3KskiVVyKfsl8ojWEyTpfCSXzdlLJHFrj32XJaL8svHFL/hlZC4UfxTBhxoycPMBDawEHNwWacZNp+Jwncb5CcMJlFTHEU3SEMIWW24WPko5ucDH/8FzKpbgBSvsvCdjUQt6qGF7gEJ0STvkGOmvFoG0YfwSneIVy+Zt8n2TYmO+cFgasyGLWhOWl7eeYUACJ0oxDDutK9itxhAUI/C6Gx7nVQXVsNKSctC+WzG6wul1+gsma7L22Ao1HsKmix/DhL85IFyLC/3VeAVStqkeuQ6d0G3Hb64JNWTEBYA4addra6wVIxlc3CoZenEe/OFWjWtXAUkODA+sERbQknVBSTkSPMUfvCFX5U6SQolp9CWoH3umPmp40DBMiCgmDZhG5OUjMuo2hiKSRixlqHTLna81fYbn4Phl1CsThV0ciCKCVAJJ9u5NphXGDVc4AAhPdyT1SP6+KKht1dErhz7jlOXg4R8vC1qKbAV8JXffeWPOhdAOOq0yY4HgTO7ZG6P+82b9w6jqct1jHs8QSmz1RMAIavkQveUKTUdXWGmNDNlEsbE5uSgTJ/T1L85MAntu1ouy5GotcETSUaDudTi/WQ3Bc07DBBcsFBZXIURo81B0RIiQTjpwZZbrdSGi8ulHKcrbiVcopKyZyGn2DHFQrdyyQFvcYDAcHfh0OvAKG4T3HFtey8fk4+9RlgHbwEjipUQPtGs5U5XBpLVY8wv5fysA/nkaDgYyuNH2V8OorOihCSwnoXIIfCff7Y5b5FZhAwP1T15r03rzu2XXOrq4II0tjqAu3/6Y8zrTB6EzwuAsI8NMdjsUOVOl9KCU1o84uRrBMF82XvZ8je3TmqktrMQQWO+sD+CxkBoX+tNE5Hi43OGWm47CHdVSGGIhK2sws0i3loBgqBLExuAPmMu+5Z7PqLSC5SK72Iz46yIELIrb+lcDxoUKom/swIxPPV3No1NNlyeoa478YV2uQz77FDDrn5P1oYM2f0AAABdSURBVFQM08SsZKFgVPp2TbQrnLsUi56s62iATjStN6D0Fb7TswcGiiRwCCCQJjDQxqNd4BSGboTQSIbW/gsM4i0ZYYxpi4aeb896cAXd7v7ppZj338/XtH5lKv8P7d7W2IZO1BwAAAAASUVORK5CYII=;" vertex="1" parent="1">
                    <mxGeometry x="10" y="89.02" width="630" height="291.98" as="geometry"/>
                </mxCell>
                <mxCell id="3" value="" style="shape=stencil(7Vrbbh03DPya8yroQl34nKb/ESBObdS1A8fp5e9L9VR7VqPdMQoERQvk7cTh7EoUORxSe0nvvtx/+Hx3if7L68vzz3e/PXx8vb+kHy4xPjzd3708vNqvS3p/Se8+Pb/c/fTy/PXp4/Xfnz90y/7rl+df+xN+v+K887mDov/j+gdtTstff/nxav/48LSzjy7X2T67mM7txRU/29sT2rl9dT5O9k1d8+f26qrO9sXVeG4fomthBiQn5AWhON9mgPmMeCioCzIBanGNuTTgHmpyjezBnOrnQ6jBebKHmF1LE6A0lyoBVCezl0oefjsGWNTM51aSSyQukh9e3wDeKXlDMi/Ne8jNZQZILswHl8vw2zFAXJ6XlJOrxK0puwpvCC4JAVQXZ7eK0oNLbSxgAxRXSCzJks8i9KTFVgyA6LwSwJJAacvBY4C4ML/B3JBJeEt2ZU4gc3Rgb1hII9ki2aabi7NbLRxzJgDL6RlgAZ844O+U3wDFJbLpvOSDZbmQPRigzKxh3FzJkgyg8IbgAkkgA7T54EJ7C6Bzihp5ZhKtli7ArUGckupggDhvOhjNsCWFEWobIIyKdAaoUBApLZm9zlxsscV2EDHfLKHZMSeMbSN/QjFmL7N9dJE/P8Mhu0RyzeybgL0nPJ8F17PF7bF9Hsu92Qvzfxll5mbPuCIb96C9Z1nTRine2ZP4sSoGTOHpeZUwaGG3fnJeJSJPeJdIvFkZjg39T/Zr9orPZxlZxEVIMEqM3R7jh+k122+Y4yFR/2TF+BH6fIu3gPkoLJ4DFtg6VMNZMavID6yAWzEtc3lVKrxMtMDzg6fl2EojaBBjRLZjK42aEcC2YCvOggCm4c0lviwAsiQ7o6wIqEzP5iVKeRnoLJsQwKSdhSWWMosUppgtkcFLlpkkUg0QFkBke4iDCW+hRJ0Ul16NprJtOc0LapQq4qZEd6nA1tNQB1Z6ZhbZCVoKmpqpYCpblJD9WmqClpBRm49TP41KcSvFjWnG6gLEHKV2K8VxThsLIJI1VpowRF3h1A7nu3VUx627x/jJg+uP7WU9LyH2LWDWNypVWsX2TGmCacHS3TOSLEjrAfcysah6QHSsKzAAqI83mNEACswYaRAZAPSQAZQtaeu69xKcHIMu3ZkBKnPrNlHaAZRteusB9gCSaWoVry1LYqGkON4wAOvOWhsVbwdgZGEA3LQVCLakhkLHQoN5qS0jml74WbSaEgUA14K6Sbl9AjFAGrPAHSDz0BBdAOwNdVD6DkDniW2seOclJjgtgcqiFJjCDt5jXbCjZoXcXgE9aeCtfp/hLgnBqNjclAsCKPXlZTZgjSE/alSRiQ6aNeKQs7/hWwLaVl73KccLVlhSjjaDil7a6PnYPuMEslHFYM0jxF4dQ9Kz5hcmzYWesikMnRWAjO7/bOoFzX6h05neHC3NFBv0Baw9b4xPKyqYLplZr/O9ORp7+N4c/bebI0vlOVIrlW39NgTFNiPH1JBaMk/9jM2IUHHRqQJG8G/NNf/3c0p8/reeUwa0/z6n/PfmlAn9H8cg78weL+rovYH5E8pAoXqrSwO456bxuZ5veDMg1iJAPeQXFZtobTWAQOXLI2jPZr8NKl8bZeEMgA2L0obFAFCXLCzYzMjSEq6HIm+vDbDeA1ZGLBUPuos65qUyEmsDNDo3yut9rKfXq51L59BIvP3IG/dvgEyFYL/WW+6UlW3a42xNOP/KUv/EGI1P74AwROiYQ5avB/o9NnuDHHw9QO/2I/aymYtT09dAwllo1UyKYw6LLmEyZBlz9MLF3lDwCwgjnsiEi+AEzKiW3rgkPLhSKGuksHy60miKdqk4u7Ua27ImoQ51vAGEq1kZYmgDVFpO4rKH5um4yZgU9F1LtG8xroYltTrmSceAiLNO9aNmnwxSsD5oHGx73PCjJNdMp00FWUmV3+0vG9AxZzyxl+X5TPMLDvBu4+ET+6hozyaEyzRO+bgiLjMgz0VnRBLuL2Cf0i0HrLTw+CGJdvaMgj3WqT4Np89f189E7TLoM3smmv/px5hv29uP25efnx4eH68fju7/H78UtT9dvzJN7/8E);lineShape=1;" vertex="1" parent="1">
                    <mxGeometry x="136.17084745168017" y="340.4457397269854" width="41.509920269331815" height="143.3394201264944" as="geometry"/>
                </mxCell>
                <mxCell id="4" value="" style="shape=stencil(7VrLkhs3DPwaXVF8gK+zH//hKq+zqmx2Xeu1k/x9wKg4EpszrfLNB9/20dAABNBoYnSK7749fvr6cAru29vry58Pf58/vz2e4vtTCOfnx4fX85v9dIofTvHdl5fXhz9eX74/f778/vVTR/af/nr50T/hn4udkxC7UXD/Xv7QqmT//18+XvBP5+cbfJTYZnySVo7xSTTMeBXvjvFFEnx+EJeP8d6J18mgNinkAT6KmyOuRRyJ2GfxdTZQ7lKTkGYDJy0eG4Qg6ieDYsdAnmCnmt1sYC4pMaiSZpeKk0TSFj26lMs4hn0DSysYRKmNGGTJcx6yk8JcqlLnoFORSk5Jt1PfDBJNnIblCWGU+76BSpmDVl58ugStVnyJGNRRCJuBipJaSpbXOQb1Ukl5W4g6N1C0+iW1lFRimQ2yFOaSNdAcgxVLJEFbXgs8IYhnBk08GBgtEJes1CAG65BAEpe9pDnTIUsg/ZAD5iFY4piBMSs8IUghecjW8hCDF8diUMkzkXWmIv2Q0/j3ZlDGMRwZ4BOSVBZDHg25GSilGTOI87H6MLjwyEDBJT8GwJEBxFApaRi+zvgkiUdQ5wlnPElq24g6zP1ppEPw9vl+/nwLKNC6S/OELnRYWWGXDOeTWIrD6MQrns0F6zTog625D1tZAR+ZILGaB4UhSvKbjBjQH+XkBWzXhoNH7BgCxsvwi6KqtMWMriviGQ8ZXjG/juMjSAvJ7HwUibGMAzjCtxmfR0BH+QJBmDhRu1G+1/66w6KQXxOorJ7LYPGBN5lD/C8BpZqj/hQbvg3wkXx+9Xg+flwB9vEJ+S1QfmsO+WFThvv4suhAiaQf7X4C9ZwpH7YmeY7X6o3wg3fbeV8NmMy0B1RsGNZgrSGhN6rd2x4BkYJrGf1po0L28QkbuI2O28fbvIIrIxWYdoFT/PxECq7ZAKiAZzfGXnAOzp8NJMODlLOBx/EV8ZH7n2b/87hWHJ1PwQZQhtehha94z+rTRBkKgjsN6dF/1jBWnzAwMlVkVv8wwAodMIaHa5wxBu/Hhv1I/W84kCrv97qsKDhhbeVy04/s/NPav5Wdjw6+v8EzfwIK0EYH9s/ibWA47BfPBtJyF0v03lOWO4PSZYkN1FABTwd2Q8Ga7t0wMtY/y9dvAf1bQP/SAlqRbzPlqy6453pIVM9YfYIgjiOgo6WCouBmK4LicT566n+x/MLyiOolw6eFrxj/bAvvaz2w+ixxWaJ4upsyAxBMPlBFZgZurmhvNUtavt9JwIBrDstBgxwUKirNAESxtynDXHJLVXheRg1jsDzT7VcdMnsz4Otju+nBoLk3CRJ2WqhUKmbFZVZ0tPZsdlToNZs+zCU/evdmV9sYuzfc+0cuj43eHey/+P2hL+3nftNABVeKi0BQ/o5qCVoLveNqwwZKjraoZmnAkYGWRvd4biA7BvbCxs6kgEuV5kEd1pLlnvWD5RVisHJkb0diQuHbdyHklOJCM53LiUFXonA1ULrstIbE92CVElmfTfB60dM8BIfrhqq044wYC+ybCzdY+qHfaIlgsGmgyztVtuL1bgiWzUBH7vfJGCd6y3SEKirmfickI3FRSNelzn4hSQuIZxQT8WVnv0OyMhob+1s8iTcs71EcX+p5lAD9ASzFuNPrARO8w5VA43dSt1xht2l6gAfJY/hI4l1WboZ3pMvceGm64etYSh3gf+5bDvfx9sP1KxVfzk9Pl29k3P4fv4Jhf7p8fSN++A8=);lineShape=1;" vertex="1" parent="1">
                    <mxGeometry x="354.3515239840758" y="333.94698206865235" width="54.97578665802849" height="137.74221189503658" as="geometry"/>
                </mxCell>
                <mxCell id="6" value="main.go file ke andar&lt;br&gt;&lt;div style=&quot;text-align: left;&quot;&gt;&lt;br&gt;&lt;/div&gt;&lt;div style=&quot;text-align: left;&quot;&gt;&lt;span style=&quot;background-color: initial;&quot;&gt;package main&lt;/span&gt;&lt;/div&gt;&lt;div style=&quot;text-align: left;&quot;&gt;&lt;span style=&quot;background-color: initial;&quot;&gt;func main(){&lt;/span&gt;&lt;/div&gt;&lt;div style=&quot;text-align: left;&quot;&gt;&lt;br&gt;&lt;/div&gt;&lt;div style=&quot;text-align: left;&quot;&gt;&lt;span style=&quot;background-color: initial;&quot;&gt;}&lt;/span&gt;&lt;/div&gt;&lt;div style=&quot;text-align: left;&quot;&gt;&lt;span style=&quot;background-color: initial;&quot;&gt;&lt;br&gt;&lt;/span&gt;&lt;/div&gt;&lt;div style=&quot;text-align: left;&quot;&gt;&lt;br&gt;&lt;/div&gt;&lt;div style=&quot;text-align: left;&quot;&gt;&lt;span style=&quot;background-color: initial;&quot;&gt;&lt;br&gt;&lt;/span&gt;&lt;/div&gt;&lt;div style=&quot;text-align: left;&quot;&gt;&lt;span style=&quot;background-color: initial;&quot;&gt;&lt;br&gt;&lt;/span&gt;&lt;/div&gt;" style="text;html=1;align=center;verticalAlign=middle;resizable=0;points=[];autosize=1;strokeColor=none;fillColor=none;" vertex="1" parent="1">
                    <mxGeometry x="20" y="520" width="130" height="160" as="geometry"/>
                </mxCell>
                <mxCell id="7" value="helper.go file ke andar&lt;br&gt;&lt;div style=&quot;text-align: left;&quot;&gt;&lt;br&gt;&lt;/div&gt;&lt;div style=&quot;text-align: left;&quot;&gt;&lt;span style=&quot;background-color: initial;&quot;&gt;package main&lt;/span&gt;&lt;/div&gt;&lt;div style=&quot;text-align: left;&quot;&gt;&lt;span style=&quot;background-color: initial;&quot;&gt;func main(){&lt;/span&gt;&lt;/div&gt;&lt;div style=&quot;text-align: left;&quot;&gt;&lt;br&gt;&lt;/div&gt;&lt;div style=&quot;text-align: left;&quot;&gt;&lt;span style=&quot;background-color: initial;&quot;&gt;}&lt;/span&gt;&lt;/div&gt;" style="text;html=1;align=center;verticalAlign=middle;resizable=0;points=[];autosize=1;strokeColor=none;fillColor=none;" vertex="1" parent="1">
                    <mxGeometry x="170" y="520" width="140" height="100" as="geometry"/>
                </mxCell>
                <mxCell id="8" value="" style="shape=stencil(lVnZctxGDPyafUXNDOZ8dpz/cJXlaCuK5JLlHH8fMJuhiCbZkt7kNUDO4Gh0gxf99OP+y/e7Swo/Xp6ffr/76/r15f6iv1xSuj7e3z1fX+yvi36+6KdvT893vz0//Xz8evv39y+L5fLXH09/Lk/4++aXJOTFKYV/bj9Eyem/H369mT9cHzfmWVpx5lXiODfvot48qoR+bh+D9O4duiRyHnve8Oe3I2YlDk3ScA5qN87nDsmOFL1Dl96IQ5bkj5SrJHLp1CT7NxSVVM8dNIgG7zCkBOKQpEPasgxyBy3zAKvDmIE+dmgziNOhZVGSBx2Sm3ewTJM75CjqHXqUSt6QVaKvpW7Vy2o7S/d36HarQhyqqE9cH9JJ4nKT4t8wIq2l3KX6xA2VQmqpBEk+SqPODj92sLAm79DmO4+PNEQzOhRyh+VI6h2s+Aho2JGg+EaaBX/skKRB4vrEqWOHPEFuUxr/9+CxQ8VLt0FhpnTJ/g7WD4E4VIMZH6Vq4EkyXRWBrK5hOHYo0rxDaaKkWpcDAMwk2qLN7uDDagWvJA9NJzCuDmke8tihYD8YGLPEtSbDh1UzHSg9SPCJW9CWRKmnmdd1AlUZ5EhdpXnUSCqdDdEi0V/ahjTrh27zBsbukEha1HAu+iPZmMyk+Ky/8A2FzjgDRgirTW42H8xh+GqNUQoJqyFp9NU6pJEgGabAFZp0Zr+rVQ6sBnKA9To7/Ni+4rgKtCrMvmawZ8zNUBpgOMykn9mPAPaBxafPKbB5PrNfS3Jzfm5f8fxsdJr98GAU6TCPYb3f2mZvXaBXsG8swcbR/IFWBD+zh/OswHGWAO1gPwhwWYKbf37mCW4SAHvfKugMTHtSvjP70CGe9PxlH39lDVmQBEcOEHUHWVS7LPfFgi48/iGBPdNSCy/D54c36qGgPYtPl4EAxCB9rJrj1Z7Gc+zjnz7WkHGqw9OOh0kshTckkgmJDEE/at8xQDbIeUEkb98o3VomhrfvVH3YRAJ6ZnKbUX0bebgc0ElFzmbwgJbhkmtYyYCDjTXGtsZuo2ASiTMV0DdLWbM3tB2fS/MRZ/QM+j6tgT4lgPAGTj1M6DZA9jh3DMesd8wgrg5FAuPVxtMBqwdtfiPiUBomt1niWpLqKWbmet/ERPRvKMoVlOEj6JtO+63ulxw6R/SxQ5qMbLMVYf1goq7utiJM35S1mNeWDlSumDAdsBUptDRKmUNps7NgDbRoZVDjSudsWTcUmxUEI1KmKkH6GnIyYF0WBP7Sm1nx3j0K1+95N2wNnZkcX3ZB4MBRIJdJdzdbjsHekHeLlzAp+tkCDAiGgSFd7kZEMiumyrZ+A6NkapguIhvujw2qWFMbbgFJNeRhtaE6VeLqEOgIMigN0NSF8nibsgU2NXyi2NgH5VI407aBAy1n5cioWxw4s3TQyW5qHaiJpikPjx0SorHdirG3vd5ffzmGSkzbstlnW/a5Y3nlSmzDsRsmibZ/wOnGF18HRHWQ2ATMFhciYbecmeVxYp5QtrBEhamK36dyAg6oQEVaQErOlxpxKqD3mmdUOOwjRUSCEKeiPTHvaM5G8Qe/pL1pbn+8frT7dn14uH3z2/4/fuSzn24fCPXzvw==);lineShape=1;" vertex="1" parent="1">
                    <mxGeometry x="89.33443623859989" y="629.3668520108523" width="74.31745127181823" height="77.39306714336946" as="geometry"/>
                </mxCell>
                <mxCell id="9" value="dono me same first line he&amp;nbsp;&lt;br&gt;package main" style="text;html=1;align=center;verticalAlign=middle;resizable=0;points=[];autosize=1;strokeColor=none;fillColor=none;" vertex="1" parent="1">
                    <mxGeometry x="41.489999999999995" y="710" width="170" height="40" as="geometry"/>
                </mxCell>
                <mxCell id="10" value="" style="shape=stencil(lVjbTlsxEPyavK58vzzT9j+QCCUqJSjQ2993rMgmXnMmIPEQkp1z9ubZWe/8zcvD7fN+58zL6+n4Y//ncPf6sPNfds4dnh72p8MrPu38152/uT+e9t9Px19Pd+f/n2+bZfv08/i7PeHvGZelmAZy5t/5CyftP/x9O5s/Hp4m8zybR6mFmdfZ3Bpxcdu+iEmzfRBP3Cnd2WGfJQVmH/wcrRVL7Gt/+7APYu22vbVi8gxIEisBeEnqDVUqyZBN4uME8F6sJwDEYGcAHmG2AeiAOhfBVwmkyOiBPAOClUxcQhlimQFIA3HJux7iAKDvyBsQolUuFcmkcMF0j0dj4yAQl+CAKlxMvfbvA4pYBSi096LRb0imR/U+IEpUgEBdwvPy3Esp0+ZLXuKc1mzEkDqkpF3KSCvppVQlzQcoB0mkcNmLmSkm557o9wFJQp0BVQqpA35W56E4SaQOxffOGYAonrHSOJADkKlLper2rqgD4zHfj8sAeOpSzT3rAxApE9ciqWhAZm8YpDIAg9q2ADqGLIZwawNkDSik+QBIcx1aVCyGIkW9odL2bg5EDcgs6NQduACwidvKtLhUCQlUTLSyuESYD51j6xI0OaLVSVzSGlla3fIG6A4W9CCVi16qrDVcf94FwJEzXZc5jUQnnta8AGhrRE0z+IYRGXLiliPqCBkj60o6ABBZDLWLtYssMa0BQHEaUJg4MUbTd2MeFjWaU/U3wuIsYJcjZ1ghypLXyl0CDS1vYOqkMePc3xd52OomNXhbqtmZ+ywAM8godg1SGcAvRONo1MVIVHk1dI5ikPuZ+0qhAghSwcx5xeCNbD0xOkuFxwA9o0YKovLEpaaY5hgQVWUAaDwlgCKdQTFrLQBJxOR6tBKV6sMo5spVLX2QiRTge10HwNMThH1BsUCyfCGIWgsgDZm45K3eIGIQR2gDe1udqQx5Y5V2Xos45I31EhazopYaDHu2Ky5aIPAYsFyqKYdEU5ds324vVz8mdfVOg8WLcWvSdcbyyiZQ0DltdSR9YfUMdVw4GD0R8UYmA5ZpdeX+wOhRcuV+wmhOvXL/Af6aW+jK/cq65VIxaXTD8csh0wX/8KbvBBvFUmPTdiW6Ya6Y1ND9wmlZi9yyS4y++L6ZM6WznCw+v7HD6qcz86hXVO5M0jKNh5r0pRxPZO7y6mNlyp3DPtYEn75/vGKOD29XnfeHx8fzTenl7/pqFF+dr1X91/8=);lineShape=1;" vertex="1" parent="1">
                    <mxGeometry x="355.17267112528407" y="467.7577724215869" width="64.5717446964416" height="103.47562958309746" as="geometry"/>
                </mxCell>
                <mxCell id="20" value="" style="group" vertex="1" connectable="0" parent="1">
                    <mxGeometry x="340" y="585" width="290" height="230" as="geometry"/>
                </mxCell>
                <mxCell id="15" value="first go file&lt;br&gt;&lt;div style=&quot;text-align: left;&quot;&gt;&lt;br&gt;&lt;/div&gt;&lt;div style=&quot;text-align: left;&quot;&gt;&lt;span style=&quot;background-color: initial;&quot;&gt;package inventory&lt;/span&gt;&lt;/div&gt;&lt;div style=&quot;text-align: left;&quot;&gt;&lt;span style=&quot;background-color: initial;&quot;&gt;func main(){&lt;/span&gt;&lt;/div&gt;&lt;div style=&quot;text-align: left;&quot;&gt;&lt;br&gt;&lt;/div&gt;&lt;div style=&quot;text-align: left;&quot;&gt;&lt;span style=&quot;background-color: initial;&quot;&gt;}&lt;/span&gt;&lt;/div&gt;&lt;div style=&quot;text-align: left;&quot;&gt;&lt;span style=&quot;background-color: initial;&quot;&gt;&lt;br&gt;&lt;/span&gt;&lt;/div&gt;&lt;div style=&quot;text-align: left;&quot;&gt;&lt;br&gt;&lt;/div&gt;&lt;div style=&quot;text-align: left;&quot;&gt;&lt;span style=&quot;background-color: initial;&quot;&gt;&lt;br&gt;&lt;/span&gt;&lt;/div&gt;&lt;div style=&quot;text-align: left;&quot;&gt;&lt;span style=&quot;background-color: initial;&quot;&gt;&lt;br&gt;&lt;/span&gt;&lt;/div&gt;" style="text;html=1;align=center;verticalAlign=middle;resizable=0;points=[];autosize=1;strokeColor=none;fillColor=none;" vertex="1" parent="20">
                    <mxGeometry x="5" width="120" height="160" as="geometry"/>
                </mxCell>
                <mxCell id="16" value="2nd go file&lt;br&gt;&lt;div style=&quot;text-align: left;&quot;&gt;&lt;br&gt;&lt;/div&gt;&lt;div style=&quot;text-align: left;&quot;&gt;&lt;span style=&quot;background-color: initial;&quot;&gt;package inventory&lt;/span&gt;&lt;/div&gt;&lt;div style=&quot;text-align: left;&quot;&gt;&lt;span style=&quot;background-color: initial;&quot;&gt;func main(){&lt;/span&gt;&lt;/div&gt;&lt;div style=&quot;text-align: left;&quot;&gt;&lt;br&gt;&lt;/div&gt;&lt;div style=&quot;text-align: left;&quot;&gt;&lt;span style=&quot;background-color: initial;&quot;&gt;}&lt;/span&gt;&lt;/div&gt;" style="text;html=1;align=center;verticalAlign=middle;resizable=0;points=[];autosize=1;strokeColor=none;fillColor=none;" vertex="1" parent="20">
                    <mxGeometry x="160" width="120" height="100" as="geometry"/>
                </mxCell>
                <mxCell id="17" value="" style="shape=stencil(lVnZctxGDPyafUXNDOZ8dpz/cJXlaCuK5JLlHH8fMJuhiCbZkt7kNUDO4Gh0gxf99OP+y/e7Swo/Xp6ffr/76/r15f6iv1xSuj7e3z1fX+yvi36+6KdvT893vz0//Xz8evv39y+L5fLXH09/Lk/4++aXJOTFKYV/bj9Eyem/H369mT9cHzfmWVpx5lXiODfvot48qoR+bh+D9O4duiRyHnve8Oe3I2YlDk3ScA5qN87nDsmOFL1Dl96IQ5bkj5SrJHLp1CT7NxSVVM8dNIgG7zCkBOKQpEPasgxyBy3zAKvDmIE+dmgziNOhZVGSBx2Sm3ewTJM75CjqHXqUSt6QVaKvpW7Vy2o7S/d36HarQhyqqE9cH9JJ4nKT4t8wIq2l3KX6xA2VQmqpBEk+SqPODj92sLAm79DmO4+PNEQzOhRyh+VI6h2s+Aho2JGg+EaaBX/skKRB4vrEqWOHPEFuUxr/9+CxQ8VLt0FhpnTJ/g7WD4E4VIMZH6Vq4EkyXRWBrK5hOHYo0rxDaaKkWpcDAMwk2qLN7uDDagWvJA9NJzCuDmke8tihYD8YGLPEtSbDh1UzHSg9SPCJW9CWRKmnmdd1AlUZ5EhdpXnUSCqdDdEi0V/ahjTrh27zBsbukEha1HAu+iPZmMyk+Ky/8A2FzjgDRgirTW42H8xh+GqNUQoJqyFp9NU6pJEgGabAFZp0Zr+rVQ6sBnKA9To7/Ni+4rgKtCrMvmawZ8zNUBpgOMykn9mPAPaBxafPKbB5PrNfS3Jzfm5f8fxsdJr98GAU6TCPYb3f2mZvXaBXsG8swcbR/IFWBD+zh/OswHGWAO1gPwhwWYKbf37mCW4SAHvfKugMTHtSvjP70CGe9PxlH39lDVmQBEcOEHUHWVS7LPfFgi48/iGBPdNSCy/D54c36qGgPYtPl4EAxCB9rJrj1Z7Gc+zjnz7WkHGqw9OOh0kshTckkgmJDEE/at8xQDbIeUEkb98o3VomhrfvVH3YRAJ6ZnKbUX0bebgc0ElFzmbwgJbhkmtYyYCDjTXGtsZuo2ASiTMV0DdLWbM3tB2fS/MRZ/QM+j6tgT4lgPAGTj1M6DZA9jh3DMesd8wgrg5FAuPVxtMBqwdtfiPiUBomt1niWpLqKWbmet/ERPRvKMoVlOEj6JtO+63ulxw6R/SxQ5qMbLMVYf1goq7utiJM35S1mNeWDlSumDAdsBUptDRKmUNps7NgDbRoZVDjSudsWTcUmxUEI1KmKkH6GnIyYF0WBP7Sm1nx3j0K1+95N2wNnZkcX3ZB4MBRIJdJdzdbjsHekHeLlzAp+tkCDAiGgSFd7kZEMiumyrZ+A6NkapguIhvujw2qWFMbbgFJNeRhtaE6VeLqEOgIMigN0NSF8nibsgU2NXyi2NgH5VI407aBAy1n5cioWxw4s3TQyW5qHaiJpikPjx0SorHdirG3vd5ffzmGSkzbstlnW/a5Y3nlSmzDsRsmibZ/wOnGF18HRHWQ2ATMFhciYbecmeVxYp5QtrBEhamK36dyAg6oQEVaQErOlxpxKqD3mmdUOOwjRUSCEKeiPTHvaM5G8Qe/pL1pbn+8frT7dn14uH3z2/4/fuSzn24fCPXzvw==);lineShape=1;" vertex="1" parent="20">
                    <mxGeometry x="69.33443623859989" y="109.36685201085231" width="74.31745127181823" height="77.39306714336946" as="geometry"/>
                </mxCell>
                <mxCell id="18" value="dono me same first line he&amp;nbsp;&lt;br&gt;package main" style="text;html=1;align=center;verticalAlign=middle;resizable=0;points=[];autosize=1;strokeColor=none;fillColor=none;" vertex="1" parent="20">
                    <mxGeometry x="21.49000000000001" y="190" width="170" height="40" as="geometry"/>
                </mxCell>
            </root>
        </mxGraphModel>
    </diagram>
</mxfile>